<svg width="145" height="40" viewBox="0 0 145 40" fill="none" xmlns="http://www.w3.org/2000/svg">
<path d="M69.7478 18.2634C72.2186 18.2634 74.2685 17.4146 75.847 15.7468C77.4256 14.079 78.2149 11.8576 78.2149 9.13285C78.2149 6.40809 77.4165 4.18436 75.847 2.51657C74.2776 0.848769 72.2186 0 69.7478 0C67.277 0 65.2134 0.848769 63.628 2.51657C62.0425 4.18436 61.2487 6.40581 61.2487 9.12827C61.2487 11.8507 62.0494 14.0653 63.628 15.7354C65.2065 17.4055 67.2724 18.2634 69.7478 18.2634ZM64.344 9.12827C64.344 7.08528 64.8588 5.46781 65.8769 4.35824C66.8949 3.24866 68.1646 2.68586 69.7661 2.68586C70.4889 2.66313 71.2076 2.80139 71.8704 3.09063C72.5332 3.37987 73.1233 3.81285 73.5981 4.35824C74.6025 5.47925 75.1127 7.08299 75.1127 9.12827C75.1127 11.1736 74.6025 12.7887 73.5913 13.9006C72.5801 15.0125 71.3035 15.573 69.7203 15.573C68.9939 15.5958 68.2714 15.4571 67.6052 15.1667C66.9389 14.8762 66.3454 14.4415 65.8677 13.8937C64.8588 12.7704 64.344 11.1667 64.344 9.12827Z" fill="#111111"/>
<path d="M91.4452 10.4209C91.4452 12.5234 91.1112 13.9029 90.4477 14.5229C89.7843 15.1429 88.7662 15.4677 87.437 15.4677C86.1078 15.4677 85.1057 15.1497 84.4194 14.5229C83.7331 13.896 83.4219 12.5234 83.4219 10.4209V0.283691H80.4135V10.4552C80.3974 11.6945 80.531 12.9313 80.8115 14.1385C81.1253 15.3021 81.8246 16.3249 82.7951 17.0395C83.8337 17.8516 85.3963 18.2634 87.437 18.2634C88.9744 18.2634 90.2784 18.0072 91.3125 17.5039C92.3477 17.0088 93.1877 16.1818 93.6987 15.1543C94.218 14.1202 94.4719 12.5828 94.4719 10.4552V0.283691H91.4452V10.4209Z" fill="#111111"/>
<path d="M100.379 5.52273L108.645 17.9752H111.537V0.283691H108.626V12.7361L100.361 0.283691H97.4804V17.9752H100.379V5.52273Z" fill="#111111"/>
<path d="M122.042 2.68586C123.218 2.68586 124.202 2.9787 124.964 3.55522C125.325 3.81844 125.624 4.15883 125.838 4.55175C126.052 4.94466 126.176 5.38025 126.201 5.827L126.231 6.18389H129.324L129.283 5.75608C129.214 4.93169 128.971 4.13138 128.569 3.40835C128.167 2.68531 127.616 2.05611 126.952 1.56256C125.6 0.521616 123.936 0 122.019 0C119.523 0 117.498 0.835042 116.002 2.48683C114.506 4.13861 113.76 6.36234 113.76 9.13285C113.76 11.9034 114.515 14.1431 116.002 15.7812C117.489 17.4192 119.523 18.268 122.019 18.268C124.014 18.268 125.696 17.7441 127.013 16.7077C128.331 15.6713 129.111 14.1637 129.283 12.2603L129.32 11.837H126.233L126.201 12.1916C126.103 13.292 125.698 14.1088 124.961 14.6922C124.225 15.2756 123.223 15.5775 121.987 15.5775C120.386 15.5775 119.169 15.0399 118.247 13.9395C117.325 12.8391 116.849 11.2147 116.849 9.13514C116.849 7.05554 117.322 5.43121 118.256 4.33078C119.189 3.23036 120.431 2.68586 122.042 2.68586Z" fill="#111111"/>
<path d="M134.627 15.1909V10.2447H143.961V7.46048H134.627V3.06793H144.607V0.283691H131.612V17.9752H145V15.1909H134.627Z" fill="#111111"/>
<path d="M66.7348 21.0797L59.9401 38.7712H63.143L65.0121 33.6237H71.5575L73.5204 38.7712H76.8926L69.6746 21.0797H66.7348ZM70.6057 31.0705H65.9066L68.1944 24.731L70.6057 31.0705Z" fill="#111111"/>
<path d="M86.1649 23.4819C87.3432 23.4819 88.3246 23.7747 89.0864 24.3489C89.4482 24.6127 89.7469 24.9536 89.9609 25.3468C90.175 25.7401 90.299 26.176 90.3241 26.623L90.3562 26.9776H93.4493L93.4058 26.5521C93.337 25.7277 93.0936 24.9274 92.6916 24.2043C92.2897 23.4813 91.7384 22.8521 91.0745 22.3585C89.7202 21.3176 88.0592 20.7891 86.1421 20.7891C83.6461 20.7891 81.6237 21.6265 80.1252 23.2782C78.6267 24.93 77.8854 27.1538 77.8854 29.9243C77.8854 32.6948 78.6381 34.9322 80.1252 36.5726C81.6122 38.2129 83.6461 39.0594 86.1421 39.0594C88.137 39.0594 89.8185 38.5355 91.1363 37.4991C92.4541 36.4628 93.2342 34.9551 93.4058 33.0517L93.4447 32.6284H90.3676L90.3356 32.983C90.2372 34.0812 89.8323 34.9002 89.0979 35.4813C88.3635 36.0624 87.3592 36.3667 86.1238 36.3667C84.5223 36.3667 83.3052 35.8313 82.3832 34.7286C81.4613 33.6259 80.9854 32.0061 80.9854 29.9243C80.9854 27.8424 81.459 26.218 82.3924 25.1199C83.3258 24.0218 84.5543 23.4819 86.1649 23.4819Z" fill="#111111"/>
<path d="M111.461 21.0797H107.325L99.624 28.9062V21.0797H96.6087V38.7712H99.624V32.6857L101.813 30.542L107.668 38.7712H111.591L103.939 28.4533L111.461 21.0797Z" fill="#111111"/>
<path d="M58.3821 0.32489H55.2409C55.3511 0.655853 55.4029 1.00341 55.3942 1.35211C55.3942 2.43423 55.0213 3.86867 51.7681 3.86867H48.0824V0.32489H45.0694V6.65749H51.7909C53.9232 6.65749 55.5864 6.19993 56.7257 5.30541C57.865 4.41088 58.4919 3.05422 58.4919 1.35211C58.4918 1.00678 58.455 0.662437 58.3821 0.32489Z" fill="#111111"/>
<path d="M57.6019 20.5032C57.1353 19.8804 56.506 19.3983 55.7831 19.1099C56.3734 18.7334 56.8559 18.2103 57.1835 17.5915C57.5112 16.9728 57.6727 16.2797 57.6523 15.5799C57.6746 14.9059 57.5311 14.2367 57.2343 13.6312C56.9375 13.0256 56.4965 12.5022 55.9501 12.107C54.8566 11.2902 53.3489 10.8762 51.4729 10.8762H45.0694V28.5699H51.7932C53.9277 28.5699 55.5887 28.1124 56.7303 27.2178C57.8719 26.3233 58.4942 24.9689 58.4942 23.2645C58.5042 22.2717 58.1911 21.3024 57.6019 20.5032ZM53.9735 17.4352C53.4565 17.7853 52.6008 17.9614 51.4569 17.9614H48.0824V13.6604H51.2465C52.5619 13.6604 53.4839 13.848 53.9918 14.214C54.4997 14.5801 54.6781 15.0697 54.6781 15.7766C54.6781 16.5705 54.4494 17.1127 53.9735 17.4352ZM48.0824 20.7457H51.4752C53.0126 20.7457 54.0696 20.9539 54.6164 21.3657C55.1632 21.7775 55.3919 22.3792 55.3919 23.2645C55.3919 24.3467 55.0144 25.7811 51.7635 25.7811H48.0824V20.7457Z" fill="#111111"/>
<path d="M55.957 34.2116C54.8634 33.3949 53.3581 32.9808 51.4798 32.9808H45.0694V38.8261H48.0824V35.765H51.2465C52.5619 35.765 53.4839 35.9503 53.9918 36.3187C54.4997 36.687 54.6781 37.1743 54.6781 37.8812C54.6858 38.2027 54.6346 38.5229 54.5271 38.8261H57.5196C57.6145 38.4523 57.6606 38.0678 57.6568 37.6822C57.679 37.0088 57.5357 36.3402 57.2393 35.7351C56.943 35.13 56.5026 34.6069 55.957 34.2116Z" fill="#111111"/>
<path d="M38.2091 20.0519L33.0849 18.8554C33.0329 18.8433 32.9792 18.8398 32.9261 18.8452L30.7648 19.0609L30.3159 18.7403L32.8882 18.4007C32.9513 18.392 33.0122 18.3713 33.0675 18.3395L37.613 15.706C37.7113 15.65 37.7867 15.5612 37.826 15.4551C37.8652 15.3491 37.8659 15.2326 37.8278 15.1261C37.7897 15.0196 37.7153 14.93 37.6176 14.8729C37.52 14.8158 37.4053 14.795 37.2939 14.8141L32.1041 15.6623C32.0532 15.6715 32.004 15.6887 31.9584 15.7133L28.6064 17.5102L28.4082 17.3645L28.5539 17.1692L30.998 15.7585L32.862 15.5092C32.9739 15.4947 33.0772 15.4413 33.1538 15.3583C33.2303 15.2753 33.2752 15.168 33.2806 15.0552C33.286 14.9425 33.2515 14.8314 33.1832 14.7415C33.115 14.6515 33.0172 14.5885 32.9071 14.5634L32.4583 14.4585L35.0816 11.0249C35.1495 10.9352 35.184 10.8247 35.179 10.7123C35.1741 10.5999 35.13 10.4928 35.0545 10.4095C34.9789 10.3261 34.8766 10.2718 34.7653 10.2559C34.6539 10.24 34.5405 10.2636 34.4447 10.3224L29.9749 13.0914C29.9295 13.1196 29.8892 13.155 29.8554 13.1964L29.4094 13.7414L29.0043 13.6394L29.5216 12.9209C29.5524 12.8763 29.576 12.8271 29.5916 12.7752L29.9516 11.5801L32.3184 10.2102C32.4158 10.1536 32.4904 10.0646 32.5291 9.9588C32.5679 9.85296 32.5683 9.73689 32.5304 9.63075C32.4925 9.52461 32.4186 9.4351 32.3215 9.37775C32.2245 9.32041 32.1105 9.29885 31.9992 9.31682L30.5564 9.55875L31.0985 7.75888C31.135 7.65012 31.1313 7.53192 31.0883 7.42561C31.0452 7.31929 30.9656 7.23187 30.8638 7.1791C30.7619 7.12633 30.6446 7.1117 30.5329 7.13784C30.4212 7.16398 30.3225 7.22918 30.2547 7.32166L28.2552 9.93766L26.7978 10.1752C26.7469 10.1847 26.6978 10.2019 26.6521 10.2262L26.4466 10.337L26.3985 9.86042L26.4553 9.82836C26.5118 9.79734 26.5613 9.7552 26.601 9.70448L29.7927 5.53054C29.8649 5.44095 29.9027 5.32843 29.899 5.21341C29.8953 5.09839 29.8506 4.98849 29.7728 4.90367C29.695 4.81884 29.5894 4.76472 29.4751 4.75112C29.3609 4.73751 29.2455 4.76534 29.15 4.82954L26.0895 6.72413L26.0356 6.17762C26.0253 6.06488 25.9755 5.95939 25.8951 5.87973C25.8146 5.80007 25.7087 5.75133 25.5958 5.74211C25.483 5.73288 25.3705 5.76375 25.2782 5.82928C25.1859 5.89481 25.1197 5.99081 25.0912 6.10037L24.6919 7.58982C24.647 7.61746 24.6071 7.65244 24.5738 7.69329L22.5918 10.114L22.4111 9.77735L24.2168 7.42222C24.2553 7.37187 24.2835 7.31443 24.2998 7.25316L25.6523 2.17564C25.6805 2.06691 25.67 1.95172 25.6224 1.84996C25.5748 1.7482 25.4931 1.66624 25.3916 1.61822C25.29 1.5702 25.1749 1.55913 25.066 1.58693C24.9572 1.61473 24.8614 1.67965 24.7953 1.77049L21.7261 6.04062C21.6942 6.08457 21.6705 6.13395 21.6561 6.18636L21.2335 7.58545L20.9624 7.08119L21.2379 6.04937C21.2541 5.98808 21.2581 5.92419 21.2495 5.86136L20.5514 0.649759C20.5372 0.53773 20.4839 0.434303 20.401 0.357603C20.3181 0.280902 20.2109 0.235821 20.0981 0.230259C19.9853 0.224697 19.8741 0.25901 19.7841 0.327183C19.694 0.395357 19.6308 0.493043 19.6056 0.603123L18.4033 5.72291C18.3918 5.77504 18.3884 5.8286 18.3931 5.88177L18.6292 8.22815L18.3042 8.65079L17.9442 5.92403C17.9363 5.86092 17.916 5.8 17.8844 5.74477L15.2539 1.19774C15.1968 1.10128 15.1079 1.02771 15.0025 0.989655C14.8971 0.951602 14.7817 0.951442 14.6762 0.989202C14.5706 1.02696 14.4816 1.10029 14.4242 1.19658C14.3669 1.29288 14.3449 1.40614 14.3619 1.5169L14.9828 5.31484C14.8711 5.30469 14.7594 5.33502 14.6682 5.40029C14.577 5.46556 14.5123 5.56144 14.4858 5.67045L14.2541 6.54488L10.5771 3.72921C10.4875 3.66127 10.3769 3.62679 10.2645 3.63173C10.1522 3.63667 10.045 3.68073 9.96172 3.75628C9.87839 3.83183 9.82408 3.93413 9.80818 4.04548C9.79228 4.15683 9.81579 4.27024 9.87465 4.36609L12.6466 8.83005C12.6742 8.87535 12.7092 8.91574 12.7501 8.94956L13.454 9.53251L13.3476 9.92892L12.4732 9.3037C12.4288 9.27252 12.3795 9.24888 12.3274 9.23375L11.6264 9.02243L10.1341 6.21551C10.0814 6.11499 9.99497 6.03631 9.88995 5.99339C9.78492 5.95047 9.6681 5.94605 9.56013 5.98094C9.45217 6.01582 9.36001 6.08775 9.29995 6.18402C9.2399 6.28028 9.21581 6.39468 9.23195 6.50698L9.47533 8.36515L7.31403 7.7137C7.20566 7.67833 7.08825 7.68261 6.98274 7.72577C6.87723 7.76893 6.79048 7.84817 6.73797 7.94935C6.68545 8.05053 6.67058 8.16707 6.69601 8.2782C6.72145 8.38932 6.78552 8.4878 6.87682 8.55606L9.79158 10.7917L9.92129 11.7725C9.92972 11.8352 9.95053 11.8957 9.9825 11.9503L10.204 12.3351L9.74349 12.3802L9.58755 12.1281C9.55991 12.0832 9.52493 12.0433 9.48408 12.0101L5.42818 8.68431C5.34107 8.6124 5.23143 8.57344 5.11847 8.57427C5.00551 8.57509 4.89645 8.61565 4.8104 8.68884C4.72436 8.76202 4.66682 8.86316 4.64787 8.97452C4.62892 9.08587 4.64977 9.20035 4.70677 9.29787L6.66404 12.6892L5.73569 12.7825C5.62295 12.7928 5.51746 12.8425 5.4378 12.923C5.35814 13.0034 5.3094 13.1094 5.30018 13.2222C5.29095 13.335 5.32182 13.4475 5.38735 13.5398C5.45288 13.6321 5.54888 13.6984 5.65844 13.7269L7.84452 14.3098L10.0583 16.0106L9.7362 16.1826L7.18287 14.3448C7.13847 14.3136 7.08923 14.29 7.03713 14.2748L2.01936 12.765C1.91098 12.7296 1.79357 12.7339 1.68806 12.7771C1.58255 12.8202 1.49581 12.8995 1.44329 13.0006C1.39078 13.1018 1.37591 13.2184 1.40134 13.3295C1.42677 13.4406 1.49085 13.5391 1.58214 13.6074L5.7969 16.8398C5.84705 16.8787 5.90456 16.9069 5.96595 16.9229L7.56907 17.3499L7.05753 17.6239L5.81147 17.3324C5.75955 17.3196 5.70575 17.3161 5.65261 17.3222L0.439553 17.8396C0.326816 17.8499 0.221332 17.8997 0.141669 17.9801C0.0620063 18.0605 0.0132712 18.1665 0.0040427 18.2793C-0.00518575 18.3922 0.0256841 18.5046 0.0912182 18.5969C0.156752 18.6893 0.25275 18.7555 0.362312 18.784L5.49376 20.1568C5.55496 20.1735 5.61884 20.178 5.68176 20.17L7.46268 19.9324L7.86201 20.2385L5.68613 20.5941C5.63514 20.6032 5.58594 20.6204 5.5404 20.6451L0.917575 23.1226C0.817057 23.1752 0.738382 23.2617 0.695458 23.3667C0.652533 23.4718 0.648122 23.5886 0.683006 23.6966C0.71789 23.8045 0.789821 23.8967 0.886084 23.9567C0.982348 24.0168 1.09674 24.0409 1.20905 24.0247L5.00554 23.5234C4.94832 23.5845 4.90788 23.6594 4.88816 23.7408C4.86844 23.8221 4.8701 23.9072 4.89298 23.9877C4.91586 24.0683 4.95919 24.1415 5.01875 24.2003C5.07831 24.2592 5.15208 24.3016 5.23289 24.3235L6.07817 24.5494L3.37764 27.8416C3.3001 27.9279 3.25637 28.0393 3.25451 28.1553C3.25264 28.2713 3.29277 28.3841 3.36749 28.4728C3.44221 28.5616 3.54649 28.6203 3.66111 28.6382C3.77573 28.6561 3.89296 28.632 3.9912 28.5703L8.5907 25.9135C8.6465 25.8815 8.69591 25.8395 8.73644 25.7896L9.06435 25.3597L9.51614 25.4807L9.03812 26.0971C8.99928 26.1473 8.97103 26.2048 8.95505 26.2662L8.73644 27.0882L5.76775 28.6782C5.66905 28.732 5.59224 28.8186 5.55059 28.923C5.50893 29.0274 5.50505 29.1431 5.53962 29.25C5.57418 29.357 5.64501 29.4485 5.73988 29.5088C5.83475 29.5691 5.9477 29.5944 6.05922 29.5803L8.14183 29.3048L7.59822 31.3452C7.57056 31.4538 7.58157 31.5686 7.62936 31.67C7.67715 31.7713 7.75874 31.8529 7.86011 31.9006C7.96148 31.9484 8.07632 31.9594 8.18491 31.9317C8.29349 31.904 8.38904 31.8393 8.45516 31.7489L10.4285 29.0032L11.3248 28.8851C11.3879 28.8767 11.4489 28.8559 11.504 28.8239L12.1161 28.4698L12.1759 28.907L11.6818 29.213C11.6365 29.2406 11.5961 29.2756 11.5623 29.3165L8.24093 33.3826C8.16601 33.4694 8.12448 33.5801 8.12379 33.6948C8.1231 33.8095 8.1633 33.9207 8.23717 34.0084C8.31104 34.0961 8.41375 34.1547 8.52688 34.1735C8.64001 34.1924 8.75616 34.1703 8.85449 34.1113L12.5796 31.9529L12.7034 32.874C12.7127 32.9489 12.7396 33.0207 12.7819 33.0833C12.8241 33.1459 12.8806 33.1977 12.9467 33.2343C13.0127 33.271 13.0865 33.2915 13.162 33.2942C13.2375 33.2969 13.3126 33.2818 13.3811 33.25L12.3129 36.7929C12.2788 36.9012 12.284 37.018 12.3275 37.1228C12.3711 37.2277 12.4503 37.3138 12.5511 37.366C12.6519 37.4182 12.7679 37.4333 12.8786 37.4084C12.9894 37.3835 13.0879 37.3204 13.1567 37.2301L16.3892 33.0139C16.4271 32.9632 16.4553 32.9059 16.4722 32.8448L17.0537 30.6908L17.3219 31.1543L16.8847 33.0037C16.8725 33.0552 16.8691 33.1084 16.8745 33.1611L17.3977 38.3814C17.408 38.4942 17.4577 38.5996 17.5382 38.6793C17.6186 38.759 17.7246 38.8077 17.8374 38.8169C17.9502 38.8262 18.0627 38.7953 18.155 38.7298C18.2473 38.6642 18.3136 38.5682 18.3421 38.4587L19.7149 33.3272C19.7311 33.2659 19.7351 33.202 19.7266 33.1392L19.5152 31.555L19.8228 31.128L20.1521 33.1378C20.1614 33.1887 20.1786 33.2379 20.2031 33.2835L22.6807 37.9063C22.7333 38.0068 22.8198 38.0855 22.9248 38.1284C23.0298 38.1714 23.1467 38.1758 23.2546 38.1409C23.3626 38.106 23.4547 38.0341 23.5148 37.9378C23.5749 37.8415 23.5989 37.7271 23.5828 37.6148L22.8833 32.3464C22.8748 32.2837 22.854 32.2232 22.8221 32.1686L21.1446 29.2728L21.3574 28.9813L23.096 31.7868L23.3015 33.3141C23.3167 33.4257 23.3704 33.5284 23.4534 33.6046C23.5364 33.6807 23.6433 33.7254 23.7558 33.7309C23.8683 33.7365 23.9791 33.7025 24.0692 33.6349C24.1592 33.5673 24.2228 33.4703 24.2488 33.3607L24.3465 32.9454L27.4011 35.4346C27.488 35.5095 27.5987 35.551 27.7134 35.5517C27.8281 35.5524 27.9392 35.5122 28.027 35.4384C28.1147 35.3645 28.1732 35.2618 28.1921 35.1486C28.2109 35.0355 28.1889 34.9194 28.1298 34.821L25.4716 30.2215C25.4409 30.1648 25.3987 30.1152 25.3477 30.0758L25.0693 29.8747L25.1786 29.4127L25.6552 29.7785C25.7055 29.817 25.763 29.8452 25.8243 29.8616L27.1199 30.207L28.5977 32.7574C28.6551 32.8523 28.7435 32.9245 28.8481 32.9617C28.9527 32.9989 29.0668 32.9988 29.1713 32.9614C29.2758 32.924 29.3641 32.8516 29.4213 32.7565C29.4785 32.6614 29.5011 32.5495 29.4852 32.4397L29.2112 30.7666L30.8989 31.214C31.0076 31.2423 31.1228 31.2317 31.2246 31.1841C31.3263 31.1365 31.4083 31.0549 31.4563 30.9533C31.5043 30.8517 31.5154 30.7366 31.4876 30.6278C31.4598 30.5189 31.3949 30.4232 31.304 30.3571L28.8585 28.5995L28.6385 27.2485C28.6292 27.1975 28.612 27.1483 28.5875 27.1027L28.3484 26.6568L28.8061 26.5956L28.9839 26.9045C29.0151 26.9613 29.0578 27.0109 29.1092 27.0503L33.2817 30.2434C33.3713 30.3113 33.4819 30.3458 33.5943 30.3409C33.7066 30.3359 33.8138 30.2919 33.8971 30.2163C33.9804 30.1408 34.0347 30.0385 34.0506 29.9271C34.0665 29.8158 34.043 29.7024 33.9841 29.6065L31.868 26.1919L32.4277 26.1175C32.5397 26.1032 32.6431 26.05 32.7198 25.9671C32.7965 25.8842 32.8416 25.777 32.8472 25.6642C32.8527 25.5514 32.8184 25.4402 32.7502 25.3502C32.6821 25.2601 32.5844 25.1969 32.4743 25.1717L30.8231 24.784L28.4213 22.8209L28.7376 22.6373L31.3856 24.6674C31.4356 24.7065 31.4932 24.7348 31.5547 24.7505L36.6322 26.103C36.7411 26.1323 36.8568 26.1226 36.9591 26.0753C37.0615 26.0281 37.144 25.9464 37.1922 25.8445C37.2405 25.7426 37.2514 25.627 37.2231 25.5179C37.1948 25.4088 37.1291 25.3131 37.0374 25.2475L32.7658 22.1768C32.7214 22.1456 32.6721 22.122 32.62 22.1068L30.6671 21.5239L31.1233 21.2601L32.757 21.6973C32.8183 21.7135 32.8822 21.7175 32.945 21.709L38.1537 21.0152C38.217 21.0189 38.2803 21.01 38.3402 20.9892C38.4 20.9683 38.4551 20.9359 38.5024 20.8937C38.5497 20.8516 38.5883 20.8005 38.6158 20.7435C38.6434 20.6864 38.6594 20.6245 38.6631 20.5613C38.6667 20.498 38.6579 20.4347 38.637 20.3748C38.6162 20.315 38.5837 20.2599 38.5416 20.2126C38.4994 20.1653 38.4484 20.1267 38.3913 20.0992C38.3343 20.0716 38.2724 20.0555 38.2091 20.0519ZM12.0272 25.9033L12.1496 25.4967L12.5664 25.4413L12.4615 25.8333L12.0272 25.9033ZM12.8798 12.3015L13.2908 12.4108L13.3403 12.7927L12.9454 12.6994L12.8798 12.3015ZM15.6051 7.49218L16.8307 9.77444L16.1021 9.18128L15.7027 8.49048L15.6051 7.49218ZM20.1609 11.5437C20.1916 11.6065 20.2353 11.6621 20.289 11.7068C20.3428 11.7515 20.4054 11.7843 20.4727 11.8031L20.4946 11.962L20.2367 12.1208L20.1609 11.5437ZM26.585 13.0448L26.4728 13.4674L26.0851 13.5068L26.1813 13.0987L26.585 13.0448ZM26.8182 19.4369L26.8328 19.4165L27.3662 19.5622L26.8182 19.4369ZM21.6751 14.2661L22.1487 15.0822C22.0618 15.0835 21.9769 15.1092 21.9039 15.1566L21.8092 15.1726L21.439 14.5751L21.6751 14.2661ZM23.5624 22.2482C23.5079 22.2013 23.4437 22.1669 23.3744 22.1476L23.3511 21.9684L23.9224 21.639L24.2299 21.8897L23.5624 22.2482ZM24.2445 18.1981C24.2184 18.2159 24.1936 18.2354 24.1701 18.2564L23.8058 17.9781C23.83 17.9389 23.8491 17.8967 23.8626 17.8527L23.9457 17.5379L24.5563 18.0057L24.2445 18.1981ZM14.6665 16.6445L14.7248 17.0031L14.1273 17.3732L13.8183 17.1371L14.6665 16.6445ZM16.8424 23.7974L17.1732 24.3701L16.9211 24.6776L16.4708 23.8411L16.8424 23.7974ZM25.0329 23.7974L25.3331 23.758L25.371 24.0408L25.0329 23.7974ZM25.5852 16.0995L25.8082 15.9698L25.7601 16.1519L25.5852 16.0995ZM17.9631 14.3506L17.6571 14.7266L17.6367 14.7179L17.3714 14.6392L17.7912 14.0562L17.9631 14.3506ZM15.7843 13.38L15.7188 13.364L15.5176 13.0171L15.8572 13.1075L15.7843 13.38ZM13.5983 15.1289L13.352 15.1682L13.3083 14.9059L13.5983 15.1289ZM13.8897 20.8578L14.2643 21.1653C14.2643 21.1726 14.2643 21.1785 14.2643 21.1858L14.1841 21.451L13.6012 21.0313L13.8897 20.8578ZM14.6184 25.2883L14.7219 25.1528L14.974 25.1192L15.0134 25.4107L14.6461 25.4719L14.6184 25.2883ZM20.8283 24.2681C20.8673 24.2924 20.9095 24.3111 20.9537 24.3235L21.2685 24.408L20.8065 25.007L20.6127 24.6966C20.5962 24.6696 20.5766 24.6447 20.5544 24.6223L20.8283 24.2681ZM26.5384 20.7602L26.5151 20.7208L27.2569 20.6217L27.2088 20.6494L26.5384 20.7602ZM27.4128 16.1942L27.3312 16.2948L26.9639 16.5105H26.9377L27.2102 16.1315L27.4128 16.1942ZM23.4516 11.943L23.7213 11.5903L23.7475 11.7842L23.4516 11.943ZM20.3168 10.6197L20.139 11.2027C20.1322 11.2265 20.1273 11.2509 20.1244 11.2755V11.2464C20.1177 11.1823 20.0974 11.1203 20.065 11.0645C20.0326 11.0088 19.9888 10.9605 19.9364 10.9229L20.2206 9.86188L20.3168 10.6197ZM15.8572 11.4942L16.207 11.7856L16.1633 11.9532L15.8091 11.6996L15.8572 11.4942ZM11.7591 15.0079L11.9777 15.3839L11.6454 15.4393L11.4078 15.0545L11.7591 15.0079ZM10.7301 18.4226C10.7159 18.4381 10.7027 18.4547 10.6908 18.4721L10.5684 18.443L10.7301 18.4226ZM10.8875 19.4762C10.9515 19.4688 11.0132 19.4482 11.0689 19.4159C11.1245 19.3835 11.1729 19.3401 11.2111 19.2882L11.4778 19.3596L11.2548 19.6322L10.7826 19.4864L10.8875 19.4762ZM9.64147 21.6055L9.10807 22.2569L7.67838 23.143L6.6961 23.2421L9.58901 21.5661L9.64147 21.6055ZM10.9167 22.9259L11.1907 22.5674L11.6468 22.6883L11.3816 23.0352L10.9167 22.9259ZM15.181 26.6947L15.1926 26.7908L14.821 27.2441L14.789 26.9206L15.181 26.6947ZM13.9786 31.5157L14.2133 30.5145L15.7698 28.4814L15.9432 28.7816L13.9786 31.5157ZM19.0285 27.9218C19.0215 27.8577 19.0012 27.7958 18.9688 27.7401C18.9364 27.6843 18.8927 27.636 18.8405 27.5982L19.0052 26.9832L19.3943 27.2747L19.0941 28.4144L19.0285 27.9218ZM22.6209 27.9101C22.6209 27.9101 22.6209 27.9189 22.6209 27.9232L22.3047 27.4132L22.3542 27.2456L22.7244 27.537L22.6209 27.9101ZM25.3273 26.7442L25.285 26.3216L25.6873 26.4294L25.7456 26.8666L25.3273 26.7442ZM27.5658 20.5766L27.5338 20.5693H27.5629C27.6269 20.5621 27.6887 20.5416 27.7444 20.5093C27.8001 20.4769 27.8485 20.4333 27.8865 20.3813L28.2246 20.4716L27.5658 20.5766Z" fill="white"/>
<g style="mix-blend-mode:multiply">
<path d="M14.4855 5.67043L13.1185 10.8019C13.1023 10.8632 13.0983 10.9271 13.1069 10.9899L13.8006 16.1986C13.8149 16.3106 13.8681 16.414 13.951 16.4907C14.0339 16.5674 14.1412 16.6125 14.254 16.6181C14.3668 16.6236 14.4779 16.5893 14.568 16.5211C14.658 16.453 14.7212 16.3553 14.7464 16.2452L15.9488 11.1254C15.9601 11.0733 15.9636 11.0197 15.959 10.9666L15.4358 5.74621C15.4294 5.62998 15.3811 5.51999 15.2998 5.43665C15.2186 5.35331 15.1098 5.30228 14.9938 5.29303C14.8777 5.28377 14.7623 5.31692 14.6688 5.38632C14.5754 5.45572 14.5102 5.55667 14.4855 5.67043Z" fill="#8400D1"/>
<path d="M13.394 22.3458L12.0211 27.4846C12.0049 27.5458 12.0009 27.6097 12.0095 27.6726L12.7032 32.8769C12.7175 32.9889 12.7707 33.0923 12.8536 33.169C12.9365 33.2457 13.0438 33.2908 13.1566 33.2964C13.2694 33.3019 13.3805 33.2676 13.4706 33.1995C13.5606 33.1313 13.6238 33.0336 13.649 32.9235L14.8514 27.8037C14.8628 27.7516 14.8662 27.698 14.8616 27.6449L14.3384 22.426C14.3285 22.3131 14.2792 22.2073 14.1989 22.1272C14.1187 22.0472 14.0128 21.998 13.8999 21.9884C13.787 21.9788 13.6743 22.0094 13.5817 22.0748C13.4892 22.1402 13.4227 22.2362 13.394 22.3458Z" fill="#8400D1"/>
<path d="M0.359127 18.7839L5.49057 20.1568C5.55177 20.1735 5.61566 20.178 5.67858 20.1699L10.8873 19.4762C10.9988 19.461 11.1016 19.4073 11.1777 19.3243C11.2538 19.2414 11.2986 19.1344 11.3041 19.0219C11.3096 18.9095 11.2756 18.7986 11.208 18.7086C11.1404 18.6185 11.0434 18.555 10.9339 18.5289L5.81411 17.328C5.7622 17.3152 5.7084 17.3117 5.65526 17.3178L0.439284 17.8396C0.32638 17.8494 0.22057 17.8988 0.140516 17.979C0.0604625 18.0592 0.0113083 18.1651 0.00172375 18.278C-0.00786077 18.3909 0.0227402 18.5036 0.088129 18.5962C0.153518 18.6887 0.249494 18.7552 0.359127 18.7839Z" fill="#8400D1"/>
<path d="M17.0345 19.8755L22.1659 21.2484C22.227 21.2658 22.291 21.2703 22.3539 21.2615L27.5626 20.5678C27.6742 20.5526 27.777 20.4989 27.8531 20.4159C27.9292 20.333 27.9739 20.226 27.9795 20.1135C27.985 20.001 27.951 19.8902 27.8834 19.8001C27.8158 19.7101 27.7188 19.6465 27.6093 19.6205L22.4895 18.4196C22.4381 18.4067 22.3847 18.4032 22.3321 18.4094L17.1117 18.9311C16.999 18.9415 16.8935 18.9912 16.8138 19.0717C16.7342 19.1521 16.6855 19.258 16.6762 19.3709C16.667 19.4837 16.6979 19.5962 16.7634 19.6885C16.8289 19.7808 16.9249 19.847 17.0345 19.8755Z" fill="#8400D1"/>
<path d="M4.7065 9.30222L7.36331 13.9003C7.39505 13.9566 7.43765 14.0062 7.48865 14.046L11.6611 17.2348C11.7506 17.3038 11.8614 17.3392 11.9743 17.3347C12.0872 17.3302 12.195 17.2861 12.2786 17.2102C12.3622 17.1342 12.4164 17.0312 12.4317 16.9192C12.447 16.8073 12.4224 16.6935 12.3621 16.5979L9.59311 12.1281C9.56547 12.0832 9.53049 12.0433 9.48964 12.01L5.42791 8.68428C5.34071 8.61018 5.22996 8.5696 5.11553 8.56983C5.0011 8.57005 4.8905 8.61106 4.8036 8.6855C4.71669 8.75994 4.65918 8.86293 4.64138 8.97596C4.62359 9.089 4.64667 9.20467 4.7065 9.30222Z" fill="#8400D1"/>
<path d="M15.7258 21.8649L18.384 26.4644C18.4141 26.5215 18.4564 26.5713 18.5079 26.6101L22.6819 29.8033C22.7713 29.8723 22.8822 29.9077 22.9951 29.9032C23.108 29.8987 23.2157 29.8546 23.2993 29.7786C23.383 29.7027 23.4372 29.5997 23.4524 29.4877C23.4677 29.3757 23.4431 29.262 23.3829 29.1664L20.6138 24.6966C20.5862 24.6513 20.5513 24.6109 20.5104 24.5771L16.4486 21.2557C16.3618 21.1848 16.2529 21.1464 16.1407 21.1473C16.0286 21.1482 15.9203 21.1882 15.8345 21.2605C15.7488 21.3327 15.691 21.4327 15.6711 21.5431C15.6513 21.6534 15.6706 21.7673 15.7258 21.8649Z" fill="#8400D1"/>
<path d="M3.99092 28.563L8.59043 25.9062C8.64622 25.8742 8.69563 25.8323 8.73616 25.7823L11.9278 21.6084C11.9972 21.5191 12.0329 21.4083 12.0287 21.2953C12.0245 21.1823 11.9806 21.0745 11.9047 20.9906C11.8289 20.9068 11.726 20.8524 11.614 20.8369C11.502 20.8214 11.3882 20.8458 11.2924 20.9059L6.82262 23.675C6.77727 23.7031 6.73689 23.7386 6.70311 23.7799L3.37736 27.8416C3.30545 27.9287 3.26649 28.0384 3.26732 28.1513C3.26814 28.2643 3.3087 28.3733 3.38189 28.4594C3.45507 28.5454 3.55621 28.603 3.66756 28.6219C3.77892 28.6409 3.8934 28.62 3.99092 28.563Z" fill="#8400D1"/>
<path d="M16.5536 17.5437L21.1531 14.8869C21.2098 14.8557 21.2595 14.813 21.2988 14.7616L24.4861 10.5891C24.5541 10.4994 24.5885 10.3889 24.5836 10.2765C24.5786 10.1641 24.5346 10.057 24.459 9.97369C24.3835 9.89036 24.2812 9.83605 24.1698 9.82015C24.0585 9.80425 23.9451 9.82777 23.8492 9.88663L19.3853 12.6571C19.3396 12.6848 19.2991 12.7203 19.2658 12.762L15.9444 16.8223C15.8744 16.9093 15.8368 17.0179 15.8382 17.1295C15.8395 17.2411 15.8796 17.3488 15.9516 17.4341C16.0236 17.5194 16.1231 17.577 16.2329 17.597C16.3427 17.617 16.4561 17.5982 16.5536 17.5437Z" fill="#8400D1"/>
<g style="mix-blend-mode:multiply">
<path d="M19.6563 6.89323L16.4239 11.1094C16.3848 11.1594 16.3565 11.217 16.3408 11.2785L14.9883 16.356C14.9601 16.4647 14.9707 16.5799 15.0183 16.6817C15.0659 16.7835 15.1475 16.8654 15.249 16.9134C15.3506 16.9615 15.4657 16.9725 15.5746 16.9447C15.6834 16.9169 15.7792 16.852 15.8453 16.7612L18.9145 12.491C18.9453 12.4464 18.9689 12.3972 18.9845 12.3453L20.4987 7.32315C20.5307 7.21546 20.5239 7.09998 20.4796 6.99674C20.4354 6.8935 20.3563 6.80902 20.2563 6.75795C20.1562 6.70688 20.0414 6.69245 19.9319 6.71716C19.8223 6.74187 19.7248 6.80416 19.6563 6.89323Z" fill="#8400D1"/>
<path d="M12.2659 21.8824L9.03784 26.0971C8.99901 26.1473 8.97075 26.2048 8.95477 26.2662L7.60232 31.3437C7.57652 31.4513 7.58848 31.5644 7.63619 31.6642C7.6839 31.764 7.76445 31.8444 7.86436 31.8919C7.96427 31.9394 8.07747 31.9511 8.18498 31.925C8.29249 31.899 8.38778 31.8368 8.45489 31.7489L11.5241 27.4846C11.555 27.44 11.5786 27.3908 11.5941 27.3388L13.1083 22.3152C13.1416 22.2073 13.1358 22.091 13.0919 21.9869C13.0481 21.8828 12.969 21.7974 12.8685 21.7458C12.768 21.6942 12.6526 21.6796 12.5424 21.7045C12.4322 21.7295 12.3343 21.7925 12.2659 21.8824Z" fill="#8400D1"/>
<path d="M1.58623 13.603L5.80099 16.8355C5.85114 16.8743 5.90866 16.9026 5.97004 16.9186L11.0476 18.271C11.1563 18.2993 11.2715 18.2887 11.3732 18.2411C11.475 18.1935 11.557 18.1119 11.605 18.0103C11.653 17.9088 11.6641 17.7936 11.6363 17.6848C11.6085 17.5759 11.5436 17.4802 11.4527 17.4141L7.18259 14.3448C7.13819 14.3137 7.08895 14.29 7.03685 14.2749L2.01908 12.765C1.91221 12.7344 1.79802 12.7417 1.69595 12.7858C1.59387 12.8298 1.5102 12.9078 1.45918 13.0066C1.40816 13.1054 1.39294 13.2188 1.4161 13.3275C1.43927 13.4363 1.49939 13.5336 1.58623 13.603Z" fill="#8400D1"/>
<path d="M16.574 20.9934L20.7902 24.2259C20.8402 24.265 20.8978 24.2933 20.9592 24.309L26.0368 25.6614C26.1455 25.6897 26.2607 25.6791 26.3625 25.6315C26.4642 25.5839 26.5462 25.5023 26.5942 25.4007C26.6422 25.2991 26.6533 25.184 26.6255 25.0752C26.5977 24.9663 26.5328 24.8706 26.4419 24.8045L22.1718 21.7352C22.1272 21.7044 22.078 21.6808 22.0261 21.6653L17.0039 20.151C16.8962 20.1191 16.7807 20.1258 16.6775 20.1701C16.5743 20.2144 16.4898 20.2934 16.4387 20.3935C16.3876 20.4935 16.3732 20.6083 16.3979 20.7179C16.4226 20.8275 16.4849 20.925 16.574 20.9934Z" fill="#8400D1"/>
<path d="M9.23169 6.50552L9.92686 11.7725C9.93529 11.8352 9.9561 11.8957 9.98807 11.9503L12.6216 16.4973C12.6776 16.5956 12.7664 16.671 12.8724 16.7103C12.9785 16.7495 13.095 16.7502 13.2015 16.7121C13.3079 16.674 13.3976 16.5996 13.4547 16.5019C13.5117 16.4043 13.5326 16.2896 13.5135 16.1782L12.6653 10.9884C12.656 10.9375 12.6388 10.8883 12.6143 10.8427L10.1367 6.21987C10.0852 6.11821 9.99921 6.03816 9.89414 5.994C9.78906 5.94983 9.67172 5.94442 9.56302 5.97872C9.45433 6.01303 9.36135 6.08482 9.30066 6.18131C9.23998 6.27779 9.21554 6.39269 9.23169 6.50552Z" fill="#8400D1"/>
<path d="M14.6036 22.3298L15.3046 27.5968C15.313 27.6596 15.3338 27.72 15.3658 27.7746L18.0007 32.3217C18.0567 32.4199 18.1456 32.4953 18.2516 32.5346C18.3577 32.5738 18.4742 32.5745 18.5806 32.5364C18.6871 32.4983 18.7768 32.4239 18.8338 32.3262C18.8909 32.2286 18.9117 32.114 18.8927 32.0025L18.043 26.8128C18.0337 26.7618 18.0165 26.7126 17.992 26.667L15.5144 22.0442C15.4659 21.9374 15.3799 21.852 15.2728 21.8042C15.1656 21.7563 15.0447 21.7493 14.9328 21.7844C14.8208 21.8195 14.7255 21.8944 14.6649 21.9948C14.6043 22.0953 14.5825 22.2144 14.6036 22.3298Z" fill="#8400D1"/>
<path d="M1.19858 24.0277L6.46556 23.3325C6.528 23.3237 6.58827 23.3035 6.64337 23.2728L11.1904 20.6349C11.2869 20.5778 11.3604 20.489 11.3985 20.3836C11.4365 20.2781 11.4367 20.1628 11.3989 20.0572C11.3612 19.9517 11.2879 19.8626 11.1916 19.8053C11.0953 19.7479 10.982 19.7259 10.8712 19.743L5.68586 20.5941C5.63487 20.6032 5.58567 20.6205 5.54013 20.6451L0.917305 23.1227C0.816438 23.1743 0.737034 23.2599 0.693093 23.3643C0.649153 23.4687 0.643498 23.5853 0.677126 23.6935C0.710754 23.8017 0.781505 23.8946 0.876904 23.9557C0.972304 24.0169 1.08622 24.0424 1.19858 24.0277Z" fill="#8400D1"/>
<path d="M17.0228 18.6557L22.2898 17.9606C22.3525 17.9519 22.4129 17.9311 22.4676 17.8993L27.0147 15.2659C27.1154 15.2109 27.1933 15.1218 27.2343 15.0145C27.2752 14.9073 27.2766 14.789 27.2382 14.6808C27.1997 14.5726 27.1239 14.4817 27.0245 14.4244C26.925 14.3671 26.8084 14.3471 26.6955 14.3681L21.5043 15.2178C21.4534 15.2272 21.4043 15.2444 21.3586 15.2688L16.7372 17.7463C16.6318 17.7958 16.5479 17.8817 16.5011 17.9883C16.4543 18.0949 16.4477 18.2148 16.4826 18.3259C16.5175 18.4369 16.5915 18.5315 16.6908 18.5922C16.7901 18.6529 16.9081 18.6754 17.0228 18.6557Z" fill="#8400D1"/>
</g>
</g>
<g style="mix-blend-mode:multiply">
<path d="M25.0851 6.10621L23.7122 11.2377C23.6956 11.2989 23.6911 11.3627 23.6991 11.4257L24.3928 16.6343C24.408 16.7459 24.4617 16.8487 24.5447 16.9248C24.6277 17.0009 24.7347 17.0456 24.8471 17.0512C24.9596 17.0567 25.0704 17.0227 25.1605 16.9551C25.2505 16.8875 25.3141 16.7905 25.3401 16.681L26.541 11.5612C26.5539 11.5093 26.5574 11.4555 26.5512 11.4023L26.0295 6.18345C26.0192 6.07071 25.9694 5.96523 25.889 5.88557C25.8085 5.8059 25.7026 5.75717 25.5898 5.74794C25.4769 5.73871 25.3645 5.76958 25.2721 5.83511C25.1798 5.90065 25.1136 5.99665 25.0851 6.10621Z" fill="#8400D1"/>
<path d="M23.9935 22.7816L22.6207 27.9131C22.6032 27.9741 22.5988 28.0382 22.6075 28.1011L23.3013 33.3141C23.3164 33.4257 23.3701 33.5285 23.4531 33.6046C23.5361 33.6807 23.6431 33.7254 23.7555 33.731C23.868 33.7365 23.9789 33.7025 24.0689 33.6349C24.1589 33.5673 24.2225 33.4703 24.2486 33.3608L25.4494 28.241C25.4616 28.1889 25.465 28.1353 25.4596 28.0821L24.9379 22.8632C24.9283 22.7502 24.8792 22.6443 24.7991 22.564C24.7189 22.4838 24.6131 22.4344 24.5001 22.4246C24.3871 22.4149 24.2743 22.4453 24.1816 22.5107C24.0889 22.576 24.0223 22.6719 23.9935 22.7816Z" fill="#8400D1"/>
<path d="M10.9587 19.2212L16.0901 20.5941C16.1514 20.6103 16.2153 20.6143 16.2781 20.6057L21.4868 19.9062C21.5984 19.891 21.7012 19.8373 21.7773 19.7543C21.8534 19.6713 21.8981 19.5644 21.9037 19.4519C21.9092 19.3394 21.8752 19.2286 21.8076 19.1385C21.74 19.0485 21.643 18.9849 21.5335 18.9589L16.4122 17.7638C16.3607 17.7517 16.3075 17.7482 16.2548 17.7536L11.0345 18.2754C10.9223 18.2868 10.8176 18.3373 10.7387 18.4179C10.6598 18.4985 10.6117 18.6043 10.6027 18.7167C10.5937 18.8292 10.6244 18.9412 10.6894 19.0334C10.7545 19.1255 10.8497 19.192 10.9587 19.2212Z" fill="#8400D1"/>
<path d="M27.6341 20.3128L32.7655 21.6857C32.8268 21.7019 32.8907 21.7059 32.9535 21.6973L38.1622 21.0036C38.2742 20.9893 38.3777 20.936 38.4544 20.8531C38.5311 20.7703 38.5761 20.663 38.5817 20.5502C38.5873 20.4374 38.5529 20.3262 38.4848 20.2362C38.4166 20.1462 38.3189 20.083 38.2088 20.0578L33.0847 18.8554C33.0326 18.8433 32.979 18.8399 32.9258 18.8452L27.7055 19.3684C27.5931 19.3797 27.4882 19.4302 27.4093 19.5111C27.3304 19.592 27.2825 19.698 27.274 19.8107C27.2655 19.9233 27.2969 20.0354 27.3627 20.1272C27.4286 20.219 27.5246 20.2847 27.6341 20.3128Z" fill="#8400D1"/>
<path d="M15.3046 9.738L17.9614 14.3375C17.9934 14.3933 18.0354 14.4427 18.0853 14.4832L22.2592 17.6749C22.3485 17.7443 22.4593 17.78 22.5723 17.7758C22.6853 17.7715 22.7931 17.7277 22.877 17.6518C22.9608 17.576 23.0152 17.473 23.0307 17.3611C23.0462 17.2491 23.0218 17.1352 22.9617 17.0395L20.1927 12.5682C20.1645 12.5233 20.129 12.4834 20.0877 12.4502L16.0333 9.12152C15.9471 9.04207 15.8348 8.99686 15.7176 8.99437C15.6004 8.99189 15.4863 9.03231 15.3968 9.10803C15.3072 9.18376 15.2485 9.28957 15.2315 9.40558C15.2145 9.52159 15.2405 9.63981 15.3046 9.738Z" fill="#8400D1"/>
<path d="M26.3253 22.3006L28.9821 26.9016C29.0133 26.9583 29.056 27.008 29.1075 27.0473L33.28 30.2404C33.3696 30.3084 33.4802 30.3429 33.5925 30.3379C33.7049 30.333 33.812 30.2889 33.8953 30.2134C33.9787 30.1378 34.033 30.0355 34.0489 29.9242C34.0648 29.8128 34.0413 29.6994 33.9824 29.6036L31.2134 25.1338C31.1857 25.0881 31.1502 25.0477 31.1085 25.0143L27.0482 21.6929C26.9614 21.6226 26.8528 21.5847 26.7411 21.5857C26.6294 21.5867 26.5215 21.6266 26.436 21.6985C26.3505 21.7704 26.2927 21.8698 26.2725 21.9797C26.2523 22.0895 26.271 22.203 26.3253 22.3006Z" fill="#8400D1"/>
<path d="M14.5905 29.0003L19.1885 26.342C19.2445 26.3103 19.294 26.2683 19.3342 26.2181L22.5259 22.0442C22.5939 21.9545 22.6283 21.844 22.6234 21.7316C22.6185 21.6192 22.5744 21.5121 22.4988 21.4288C22.4233 21.3454 22.321 21.2911 22.2097 21.2752C22.0983 21.2593 21.9849 21.2828 21.889 21.3417L17.4192 24.1107C17.3747 24.1394 17.3348 24.1748 17.3012 24.2157L13.9784 28.2759C13.9072 28.3631 13.8688 28.4725 13.8698 28.585C13.8708 28.6976 13.9111 28.8062 13.9838 28.8922C14.0564 28.9781 14.1568 29.036 14.2676 29.0557C14.3784 29.0755 14.4926 29.0558 14.5905 29.0003Z" fill="#8400D1"/>
<path d="M27.1531 17.9795L31.7526 15.3227C31.809 15.2915 31.8585 15.2494 31.8984 15.1988L35.0915 11.0249C35.1594 10.9352 35.1939 10.8247 35.189 10.7123C35.184 10.5999 35.14 10.4928 35.0644 10.4095C34.9889 10.3261 34.8866 10.2718 34.7752 10.2559C34.6639 10.24 34.5505 10.2636 34.4546 10.3224L29.9848 13.0914C29.9395 13.1196 29.8991 13.155 29.8653 13.1964L26.5439 17.2566C26.473 17.3435 26.4347 17.4524 26.4355 17.5646C26.4364 17.6767 26.4764 17.785 26.5487 17.8708C26.621 17.9565 26.7209 18.0143 26.8313 18.0342C26.9417 18.054 27.0555 18.0347 27.1531 17.9795Z" fill="#8400D1"/>
<g style="mix-blend-mode:multiply">
<path d="M30.2544 7.33042L27.0234 11.5452C26.9844 11.5954 26.9557 11.6529 26.9389 11.7142L25.5879 16.7918C25.5585 16.9006 25.5683 17.0163 25.6155 17.1186C25.6628 17.221 25.7445 17.3035 25.8463 17.3518C25.9482 17.4 26.0638 17.4109 26.173 17.3826C26.2821 17.3543 26.3778 17.2886 26.4434 17.1969L29.5141 12.9268C29.5448 12.8821 29.5684 12.833 29.584 12.781L31.0983 7.75889C31.1305 7.65096 31.1238 7.53514 31.0794 7.43163C31.0349 7.32812 30.9556 7.24349 30.8552 7.1925C30.7547 7.1415 30.6396 7.12737 30.5298 7.15258C30.42 7.17778 30.3226 7.24072 30.2544 7.33042Z" fill="#8400D1"/>
<path d="M22.864 22.3182L19.633 26.5329C19.5942 26.5831 19.5659 26.6406 19.55 26.702L18.1975 31.7795C18.1681 31.8883 18.1779 32.004 18.2251 32.1064C18.2724 32.2088 18.3541 32.2913 18.456 32.3395C18.5579 32.3878 18.6734 32.3987 18.7826 32.3704C18.8917 32.3421 18.9874 32.2763 19.053 32.1847L22.1237 27.9218C22.1549 27.8774 22.1785 27.8282 22.1937 27.7761L23.7079 22.7525C23.7406 22.6444 23.7344 22.5284 23.6904 22.4244C23.6464 22.3205 23.5673 22.2353 23.467 22.1836C23.3666 22.1319 23.2513 22.1171 23.1411 22.1417C23.031 22.1663 22.9329 22.2287 22.864 22.3182Z" fill="#8400D1"/>
<path d="M12.1858 14.0402L16.4006 17.2712C16.4507 17.31 16.5082 17.3383 16.5696 17.3543L21.6471 18.7067C21.756 18.7361 21.8717 18.7263 21.974 18.6791C22.0764 18.6319 22.1589 18.5502 22.2072 18.4483C22.2554 18.3464 22.2663 18.2308 22.238 18.1217C22.2097 18.0125 22.144 17.9168 22.0523 17.8513L17.7822 14.7805C17.7374 14.75 17.6883 14.7264 17.6364 14.7106L12.6172 13.2022C12.5105 13.1722 12.3966 13.1799 12.2949 13.2242C12.1933 13.2684 12.11 13.3464 12.0593 13.445C12.0085 13.5436 11.9934 13.6567 12.0164 13.7652C12.0395 13.8736 12.0993 13.9708 12.1858 14.0402Z" fill="#8400D1"/>
<path d="M27.1735 21.4291L31.3898 24.6616C31.4396 24.701 31.4972 24.7293 31.5588 24.7447L36.6363 26.0971C36.7452 26.1265 36.8609 26.1167 36.9632 26.0695C37.0656 26.0222 37.1481 25.9405 37.1964 25.8387C37.2446 25.7368 37.2555 25.6212 37.2272 25.5121C37.1989 25.4029 37.1332 25.3072 37.0415 25.2416L32.7699 22.1709C32.7255 22.1397 32.6763 22.1161 32.6242 22.101L27.602 20.5867C27.4945 20.5554 27.3793 20.5626 27.2765 20.6071C27.1737 20.6516 27.0897 20.7306 27.0389 20.8305C26.9881 20.9303 26.9737 21.0448 26.9983 21.1541C27.0229 21.2634 27.0849 21.3606 27.1735 21.4291Z" fill="#8400D1"/>
<path d="M19.8298 6.94275L20.5249 12.2083C20.5336 12.2714 20.5544 12.3323 20.5862 12.3875L23.2211 16.9331C23.2771 17.0314 23.3659 17.1068 23.472 17.146C23.578 17.1853 23.6945 17.1859 23.801 17.1478C23.9075 17.1097 23.9971 17.0353 24.0542 16.9377C24.1113 16.84 24.1321 16.7254 24.113 16.6139L23.2634 11.4242C23.2547 11.3731 23.2375 11.3238 23.2124 11.2785L20.7348 6.65564C20.682 6.55562 20.5958 6.47732 20.4911 6.43442C20.3865 6.39153 20.2701 6.38676 20.1623 6.42096C20.0545 6.45516 19.9621 6.52614 19.9014 6.62152C19.8406 6.71689 19.8152 6.83059 19.8298 6.94275Z" fill="#8400D1"/>
<path d="M25.2032 22.7671L25.8983 28.0326C25.9068 28.0953 25.9276 28.1558 25.9595 28.2104L28.593 32.7574C28.649 32.8554 28.7377 32.9305 28.8436 32.9697C28.9494 33.0089 29.0656 33.0096 29.1719 32.9718C29.2782 32.9339 29.3678 32.8599 29.4251 32.7626C29.4823 32.6653 29.5035 32.551 29.4849 32.4397L28.6368 27.25C28.6275 27.199 28.6103 27.1498 28.5857 27.1042L26.1082 22.4814C26.0554 22.3816 25.9693 22.3035 25.8648 22.2607C25.7604 22.2179 25.6443 22.213 25.5366 22.247C25.429 22.281 25.3366 22.3516 25.2757 22.4466C25.2148 22.5417 25.1891 22.6551 25.2032 22.7671Z" fill="#8400D1"/>
<path d="M11.7981 24.4634L17.0637 23.7682C17.1269 23.7608 17.1879 23.7404 17.2429 23.7085L21.7885 21.0721C21.8868 21.0161 21.9621 20.9273 22.0014 20.8212C22.0407 20.7152 22.0413 20.5987 22.0032 20.4922C21.9651 20.3857 21.8907 20.2961 21.7931 20.239C21.6954 20.1819 21.5808 20.1611 21.4693 20.1802L16.2796 21.0298C16.2285 21.0384 16.1792 21.0557 16.1338 21.0808L11.511 23.5584C11.4091 23.6099 11.3288 23.696 11.2845 23.8013C11.2403 23.9066 11.235 24.0242 11.2695 24.1331C11.304 24.2419 11.3762 24.3349 11.473 24.3955C11.5699 24.456 11.6851 24.4801 11.7981 24.4634Z" fill="#8400D1"/>
<path d="M27.6224 19.0915L32.8879 18.3963C32.9511 18.3876 33.0119 18.3669 33.0672 18.3351L37.6128 15.7016C37.711 15.6456 37.7864 15.5568 37.8257 15.4507C37.865 15.3447 37.8656 15.2282 37.8275 15.1217C37.7894 15.0152 37.715 14.9256 37.6173 14.8685C37.5197 14.8114 37.4051 14.7906 37.2936 14.8097L32.1039 15.6579C32.0529 15.6671 32.0037 15.6843 31.9581 15.7089L27.3353 18.1864C27.2353 18.2392 27.157 18.3255 27.1141 18.4301C27.0712 18.5348 27.0664 18.6511 27.1006 18.7589C27.1348 18.8667 27.2058 18.9591 27.3012 19.0199C27.3965 19.0807 27.5102 19.106 27.6224 19.0915Z" fill="#8400D1"/>
</g>
</g>
<g style="mix-blend-mode:multiply">
<path d="M5.2224 24.3264L10.3495 25.6993C10.4108 25.7155 10.4747 25.7195 10.5375 25.7109L15.7462 25.0172C15.8582 25.0029 15.9616 24.9497 16.0383 24.8668C16.115 24.7839 16.1601 24.6766 16.1657 24.5638C16.1712 24.451 16.1369 24.3399 16.0687 24.2498C16.0006 24.1598 15.9029 24.0966 15.7928 24.0714L10.673 22.869C10.6215 22.8569 10.5683 22.8535 10.5156 22.8588L5.29527 23.382C5.18278 23.3931 5.07777 23.4434 4.99868 23.5242C4.9196 23.6049 4.87148 23.711 4.86278 23.8237C4.85409 23.9364 4.88537 24.0485 4.95113 24.1405C5.01689 24.2324 5.11293 24.2982 5.2224 24.3264Z" fill="#8400D1"/>
<path d="M21.8978 25.418L27.0293 26.7908C27.0905 26.8071 27.1544 26.811 27.2173 26.8025L32.4259 26.1088C32.538 26.0945 32.6414 26.0412 32.7181 25.9583C32.7948 25.8754 32.8399 25.7682 32.8454 25.6554C32.851 25.5426 32.8167 25.4314 32.7485 25.3414C32.6803 25.2514 32.5827 25.1882 32.4726 25.1629L27.3528 23.9606C27.3013 23.9485 27.2481 23.945 27.1954 23.9504L21.975 24.4736C21.8623 24.4839 21.7568 24.5337 21.6772 24.6141C21.5975 24.6945 21.5488 24.8005 21.5395 24.9133C21.5303 25.0262 21.5612 25.1386 21.6267 25.2309C21.6922 25.3232 21.7882 25.3895 21.8978 25.418Z" fill="#8400D1"/>
<path d="M18.3374 38.4528L19.7103 33.3214C19.7265 33.2601 19.7305 33.1962 19.7219 33.1334L19.0282 27.9218C19.0139 27.8098 18.9607 27.7063 18.8778 27.6296C18.7949 27.5529 18.6876 27.5079 18.5748 27.5023C18.462 27.4967 18.3509 27.531 18.2608 27.5992C18.1708 27.6674 18.1076 27.7651 18.0824 27.8752L16.88 32.9949C16.8679 33.0465 16.8645 33.0997 16.8698 33.1523L17.393 38.3727C17.4028 38.4856 17.4522 38.5914 17.5324 38.6715C17.6126 38.7515 17.7186 38.8007 17.8315 38.8103C17.9444 38.8198 18.0571 38.7892 18.1496 38.7238C18.2422 38.6585 18.3087 38.5625 18.3374 38.4528Z" fill="#8400D1"/>
<path d="M19.429 21.776L20.8019 16.6445C20.8181 16.5833 20.8221 16.5194 20.8135 16.4565L20.114 11.2493C20.0997 11.1373 20.0464 11.0339 19.9635 10.9572C19.8806 10.8805 19.7734 10.8354 19.6606 10.8298C19.5478 10.8242 19.4366 10.8586 19.3466 10.9267C19.2565 10.9949 19.1934 11.0926 19.1681 11.2027L17.9658 16.3225C17.9544 16.3741 17.9509 16.4272 17.9556 16.4799L18.4788 21.7002C18.4851 21.8164 18.5334 21.9264 18.6147 22.0098C18.696 22.0931 18.8047 22.1441 18.9208 22.1534C19.0368 22.1626 19.1523 22.1295 19.2457 22.0601C19.3392 21.9907 19.4043 21.8898 19.429 21.776Z" fill="#8400D1"/>
<path d="M8.85422 34.1055L13.4537 31.4472C13.5101 31.4161 13.5596 31.3739 13.5995 31.3233L16.7926 27.1494C16.8605 27.0597 16.895 26.9492 16.8901 26.8368C16.8851 26.7244 16.8411 26.6173 16.7655 26.534C16.69 26.4507 16.5877 26.3964 16.4763 26.3805C16.365 26.3646 16.2516 26.3881 16.1557 26.4469L11.6859 29.216C11.6406 29.2436 11.6002 29.2785 11.5664 29.3194L8.24066 33.3826C8.16986 33.47 8.13181 33.5794 8.13309 33.6918C8.13437 33.8043 8.1749 33.9127 8.24768 33.9985C8.32045 34.0842 8.4209 34.1418 8.53165 34.1614C8.6424 34.1809 8.7565 34.1611 8.85422 34.1055Z" fill="#8400D1"/>
<path d="M21.4256 23.0862L26.0237 20.4279C26.0797 20.3963 26.1291 20.3542 26.1694 20.304L29.3611 16.1301C29.429 16.0405 29.4635 15.9299 29.4585 15.8175C29.4536 15.7051 29.4095 15.598 29.334 15.5147C29.2584 15.4314 29.1561 15.3771 29.0448 15.3612C28.9334 15.3453 28.82 15.3688 28.7242 15.4276L24.2544 18.1967C24.2098 18.2253 24.17 18.2607 24.1363 18.3016L20.8135 22.3619C20.7424 22.4491 20.704 22.5584 20.705 22.671C20.706 22.7835 20.7463 22.8922 20.8189 22.9781C20.8915 23.0641 20.992 23.1219 21.1027 23.1417C21.2135 23.1614 21.3278 23.1418 21.4256 23.0862Z" fill="#8400D1"/>
<path d="M28.1165 34.821L25.4582 30.2215C25.4275 30.1648 25.3853 30.1152 25.3343 30.0758L21.1604 26.887C21.0707 26.8191 20.9602 26.7846 20.8478 26.7895C20.7354 26.7945 20.6283 26.8385 20.545 26.9141C20.4616 26.9896 20.4073 27.0919 20.3914 27.2033C20.3755 27.3146 20.3991 27.428 20.4579 27.5239L23.2269 31.9937C23.2546 32.039 23.2895 32.0794 23.3304 32.1132L27.4009 35.4346C27.4887 35.5009 27.5966 35.5353 27.7066 35.5319C27.8166 35.5285 27.9222 35.4876 28.0057 35.4159C28.0893 35.3443 28.1458 35.2462 28.166 35.138C28.1861 35.0298 28.1687 34.9179 28.1165 34.821Z" fill="#8400D1"/>
<path d="M17.0972 22.2569L14.4389 17.6574C14.4069 17.6016 14.3649 17.5522 14.315 17.5117L10.1411 14.3244C10.0518 14.255 9.94096 14.2193 9.828 14.2235C9.71503 14.2278 9.60716 14.2716 9.52333 14.3475C9.43949 14.4233 9.38505 14.5263 9.36956 14.6382C9.35407 14.7502 9.37851 14.8641 9.43861 14.9598L12.2076 19.4311C12.2363 19.4756 12.2717 19.5155 12.3126 19.5491L16.3728 22.8705C16.4601 22.9423 16.5698 22.9811 16.6828 22.9803C16.7958 22.9795 16.9049 22.939 16.9911 22.866C17.0773 22.793 17.1351 22.692 17.1545 22.5807C17.1739 22.4694 17.1536 22.3548 17.0972 22.2569Z" fill="#8400D1"/>
<g style="mix-blend-mode:multiply">
<path d="M6.44661 19.1556L10.6614 22.3837C10.7119 22.4219 10.7693 22.4502 10.8304 22.4668L15.9079 23.8192C16.0167 23.8475 16.1319 23.8369 16.2336 23.7893C16.3354 23.7417 16.4174 23.6601 16.4654 23.5585C16.5134 23.457 16.5245 23.3418 16.4967 23.233C16.4689 23.1241 16.4039 23.0284 16.3131 22.9623L12.043 19.893C11.9986 19.8619 11.9493 19.8382 11.8972 19.8231L6.87363 18.3074C6.76467 18.2729 6.64698 18.2783 6.54167 18.3227C6.43635 18.3671 6.35029 18.4476 6.29889 18.5496C6.2475 18.6517 6.23414 18.7688 6.26121 18.8798C6.28828 18.9909 6.35401 19.0886 6.44661 19.1556Z" fill="#8400D1"/>
<path d="M21.4343 26.546L25.652 29.7785C25.7024 29.8171 25.7598 29.8453 25.8211 29.8616L30.8986 31.214C31.0073 31.2423 31.1225 31.2317 31.2243 31.1841C31.326 31.1365 31.408 31.0549 31.456 30.9533C31.504 30.8518 31.5151 30.7366 31.4873 30.6278C31.4595 30.5189 31.3946 30.4232 31.3037 30.3571L27.0322 27.2879C26.9881 27.2561 26.9388 27.2324 26.8864 27.2179L21.8628 25.7022C21.7553 25.672 21.6407 25.68 21.5384 25.7248C21.4362 25.7697 21.3526 25.8486 21.3021 25.9482C21.2515 26.0478 21.2371 26.1618 21.2612 26.2708C21.2853 26.3798 21.3465 26.4771 21.4343 26.546Z" fill="#8400D1"/>
<path d="M13.1564 37.2257L16.3889 33.0095C16.4268 32.9588 16.455 32.9015 16.4719 32.8405L17.8244 27.763C17.8526 27.6542 17.8421 27.539 17.7945 27.4373C17.7469 27.3355 17.6653 27.2535 17.5637 27.2055C17.4621 27.1575 17.347 27.1464 17.2381 27.1742C17.1293 27.202 17.0336 27.267 16.9675 27.3578L13.8982 31.6279C13.8664 31.6722 13.8423 31.7214 13.8268 31.7737L12.3126 36.7929C12.2805 36.9008 12.2871 37.0165 12.3313 37.12C12.3756 37.2235 12.4546 37.3083 12.5548 37.3597C12.6549 37.4111 12.7699 37.4258 12.8798 37.4013C12.9896 37.3769 13.0875 37.3148 13.1564 37.2257Z" fill="#8400D1"/>
<path d="M20.5512 22.238L23.7837 18.0232C23.8213 17.9724 23.8495 17.9151 23.8667 17.8542L25.2148 12.7752C25.2442 12.6663 25.2344 12.5506 25.1872 12.4483C25.1399 12.3459 25.0582 12.2634 24.9563 12.2152C24.8545 12.1669 24.7389 12.156 24.6297 12.1843C24.5206 12.2126 24.4249 12.2783 24.3593 12.37L21.2901 16.6402C21.2581 16.6843 21.234 16.7336 21.2187 16.7859L19.703 21.8008C19.6628 21.9107 19.6642 22.0316 19.7068 22.1407C19.7494 22.2497 19.8303 22.3395 19.9344 22.3931C20.0385 22.4468 20.1586 22.4606 20.2721 22.4321C20.3857 22.4035 20.4849 22.3345 20.5512 22.238Z" fill="#8400D1"/>
<path d="M6.05896 29.5803L11.3245 28.8851C11.3876 28.8765 11.4485 28.8557 11.5037 28.8239L16.0493 26.1904C16.1476 26.1344 16.223 26.0456 16.2622 25.9396C16.3015 25.8335 16.3021 25.717 16.264 25.6105C16.2259 25.504 16.1515 25.4144 16.0539 25.3573C15.9563 25.3003 15.8416 25.2794 15.7302 25.2985L10.5404 26.1467C10.4895 26.156 10.4403 26.1732 10.3947 26.1977L5.77185 28.6753C5.67183 28.728 5.59353 28.8143 5.55063 28.9189C5.50774 29.0236 5.50297 29.14 5.53717 29.2478C5.57137 29.3556 5.64235 29.4479 5.73773 29.5087C5.8331 29.5695 5.9468 29.5948 6.05896 29.5803Z" fill="#8400D1"/>
<path d="M21.8832 24.2069L27.1487 23.5117C27.2119 23.5042 27.2729 23.4839 27.328 23.452L31.8736 20.817C31.9718 20.761 32.0472 20.6722 32.0865 20.5661C32.1258 20.4601 32.1264 20.3436 32.0883 20.2371C32.0502 20.1306 31.9758 20.041 31.8781 19.9839C31.7805 19.9269 31.6659 19.906 31.5544 19.9251L26.3647 20.7806C26.3135 20.7892 26.2643 20.8065 26.2189 20.8316L21.5961 23.3091C21.4993 23.3633 21.4243 23.4493 21.3836 23.5524C21.3429 23.6556 21.3392 23.7697 21.373 23.8753C21.4067 23.9809 21.476 24.0716 21.569 24.1321C21.6619 24.1925 21.773 24.2189 21.8832 24.2069Z" fill="#8400D1"/>
<path d="M23.5811 37.6134L22.883 32.3464C22.8746 32.2837 22.8538 32.2232 22.8218 32.1686L20.1868 27.6216C20.1308 27.5233 20.042 27.4479 19.936 27.4086C19.8299 27.3694 19.7134 27.3687 19.6069 27.4068C19.5004 27.4449 19.4108 27.5194 19.3537 27.617C19.2967 27.7146 19.2758 27.8293 19.2949 27.9407L20.1446 33.1305C20.1538 33.1814 20.171 33.2306 20.1956 33.2762L22.6731 37.899C22.7233 38.0031 22.8093 38.0856 22.9154 38.1315C23.0214 38.1773 23.1404 38.1835 23.2506 38.1488C23.3608 38.1142 23.4549 38.041 23.5156 37.9426C23.5762 37.8443 23.5995 37.7274 23.5811 37.6134Z" fill="#8400D1"/>
<path d="M18.2077 21.7891L17.5125 16.5221C17.5041 16.4594 17.4833 16.399 17.4513 16.3443L14.8178 11.7973C14.7618 11.699 14.673 11.6236 14.5669 11.5844C14.4609 11.5451 14.3444 11.5445 14.2379 11.5826C14.1314 11.6207 14.0418 11.6951 13.9847 11.7927C13.9277 11.8904 13.9068 12.005 13.9259 12.1165L14.7741 17.3062C14.7833 17.3571 14.8006 17.4063 14.8251 17.4519L17.3026 22.0748C17.3542 22.1764 17.4402 22.2565 17.5452 22.3006C17.6503 22.3448 17.7677 22.3502 17.8764 22.3159C17.9851 22.2816 18.078 22.2098 18.1387 22.1133C18.1994 22.0168 18.2238 21.9019 18.2077 21.7891Z" fill="#8400D1"/>
</g>
</g>
<g style="mix-blend-mode:multiply">
<path d="M5.65818 13.7269L10.7867 15.0968C10.848 15.113 10.9119 15.117 10.9747 15.1085L16.1834 14.4147C16.2954 14.4004 16.3989 14.3472 16.4756 14.2643C16.5523 14.1814 16.5973 14.0741 16.6029 13.9613C16.6085 13.8485 16.5742 13.7374 16.506 13.6473C16.4378 13.5573 16.3401 13.4941 16.23 13.4689L11.1132 12.2695C11.0615 12.2581 11.0084 12.2546 10.9558 12.2593L5.73542 12.7825C5.62268 12.7928 5.5172 12.8425 5.43754 12.923C5.35787 13.0034 5.30914 13.1094 5.29991 13.2222C5.29068 13.335 5.32155 13.4475 5.38709 13.5398C5.45262 13.6321 5.54862 13.6984 5.65818 13.7269Z" fill="#8400D1"/>
<path d="M22.335 14.8185L27.4665 16.1914C27.5278 16.2074 27.5915 16.2118 27.6545 16.2045L32.8632 15.5093C32.9751 15.4948 33.0784 15.4414 33.155 15.3584C33.2315 15.2753 33.2764 15.1681 33.2818 15.0553C33.2871 14.9425 33.2527 14.8314 33.1844 14.7415C33.1161 14.6516 33.0184 14.5886 32.9083 14.5635L27.7885 13.3626C27.7371 13.35 27.6839 13.346 27.6311 13.3509L22.4108 13.8741C22.2981 13.8847 22.1928 13.9346 22.1134 14.0152C22.0339 14.0957 21.9854 14.2017 21.9763 14.3145C21.9673 14.4273 21.9983 14.5396 22.0639 14.6318C22.1295 14.724 22.2255 14.7901 22.335 14.8185Z" fill="#8400D1"/>
<path d="M18.7732 27.8533L20.146 22.7219C20.1623 22.6606 20.1662 22.5967 20.1577 22.5339L19.464 17.3252C19.4497 17.2131 19.3964 17.1097 19.3135 17.033C19.2306 16.9563 19.1234 16.9112 19.0106 16.9057C18.8978 16.9001 18.7866 16.9344 18.6966 17.0026C18.6066 17.0708 18.5434 17.1685 18.5181 17.2785L17.3158 22.3983C17.3044 22.4505 17.3009 22.504 17.3056 22.5572L17.8288 27.7761C17.8391 27.8888 17.8889 27.9943 17.9693 28.074C18.0497 28.1536 18.1557 28.2024 18.2685 28.2116C18.3814 28.2208 18.4938 28.1899 18.5861 28.1244C18.6785 28.0589 18.7447 27.9629 18.7732 27.8533Z" fill="#8400D1"/>
<path d="M19.8647 11.1779L21.2376 6.04645C21.2538 5.98516 21.2578 5.92127 21.2493 5.85845L20.5512 0.649759C20.5369 0.53773 20.4836 0.434303 20.4007 0.357602C20.3178 0.280902 20.2106 0.235821 20.0978 0.230259C19.985 0.224697 19.8738 0.25901 19.7838 0.327183C19.6937 0.395357 19.6306 0.493043 19.6053 0.603123L18.403 5.72291C18.3916 5.77504 18.3881 5.8286 18.3928 5.88177L18.916 11.1007C18.9233 11.216 18.9718 11.3249 19.0528 11.4074C19.1338 11.4898 19.2417 11.5404 19.3569 11.5498C19.4721 11.5591 19.5869 11.5267 19.6801 11.4584C19.7734 11.3901 19.8389 11.2906 19.8647 11.1779Z" fill="#8400D1"/>
<path d="M9.28996 23.5059L13.8895 20.8491C13.9462 20.8179 13.9959 20.7752 14.0352 20.7237L17.224 16.5542C17.293 16.4648 17.3284 16.3539 17.3239 16.241C17.3194 16.1281 17.2753 16.0203 17.1994 15.9367C17.1234 15.8531 17.0204 15.7989 16.9084 15.7836C16.7965 15.7683 16.6827 15.7929 16.5871 15.8532L12.1173 18.6222C12.0716 18.6499 12.0312 18.6854 11.9978 18.7271L8.67641 22.7845C8.60449 22.8716 8.56553 22.9812 8.56636 23.0942C8.56719 23.2071 8.60775 23.3162 8.68093 23.4023C8.75411 23.4883 8.85525 23.5458 8.96661 23.5648C9.07797 23.5837 9.19244 23.5629 9.28996 23.5059Z" fill="#8400D1"/>
<path d="M21.8541 12.4866L26.4536 9.82835C26.51 9.79733 26.5596 9.75519 26.5993 9.70447L29.791 5.53052C29.8624 5.44097 29.8995 5.32888 29.8956 5.21442C29.8917 5.09996 29.8471 4.99064 29.7698 4.90614C29.6925 4.82164 29.5876 4.76749 29.4739 4.75345C29.3602 4.7394 29.2453 4.76638 29.1497 4.82952L24.6785 7.59855C24.6336 7.62619 24.5937 7.66117 24.5604 7.70203L21.2405 11.7652C21.1686 11.8523 21.1296 11.962 21.1305 12.0749C21.1313 12.1879 21.1719 12.2969 21.245 12.383C21.3182 12.469 21.4194 12.5266 21.5307 12.5455C21.6421 12.5645 21.7566 12.5436 21.8541 12.4866Z" fill="#8400D1"/>
<path d="M28.5522 24.2215L25.8939 19.622C25.8629 19.5655 25.8208 19.5159 25.7701 19.4762L21.5961 16.2846C21.5068 16.2162 21.3963 16.1813 21.2838 16.186C21.1714 16.1906 21.0642 16.2346 20.9808 16.3102C20.8975 16.3857 20.8432 16.4881 20.8276 16.5996C20.8119 16.711 20.8358 16.8244 20.8951 16.92L23.6641 21.3912C23.6918 21.4361 23.7268 21.476 23.7676 21.5093L27.8381 24.835C27.9257 24.9023 28.0338 24.9374 28.1442 24.9343C28.2546 24.9313 28.3606 24.8903 28.4444 24.8184C28.5282 24.7464 28.5846 24.6478 28.6043 24.5391C28.6239 24.4304 28.6055 24.3182 28.5522 24.2215Z" fill="#8400D1"/>
<path d="M17.5329 11.6589L14.8747 7.05935C14.8446 7.00223 14.8023 6.95246 14.7508 6.91362L10.5768 3.72923C10.4872 3.66129 10.3766 3.62681 10.2643 3.63175C10.1519 3.6367 10.0448 3.68075 9.96145 3.7563C9.87812 3.83185 9.82381 3.93415 9.80791 4.0455C9.79202 4.15685 9.81553 4.27026 9.87439 4.36611L12.6463 8.83008C12.674 8.87538 12.7089 8.91576 12.7498 8.94958L16.8101 12.271C16.8974 12.3411 17.0064 12.3787 17.1185 12.3773C17.2305 12.3759 17.3385 12.3355 17.424 12.2631C17.5095 12.1907 17.5671 12.0908 17.587 11.9805C17.6069 11.8703 17.5878 11.7566 17.5329 11.6589Z" fill="#8400D1"/>
<g style="mix-blend-mode:multiply">
<path d="M6.88238 8.55614L11.0971 11.7886C11.1473 11.8274 11.2048 11.8557 11.2662 11.8717L16.3437 13.2241C16.4524 13.2524 16.5676 13.2418 16.6694 13.1942C16.7712 13.1466 16.8531 13.065 16.9011 12.9634C16.9492 12.8619 16.9602 12.7467 16.9324 12.6379C16.9046 12.529 16.8397 12.4333 16.7489 12.3672L12.4787 9.29795C12.4343 9.26676 12.3851 9.24312 12.333 9.22799L7.31377 7.71377C7.20594 7.68116 7.09008 7.68743 6.98641 7.7315C6.88274 7.77557 6.79782 7.85463 6.74647 7.95489C6.69512 8.05516 6.6806 8.17027 6.70544 8.28015C6.73028 8.39003 6.7929 8.4877 6.88238 8.55614Z" fill="#8400D1"/>
<path d="M21.8701 15.9465L26.0892 19.1775C26.1392 19.2166 26.1968 19.2449 26.2583 19.2606L31.3358 20.6145C31.4445 20.6427 31.5597 20.6321 31.6615 20.5845C31.7632 20.537 31.8452 20.4553 31.8932 20.3538C31.9412 20.2522 31.9523 20.1371 31.9245 20.0282C31.8967 19.9194 31.8318 19.8236 31.741 19.7575L27.4708 16.6883C27.4262 16.6575 27.377 16.6339 27.3251 16.6183L22.3 15.1041C22.1923 15.0721 22.0768 15.0789 21.9736 15.1232C21.8704 15.1675 21.7859 15.2465 21.7348 15.3465C21.6838 15.4466 21.6693 15.5614 21.694 15.671C21.7187 15.7805 21.781 15.878 21.8701 15.9465Z" fill="#8400D1"/>
<path d="M13.5922 26.6262L16.8247 22.4114C16.8634 22.3596 16.8916 22.3007 16.9077 22.238L18.2602 17.1605C18.2884 17.0517 18.2779 16.9366 18.2303 16.8348C18.1827 16.733 18.1011 16.6511 17.9995 16.603C17.8979 16.555 17.7828 16.544 17.6739 16.5718C17.5651 16.5996 17.4694 16.6645 17.4033 16.7553L14.334 21.0255C14.3016 21.0692 14.2779 21.1186 14.2641 21.1712L12.7484 26.1948C12.7169 26.3025 12.724 26.4179 12.7685 26.521C12.8129 26.6241 12.8919 26.7084 12.9918 26.7595C13.0918 26.8106 13.2064 26.8253 13.316 26.8009C13.4256 26.7766 13.5233 26.7148 13.5922 26.6262Z" fill="#8400D1"/>
<path d="M20.9884 11.6385L24.2209 7.42225C24.2594 7.3719 24.2876 7.31446 24.304 7.25319L25.652 2.17567C25.6803 2.06694 25.6697 1.95175 25.6221 1.84999C25.5745 1.74823 25.4929 1.66626 25.3913 1.61825C25.2898 1.57023 25.1746 1.55916 25.0658 1.58696C24.9569 1.61476 24.8612 1.67968 24.7951 1.77052L21.7258 6.04065C21.6939 6.0846 21.6702 6.13398 21.6559 6.18639L20.1388 11.2056C20.1027 11.315 20.107 11.4338 20.1508 11.5403C20.1947 11.6468 20.2753 11.7342 20.3779 11.7865C20.4806 11.8388 20.5986 11.8526 20.7106 11.8254C20.8225 11.7983 20.9211 11.732 20.9884 11.6385Z" fill="#8400D1"/>
<path d="M6.49472 18.9808L11.7617 18.2856C11.8243 18.2774 11.8847 18.2572 11.9395 18.2259L16.4865 15.5909C16.583 15.5338 16.6566 15.445 16.6946 15.3395C16.7327 15.2341 16.7328 15.1187 16.6951 15.0132C16.6573 14.9077 16.584 14.8186 16.4877 14.7613C16.3914 14.7039 16.2781 14.6819 16.1674 14.699L10.9762 15.5486C10.9252 15.557 10.8759 15.5737 10.8304 15.5982L6.20907 18.0758C6.10741 18.1273 6.02736 18.2133 5.98319 18.3183C5.93903 18.4234 5.93361 18.5408 5.96792 18.6495C6.00223 18.7582 6.07402 18.8511 6.1705 18.9118C6.26699 18.9725 6.38189 18.9969 6.49472 18.9808Z" fill="#8400D1"/>
<path d="M22.319 13.6089L27.5845 12.9108C27.6477 12.9023 27.7086 12.8815 27.7638 12.8496L32.3108 10.2161C32.4083 10.1595 32.4829 10.0705 32.5216 9.96468C32.5603 9.85884 32.5608 9.74277 32.5228 9.63663C32.4849 9.53049 32.411 9.44098 32.314 9.38363C32.217 9.32629 32.1029 9.30473 31.9917 9.3227L26.8005 10.1724C26.7496 10.1818 26.7004 10.199 26.6547 10.2234L22.0334 12.7009C21.9293 12.7511 21.8468 12.8371 21.8009 12.9431C21.755 13.0492 21.7489 13.1682 21.7836 13.2784C21.8182 13.3886 21.8914 13.4827 21.9897 13.5434C22.0881 13.604 22.2049 13.6273 22.319 13.6089Z" fill="#8400D1"/>
<path d="M24.0168 27.0138L23.3202 21.7469C23.3115 21.6842 23.2907 21.6238 23.259 21.5691L20.6255 17.022C20.5695 16.9238 20.4807 16.8484 20.3746 16.8091C20.2686 16.7698 20.1521 16.7692 20.0456 16.8073C19.9391 16.8454 19.8495 16.9198 19.7924 17.0174C19.7353 17.1151 19.7145 17.2297 19.7336 17.3412L20.5832 22.5295C20.5927 22.5804 20.6099 22.6295 20.6342 22.6752L23.1118 27.2966C23.1634 27.3977 23.2491 27.4773 23.3537 27.5213C23.4584 27.5653 23.5752 27.5709 23.6836 27.5371C23.792 27.5032 23.8848 27.4321 23.9458 27.3363C24.0068 27.2406 24.032 27.1264 24.0168 27.0138Z" fill="#8400D1"/>
<path d="M18.6434 11.1896L17.9483 5.92403C17.9404 5.86092 17.9201 5.8 17.8885 5.74477L15.2536 1.19774C15.1965 1.10128 15.1076 1.02771 15.0022 0.989656C14.8968 0.951602 14.7814 0.951442 14.6759 0.989203C14.5704 1.02696 14.4813 1.10029 14.4239 1.19658C14.3666 1.29288 14.3446 1.40614 14.3617 1.5169L15.2113 6.7081C15.2195 6.75932 15.2368 6.80867 15.2623 6.85384L17.7399 11.4752C17.792 11.5758 17.878 11.6547 17.9826 11.6981C18.0872 11.7415 18.2038 11.7465 18.3118 11.7124C18.4198 11.6782 18.5123 11.6071 18.5729 11.5114C18.6336 11.4158 18.6586 11.3018 18.6434 11.1896Z" fill="#8400D1"/>
</g>
</g>
</svg>
