<svg width="520" height="520" viewBox="0 0 520 520" fill="none" xmlns="http://www.w3.org/2000/svg">
<path d="M490.448 265.985L427.894 251.379C427.258 251.231 426.603 251.189 425.954 251.254L399.57 253.887L394.09 249.973L425.492 245.828C426.263 245.722 427.006 245.468 427.68 245.08L483.172 212.931C484.371 212.248 485.291 211.164 485.771 209.869C486.25 208.574 486.258 207.152 485.793 205.852C485.328 204.552 484.419 203.458 483.227 202.761C482.035 202.065 480.636 201.81 479.275 202.043L415.92 212.398C415.298 212.511 414.698 212.721 414.141 213.02L373.221 234.957L370.801 233.178L372.58 230.794L402.416 213.572L425.172 210.53C426.538 210.352 427.799 209.7 428.734 208.687C429.668 207.674 430.216 206.364 430.282 204.987C430.347 203.61 429.927 202.254 429.093 201.157C428.26 200.059 427.067 199.289 425.723 198.983L420.243 197.702L452.268 155.785C453.097 154.691 453.518 153.341 453.458 151.969C453.397 150.598 452.86 149.29 451.937 148.273C451.015 147.255 449.766 146.592 448.407 146.398C447.048 146.204 445.663 146.491 444.493 147.21L389.927 181.014C389.373 181.357 388.88 181.79 388.468 182.295L383.024 188.949L378.078 187.703L384.394 178.932C384.769 178.387 385.057 177.787 385.248 177.153L389.642 162.564L418.535 145.84C419.725 145.149 420.635 144.063 421.108 142.771C421.581 141.479 421.586 140.062 421.124 138.766C420.661 137.47 419.759 136.378 418.574 135.678C417.39 134.978 415.997 134.714 414.639 134.934L397.025 137.887L403.644 115.915C404.089 114.587 404.044 113.144 403.519 111.846C402.993 110.548 402.021 109.481 400.778 108.837C399.535 108.193 398.102 108.014 396.739 108.333C395.375 108.652 394.171 109.448 393.343 110.577L368.933 142.513L351.141 145.413C350.52 145.529 349.92 145.739 349.362 146.036L346.854 147.388L346.267 141.57L346.96 141.179C347.65 140.8 348.255 140.285 348.74 139.666L387.703 88.7117C388.585 87.618 389.045 86.2444 389 84.8403C388.956 83.4362 388.409 82.0945 387.46 81.059C386.51 80.0235 385.221 79.3628 383.826 79.1967C382.431 79.0307 381.023 79.3703 379.857 80.1541L342.495 103.283L341.837 96.6111C341.711 95.2349 341.103 93.9471 340.121 92.9746C339.139 92.0021 337.846 91.4072 336.468 91.2945C335.091 91.1818 333.718 91.5587 332.591 92.3587C331.464 93.1588 330.656 94.3307 330.308 95.6682L325.433 113.851C324.885 114.188 324.398 114.615 323.992 115.114L299.795 144.666L297.589 140.556L319.633 111.805C320.103 111.19 320.448 110.489 320.647 109.741L337.157 47.7559C337.502 46.4285 337.373 45.0224 336.792 43.7801C336.211 42.5378 335.215 41.5372 333.975 40.951C332.735 40.3648 331.329 40.2297 330 40.5691C328.672 40.9085 327.503 41.701 326.696 42.8099L289.227 94.9387C288.837 95.4752 288.548 96.078 288.373 96.7179L283.214 113.798L279.905 107.642L283.267 95.0455C283.465 94.2973 283.514 93.5173 283.41 92.7504L274.887 29.1283C274.713 27.7607 274.063 26.498 273.051 25.5617C272.039 24.6254 270.73 24.075 269.353 24.0071C267.976 23.9392 266.619 24.3581 265.519 25.1904C264.42 26.0226 263.649 27.2151 263.341 28.559L248.663 91.0602C248.524 91.6966 248.482 92.3505 248.538 92.9995L251.421 121.644L247.453 126.803L243.059 93.5154C242.962 92.745 242.714 92.0013 242.329 91.3271L210.216 35.8179C209.519 34.6404 208.434 33.7422 207.147 33.2777C205.86 32.8131 204.452 32.8112 203.163 33.2721C201.875 33.7331 200.788 34.6282 200.088 35.8038C199.388 36.9794 199.119 38.362 199.327 39.7142L206.906 86.0786C205.543 85.9547 204.18 86.3249 203.066 87.1217C201.953 87.9185 201.162 89.089 200.84 90.4197L198.011 101.095L153.123 66.7215C152.029 65.8921 150.679 65.4712 149.307 65.5315C147.935 65.5919 146.628 66.1297 145.61 67.052C144.593 67.9743 143.93 69.2231 143.736 70.5825C143.542 71.9418 143.829 73.3263 144.548 74.4964L178.387 128.991C178.724 129.545 179.151 130.038 179.65 130.45L188.243 137.567L186.944 142.406L176.27 134.774C175.728 134.393 175.127 134.104 174.491 133.92L165.933 131.34L147.714 97.0737C147.072 95.8466 146.016 94.8862 144.734 94.3621C143.452 93.8381 142.026 93.7843 140.708 94.2101C139.39 94.636 138.265 95.5141 137.532 96.6893C136.799 97.8644 136.505 99.261 136.702 100.632L139.673 123.316L113.288 115.363C111.965 114.932 110.532 114.984 109.244 115.511C107.956 116.038 106.897 117.005 106.256 118.24C105.614 119.475 105.433 120.898 105.743 122.255C106.054 123.611 106.836 124.813 107.951 125.647L143.533 152.939L145.117 164.912C145.22 165.678 145.474 166.416 145.864 167.083L148.568 171.78L142.946 172.331L141.043 169.253C140.705 168.706 140.278 168.219 139.779 167.812L90.266 127.212C89.2025 126.334 87.864 125.859 86.4851 125.869C85.1062 125.879 83.7748 126.374 82.7243 127.268C81.6739 128.161 80.9714 129.396 80.7401 130.755C80.5088 132.114 80.7634 133.512 81.4592 134.703L105.353 176.103L94.0199 177.242C92.6437 177.368 91.356 177.975 90.3834 178.957C89.4109 179.939 88.816 181.233 88.7033 182.61C88.5907 183.987 88.9675 185.36 89.7676 186.487C90.5676 187.614 91.7395 188.423 93.077 188.771L119.764 195.887L146.789 216.65L142.857 218.749L111.687 196.314C111.145 195.933 110.544 195.645 109.908 195.46L48.6518 177.028C47.3289 176.597 45.8955 176.649 44.6075 177.176C43.3195 177.703 42.2605 178.67 41.6194 179.905C40.9783 181.14 40.7968 182.563 41.1072 183.92C41.4177 185.276 42.1999 186.478 43.3144 187.312L94.7672 226.773C95.3795 227.247 96.0816 227.592 96.831 227.787L116.402 233L110.157 236.345L94.9451 232.787C94.3113 232.629 93.6545 232.587 93.0058 232.662L29.3659 238.978C27.9897 239.104 26.702 239.711 25.7294 240.693C24.7569 241.675 24.162 242.969 24.0493 244.346C23.9367 245.724 24.3135 247.097 25.1136 248.223C25.9136 249.35 27.0855 250.159 28.423 250.507L91.0666 267.266C91.8136 267.47 92.5935 267.525 93.3617 267.426L115.103 264.526L119.978 268.263L93.415 272.604C92.7926 272.715 92.1919 272.925 91.6359 273.226L35.2015 303.472C33.9744 304.114 33.014 305.17 32.49 306.452C31.966 307.734 31.9121 309.16 32.338 310.478C32.7638 311.796 33.6419 312.921 34.8171 313.655C35.9923 314.388 37.3888 314.682 38.7598 314.485L85.1064 308.365C84.4079 309.111 83.9143 310.025 83.6735 311.018C83.4328 312.011 83.453 313.05 83.7324 314.033C84.0118 315.016 84.5407 315.91 85.2678 316.629C85.9949 317.347 86.8954 317.865 87.8819 318.132L98.2009 320.89L65.2334 361.08C64.2869 362.134 63.753 363.494 63.7303 364.91C63.7075 366.326 64.1973 367.703 65.1095 368.786C66.0217 369.869 67.2947 370.586 68.694 370.805C70.0932 371.024 71.5244 370.729 72.7236 369.976L128.873 337.542C129.554 337.152 130.158 336.64 130.652 336.03L134.656 330.782L140.171 332.258L134.335 339.784C133.861 340.396 133.516 341.099 133.321 341.848L130.652 351.882L94.4114 371.293C93.2065 371.95 92.2688 373.007 91.7603 374.281C91.2518 375.556 91.2044 376.968 91.6264 378.274C92.0483 379.58 92.913 380.697 94.0712 381.433C95.2293 382.169 96.6082 382.478 97.9696 382.306L123.394 378.943L116.757 403.851C116.42 405.177 116.554 406.579 117.138 407.816C117.721 409.053 118.717 410.049 119.954 410.632C121.192 411.215 122.594 411.349 123.919 411.011C125.245 410.673 126.412 409.884 127.219 408.779L151.308 375.26L162.25 373.819C163.021 373.716 163.765 373.462 164.438 373.072L171.911 368.749L172.64 374.086L166.609 377.822C166.056 378.159 165.563 378.586 165.15 379.085L124.603 428.723C123.689 429.784 123.182 431.135 123.173 432.535C123.165 433.935 123.656 435.292 124.557 436.363C125.459 437.434 126.713 438.149 128.094 438.379C129.475 438.609 130.893 438.34 132.094 437.619L177.568 411.27L179.081 422.514C179.194 423.43 179.522 424.305 180.038 425.07C180.554 425.834 181.243 426.466 182.05 426.913C182.856 427.361 183.757 427.611 184.679 427.645C185.601 427.678 186.517 427.493 187.354 427.104L174.313 470.355C173.896 471.677 173.96 473.104 174.492 474.384C175.024 475.663 175.99 476.715 177.221 477.352C178.451 477.99 179.867 478.173 181.22 477.869C182.572 477.566 183.774 476.795 184.614 475.693L224.075 424.222C224.539 423.603 224.883 422.903 225.089 422.158L232.188 395.863L235.462 401.52L230.124 424.098C229.976 424.727 229.934 425.376 230 426.019L236.387 489.748C236.513 491.124 237.12 492.412 238.102 493.384C239.084 494.357 240.378 494.952 241.755 495.065C243.132 495.177 244.505 494.8 245.632 494C246.759 493.2 247.568 492.028 247.916 490.691L264.675 428.047C264.873 427.299 264.922 426.519 264.817 425.752L262.238 406.413L265.992 401.2L270.013 425.734C270.126 426.356 270.336 426.957 270.635 427.514L300.881 483.948C301.523 485.175 302.579 486.136 303.861 486.66C305.143 487.184 306.569 487.237 307.887 486.812C309.205 486.386 310.33 485.508 311.063 484.332C311.797 483.157 312.091 481.761 311.894 480.39L303.354 416.074C303.251 415.308 302.997 414.57 302.606 413.903L282.129 378.552L284.726 374.993L305.951 409.242L308.46 427.887C308.645 429.249 309.301 430.504 310.314 431.433C311.327 432.362 312.633 432.908 314.006 432.976C315.378 433.043 316.732 432.629 317.831 431.803C318.93 430.978 319.706 429.794 320.024 428.457L321.216 423.386L358.507 453.774C359.567 454.688 360.918 455.195 362.319 455.204C363.719 455.212 365.076 454.721 366.147 453.82C367.218 452.918 367.933 451.664 368.163 450.283C368.393 448.902 368.123 447.484 367.403 446.284L334.951 390.134C334.577 389.442 334.062 388.836 333.439 388.355L330.041 385.899L331.375 380.26L337.193 384.725C337.808 385.196 338.509 385.54 339.257 385.739L355.073 389.956L373.114 421.091C373.815 422.25 374.895 423.131 376.171 423.585C377.447 424.039 378.842 424.038 380.117 423.581C381.392 423.125 382.471 422.241 383.169 421.08C383.867 419.92 384.143 418.553 383.949 417.212L380.604 396.788L401.206 402.25C402.534 402.595 403.94 402.465 405.182 401.884C406.425 401.303 407.425 400.307 408.011 399.067C408.598 397.827 408.733 396.422 408.393 395.093C408.054 393.764 407.261 392.595 406.152 391.788L376.298 370.332L373.612 353.839C373.499 353.217 373.289 352.617 372.989 352.06L370.071 346.616L375.658 345.869L377.829 349.641C378.209 350.333 378.731 350.939 379.359 351.42L430.295 390.401C431.39 391.23 432.74 391.651 434.111 391.591C435.483 391.53 436.791 390.993 437.808 390.07C438.825 389.148 439.488 387.899 439.682 386.54C439.876 385.18 439.589 383.796 438.871 382.626L413.038 340.941L419.87 340.033C421.237 339.859 422.5 339.209 423.436 338.197C424.373 337.185 424.923 335.875 424.991 334.498C425.059 333.121 424.64 331.764 423.808 330.665C422.975 329.566 421.783 328.795 420.439 328.487L400.281 323.754L370.961 299.789L374.822 297.547L407.149 322.331C407.759 322.808 408.462 323.153 409.213 323.345L471.198 339.855C472.527 340.214 473.939 340.095 475.189 339.518C476.438 338.941 477.445 337.944 478.034 336.7C478.623 335.456 478.757 334.045 478.411 332.713C478.066 331.381 477.263 330.212 476.144 329.412L423.997 291.925C423.455 291.545 422.854 291.256 422.218 291.071L398.378 283.955L403.946 280.734L423.891 286.072C424.639 286.27 425.419 286.318 426.186 286.214L489.772 277.745C490.544 277.79 491.318 277.682 492.048 277.427C492.778 277.173 493.452 276.777 494.029 276.262C494.606 275.748 495.077 275.124 495.413 274.428C495.75 273.732 495.946 272.976 495.99 272.203C496.035 271.431 495.927 270.658 495.672 269.928C495.418 269.197 495.022 268.524 494.507 267.947C493.992 267.369 493.369 266.899 492.673 266.562C491.976 266.226 491.22 266.03 490.448 265.985ZM170.825 337.418L172.32 332.454L177.408 331.778L176.127 336.564L170.825 337.418ZM181.233 171.371L186.251 172.705L186.856 177.366L182.034 176.228L181.233 171.371ZM214.503 112.659L229.466 140.52L220.57 133.279L215.695 124.846L214.503 112.659ZM270.119 162.119C270.495 162.886 271.028 163.564 271.684 164.11C272.34 164.656 273.105 165.057 273.927 165.286L274.194 167.225L271.044 169.165L270.119 162.119ZM348.544 180.444L347.174 185.604L342.441 186.084L343.616 181.103L348.544 180.444ZM351.391 258.477L351.568 258.228L358.08 260.007L351.391 258.477ZM288.605 195.353L294.387 205.317C293.325 205.332 292.289 205.646 291.398 206.224L290.241 206.42L285.722 199.125L288.605 195.353ZM311.644 292.797C310.979 292.224 310.195 291.805 309.349 291.569L309.065 289.381L316.039 285.36L319.793 288.42L311.644 292.797ZM319.971 243.355C319.653 243.572 319.35 243.81 319.064 244.066L314.616 240.668C314.911 240.19 315.144 239.676 315.31 239.138L316.324 235.295L323.778 241.006L319.971 243.355ZM203.046 224.389L203.757 228.766L196.463 233.285L192.691 230.403L203.046 224.389ZM229.608 311.709L233.647 318.701L230.569 322.455L225.071 312.243L229.608 311.709ZM329.596 311.709L333.261 311.229L333.724 314.68L329.596 311.709ZM336.339 217.735L339.061 216.152L338.474 218.376L336.339 217.735ZM243.29 196.385L239.554 200.976L239.305 200.869L236.067 199.908L241.191 192.791L243.29 196.385ZM216.692 184.536L215.891 184.341L213.436 180.106L217.581 181.209L216.692 184.536ZM190.005 205.886L186.998 206.366L186.464 203.164L190.005 205.886ZM193.563 275.824L198.135 279.578C198.135 279.667 198.135 279.738 198.135 279.827L197.157 283.065L190.04 277.941L193.563 275.824ZM202.459 329.91L203.722 328.255L206.8 327.846L207.28 331.404L202.797 332.152L202.459 329.91ZM278.268 317.456C278.743 317.753 279.258 317.981 279.798 318.132L283.641 319.164L278.001 326.476L275.635 322.687C275.433 322.358 275.194 322.053 274.923 321.779L278.268 317.456ZM347.975 274.632L347.69 274.152L356.746 272.942L356.159 273.28L347.975 274.632ZM358.649 218.891L357.653 220.119L353.17 222.752H352.849L356.176 218.126L358.649 218.891ZM310.292 166.994L313.584 162.688L313.904 165.055L310.292 166.994ZM272.023 150.839L269.852 157.956C269.769 158.247 269.71 158.545 269.675 158.845V158.49C269.592 157.707 269.345 156.95 268.949 156.27C268.554 155.589 268.019 154.999 267.379 154.54L270.849 141.588L272.023 150.839ZM217.581 161.514L221.851 165.072L221.318 167.118L216.994 164.023L217.581 161.514ZM167.552 204.409L170.221 208.999L166.164 209.676L163.264 204.979L167.552 204.409ZM154.991 246.095C154.817 246.285 154.657 246.487 154.511 246.699L153.016 246.344L154.991 246.095ZM156.913 258.958C157.693 258.867 158.447 258.616 159.126 258.221C159.806 257.826 160.397 257.296 160.862 256.663L164.118 257.534L161.396 260.861L155.632 259.082L156.913 258.958ZM141.701 284.951L135.189 292.904L117.736 303.721L105.744 304.931L141.06 284.471L141.701 284.951ZM157.268 301.07L160.613 296.693L166.182 298.17L162.944 302.404L157.268 301.07ZM209.326 347.079L209.468 348.253L204.932 353.786L204.54 349.836L209.326 347.079ZM194.648 405.933L197.513 393.71L216.514 368.891L218.631 372.556L194.648 405.933ZM256.295 362.059C256.211 361.277 255.962 360.521 255.567 359.841C255.172 359.16 254.638 358.57 254 358.109L256.011 350.601L260.761 354.16L257.096 368.073L256.295 362.059ZM300.151 361.917C300.151 361.917 300.151 362.023 300.151 362.077L296.291 355.85L296.895 353.804L301.414 357.362L300.151 361.917ZM333.19 347.684L332.674 342.524L337.584 343.841L338.296 349.178L333.19 347.684ZM360.518 272.39L360.126 272.301H360.482C361.263 272.213 362.018 271.964 362.698 271.569C363.378 271.174 363.968 270.642 364.432 270.006L368.559 271.109L360.518 272.39Z" fill="white"/>
<g style="mix-blend-mode:multiply">
<path d="M200.837 90.4186L184.149 153.062C183.95 153.81 183.902 154.59 184.006 155.357L192.475 218.944C192.649 220.311 193.3 221.574 194.312 222.51C195.323 223.447 196.633 223.997 198.01 224.065C199.387 224.133 200.744 223.714 201.843 222.882C202.942 222.049 203.713 220.857 204.022 219.513L218.699 157.012C218.838 156.375 218.88 155.722 218.824 155.073L212.437 91.3437C212.359 89.9247 211.77 88.582 210.778 87.5646C209.785 86.5473 208.458 85.9243 207.041 85.8113C205.625 85.6983 204.215 86.103 203.074 86.9502C201.933 87.7975 201.138 89.0298 200.837 90.4186Z" fill="#8400D1"/>
<path d="M187.508 293.99L170.749 356.722C170.551 357.47 170.502 358.25 170.607 359.017L179.075 422.55C179.25 423.918 179.9 425.181 180.912 426.117C181.924 427.053 183.233 427.604 184.61 427.672C185.987 427.739 187.344 427.321 188.443 426.488C189.542 425.656 190.314 424.464 190.622 423.12L205.3 360.618C205.439 359.982 205.481 359.328 205.424 358.679L199.037 294.968C198.917 293.59 198.315 292.298 197.335 291.321C196.356 290.344 195.063 289.744 193.685 289.627C192.306 289.51 190.931 289.883 189.801 290.681C188.671 291.48 187.859 292.651 187.508 293.99Z" fill="#8400D1"/>
<path d="M28.3841 250.506L91.0277 267.266C91.7748 267.469 92.5547 267.524 93.3228 267.426L156.909 258.957C158.271 258.772 159.526 258.116 160.455 257.103C161.384 256.09 161.93 254.784 161.998 253.411C162.065 252.038 161.651 250.685 160.825 249.586C160 248.487 158.816 247.711 157.479 247.393L94.9774 232.732C94.3436 232.575 93.6868 232.533 93.0381 232.608L29.3627 238.977C27.9844 239.097 26.6927 239.7 25.7154 240.679C24.7381 241.658 24.138 242.951 24.021 244.33C23.904 245.708 24.2776 247.084 25.0759 248.214C25.8741 249.344 27.0458 250.156 28.3841 250.506Z" fill="#8400D1"/>
<path d="M231.955 263.832L294.599 280.591C295.345 280.804 296.126 280.858 296.894 280.752L360.481 272.283C361.843 272.098 363.097 271.442 364.026 270.429C364.956 269.416 365.502 268.11 365.569 266.737C365.637 265.364 365.222 264.011 364.397 262.912C363.571 261.812 362.387 261.036 361.05 260.718L298.549 246.058C297.921 245.901 297.27 245.858 296.627 245.934L232.898 252.303C231.522 252.429 230.234 253.036 229.262 254.018C228.289 255 227.694 256.294 227.582 257.671C227.469 259.049 227.846 260.422 228.646 261.549C229.446 262.675 230.618 263.484 231.955 263.832Z" fill="#8400D1"/>
<path d="M81.4585 134.755L113.892 190.887C114.28 191.575 114.8 192.18 115.422 192.666L166.359 231.593C167.451 232.437 168.804 232.869 170.183 232.814C171.561 232.759 172.876 232.22 173.897 231.293C174.918 230.365 175.58 229.108 175.766 227.741C175.953 226.374 175.652 224.986 174.917 223.818L141.113 169.252C140.776 168.704 140.349 168.217 139.85 167.811L90.2652 127.211C89.2008 126.306 87.8487 125.811 86.4518 125.814C85.0549 125.816 83.7047 126.317 82.6438 127.226C81.5829 128.135 80.8808 129.392 80.6635 130.772C80.4462 132.152 80.7281 133.564 81.4585 134.755Z" fill="#8400D1"/>
<path d="M215.977 288.116L248.429 344.266C248.796 344.963 249.312 345.571 249.941 346.045L300.896 385.026C301.987 385.869 303.341 386.301 304.719 386.247C306.098 386.192 307.413 385.653 308.434 384.726C309.455 383.798 310.116 382.541 310.303 381.174C310.489 379.807 310.189 378.418 309.453 377.251L275.65 322.685C275.313 322.132 274.886 321.639 274.387 321.226L224.802 280.679C223.742 279.813 222.412 279.345 221.043 279.356C219.674 279.366 218.352 279.855 217.305 280.737C216.258 281.62 215.552 282.84 215.31 284.187C215.068 285.535 215.304 286.924 215.977 288.116Z" fill="#8400D1"/>
<path d="M72.7176 369.885L128.867 337.452C129.548 337.062 130.152 336.549 130.646 335.939L169.61 284.985C170.456 283.895 170.892 282.542 170.841 281.163C170.789 279.784 170.254 278.467 169.328 277.444C168.402 276.42 167.145 275.756 165.778 275.566C164.411 275.377 163.021 275.676 161.853 276.409L107.286 310.213C106.733 310.557 106.24 310.989 105.827 311.494L65.2274 361.079C64.3495 362.142 63.8739 363.481 63.8839 364.86C63.894 366.238 64.3892 367.57 65.2826 368.62C66.176 369.671 67.4106 370.373 68.7701 370.605C70.1295 370.836 71.527 370.581 72.7176 369.885Z" fill="#8400D1"/>
<path d="M226.085 235.366L282.235 202.933C282.928 202.552 283.534 202.031 284.014 201.403L322.924 150.466C323.753 149.372 324.174 148.022 324.114 146.65C324.054 145.278 323.516 143.971 322.593 142.953C321.671 141.936 320.422 141.273 319.063 141.079C317.704 140.885 316.319 141.172 315.149 141.89L260.654 175.712C260.096 176.05 259.603 176.484 259.195 176.993L218.648 226.56C217.794 227.621 217.336 228.947 217.352 230.31C217.368 231.673 217.857 232.987 218.737 234.029C219.616 235.07 220.83 235.773 222.171 236.017C223.511 236.261 224.895 236.031 226.085 235.366Z" fill="#8400D1"/>
<g style="mix-blend-mode:multiply">
<path d="M263.958 105.348L224.497 156.819C224.02 157.429 223.674 158.132 223.483 158.883L206.972 220.868C206.627 222.195 206.757 223.601 207.338 224.844C207.919 226.086 208.915 227.087 210.155 227.673C211.395 228.259 212.8 228.394 214.129 228.055C215.458 227.715 216.627 226.923 217.434 225.814L254.902 173.685C255.278 173.14 255.566 172.54 255.756 171.906L274.242 110.597C274.632 109.282 274.549 107.872 274.009 106.612C273.468 105.352 272.504 104.32 271.282 103.697C270.061 103.073 268.659 102.897 267.322 103.199C265.984 103.501 264.794 104.261 263.958 105.348Z" fill="#8400D1"/>
<path d="M173.738 288.333L134.33 339.786C133.856 340.398 133.511 341.1 133.316 341.85L116.806 403.835C116.491 405.148 116.637 406.53 117.219 407.748C117.802 408.966 118.785 409.948 120.005 410.527C121.224 411.107 122.606 411.25 123.919 410.932C125.231 410.614 126.394 409.855 127.214 408.781L164.682 356.723C165.06 356.179 165.348 355.579 165.536 354.944L184.022 293.617C184.428 292.299 184.357 290.88 183.822 289.609C183.287 288.338 182.321 287.296 181.094 286.666C179.868 286.036 178.458 285.857 177.113 286.162C175.768 286.467 174.573 287.236 173.738 288.333Z" fill="#8400D1"/>
<path d="M43.361 187.26L94.8138 226.721C95.4261 227.195 96.1282 227.54 96.8776 227.736L158.863 244.246C160.19 244.591 161.596 244.462 162.839 243.881C164.081 243.3 165.082 242.303 165.668 241.063C166.254 239.824 166.389 238.418 166.05 237.089C165.71 235.76 164.918 234.592 163.809 233.785L111.68 196.316C111.138 195.935 110.537 195.647 109.901 195.462L48.6451 177.03C47.3405 176.656 45.9465 176.745 44.7004 177.283C43.4543 177.821 42.4329 178.773 41.81 179.979C41.1872 181.185 41.0014 182.569 41.2841 183.897C41.5669 185.224 42.3008 186.413 43.361 187.26Z" fill="#8400D1"/>
<path d="M226.326 277.48L277.797 316.942C278.407 317.419 279.11 317.764 279.861 317.956L341.846 334.466C343.173 334.811 344.58 334.682 345.822 334.101C347.064 333.52 348.065 332.523 348.651 331.283C349.237 330.044 349.372 328.638 349.033 327.309C348.693 325.98 347.901 324.812 346.792 324.005L294.663 286.536C294.118 286.16 293.518 285.872 292.884 285.682L231.575 267.197C230.26 266.807 228.85 266.889 227.59 267.43C226.33 267.97 225.298 268.935 224.675 270.156C224.052 271.378 223.875 272.779 224.177 274.117C224.479 275.454 225.239 276.644 226.326 277.48Z" fill="#8400D1"/>
<path d="M136.695 100.615L145.182 164.913C145.285 165.679 145.539 166.416 145.929 167.083L178.078 222.593C178.762 223.792 179.846 224.712 181.141 225.192C182.435 225.671 183.858 225.679 185.157 225.214C186.457 224.749 187.552 223.84 188.248 222.648C188.945 221.456 189.199 220.057 188.966 218.696L178.612 155.341C178.499 154.719 178.289 154.119 177.989 153.562L147.744 97.1276C147.115 95.8865 146.065 94.9093 144.782 94.3701C143.5 93.8309 142.067 93.7648 140.74 94.1836C139.413 94.6024 138.278 95.4789 137.537 96.6567C136.796 97.8346 136.498 99.2373 136.695 100.615Z" fill="#8400D1"/>
<path d="M202.277 293.794L210.835 358.092C210.938 358.858 211.192 359.595 211.582 360.262L243.749 415.771C244.432 416.971 245.517 417.891 246.811 418.371C248.106 418.85 249.528 418.858 250.828 418.393C252.128 417.928 253.223 417.019 253.919 415.827C254.616 414.635 254.87 413.236 254.637 411.875L244.265 348.52C244.152 347.898 243.942 347.297 243.642 346.741L213.397 290.306C212.804 289.003 211.754 287.961 210.447 287.376C209.139 286.792 207.662 286.707 206.296 287.135C204.929 287.564 203.766 288.477 203.026 289.704C202.286 290.93 202.02 292.385 202.277 293.794Z" fill="#8400D1"/>
<path d="M38.6298 314.522L102.928 306.036C103.69 305.928 104.426 305.681 105.099 305.306L160.608 273.104C161.785 272.407 162.683 271.322 163.148 270.035C163.613 268.748 163.614 267.34 163.154 266.052C162.693 264.763 161.797 263.676 160.622 262.976C159.446 262.276 158.064 262.007 156.711 262.216L93.4096 272.606C92.7871 272.717 92.1865 272.927 91.6305 273.228L35.1961 303.474C33.9647 304.104 32.9954 305.149 32.459 306.424C31.9226 307.699 31.8535 309.122 32.264 310.443C32.6746 311.764 33.5383 312.897 34.7029 313.644C35.8675 314.39 37.2582 314.701 38.6298 314.522Z" fill="#8400D1"/>
<path d="M231.811 248.941L296.109 240.455C296.874 240.349 297.611 240.096 298.279 239.708L353.789 207.559C355.019 206.888 355.969 205.8 356.469 204.49C356.97 203.181 356.986 201.737 356.517 200.416C356.047 199.096 355.123 197.986 353.908 197.286C352.694 196.587 351.27 196.343 349.892 196.599L286.519 206.972C285.898 207.087 285.298 207.297 284.74 207.594L228.323 237.84C227.037 238.443 226.013 239.493 225.442 240.794C224.87 242.095 224.79 243.559 225.216 244.914C225.641 246.27 226.544 247.425 227.757 248.166C228.97 248.906 230.41 249.182 231.811 248.941Z" fill="#8400D1"/>
</g>
</g>
<g style="mix-blend-mode:multiply">
<path d="M330.234 95.7384L313.475 158.382C313.271 159.129 313.216 159.909 313.314 160.677L321.783 224.264C321.968 225.626 322.624 226.88 323.637 227.809C324.65 228.739 325.956 229.285 327.329 229.352C328.702 229.42 330.055 229.005 331.154 228.18C332.254 227.354 333.03 226.17 333.348 224.833L348.008 162.332C348.165 161.698 348.207 161.041 348.132 160.392L341.763 96.6814C341.637 95.3051 341.03 94.0174 340.048 93.0449C339.066 92.0724 337.772 91.4774 336.395 91.3648C335.017 91.2521 333.644 91.629 332.517 92.429C331.391 93.229 330.582 94.4009 330.234 95.7384Z" fill="#8400D1"/>
<path d="M316.906 299.308L300.146 361.952C299.934 362.698 299.879 363.479 299.986 364.247L308.455 427.887C308.64 429.249 309.296 430.503 310.309 431.433C311.322 432.362 312.628 432.908 314.001 432.976C315.374 433.043 316.727 432.628 317.826 431.803C318.925 430.978 319.701 429.794 320.019 428.456L334.679 365.955C334.827 365.32 334.869 364.665 334.804 364.016L328.435 300.305C328.318 298.925 327.718 297.632 326.74 296.652C325.762 295.672 324.469 295.07 323.09 294.951C321.711 294.831 320.334 295.203 319.202 296.001C318.071 296.798 317.257 297.97 316.906 299.308Z" fill="#8400D1"/>
<path d="M157.78 255.844L220.424 272.604C221.172 272.802 221.952 272.85 222.719 272.746L286.306 264.206C287.668 264.021 288.922 263.365 289.851 262.352C290.781 261.34 291.326 260.034 291.394 258.661C291.462 257.288 291.047 255.934 290.221 254.835C289.396 253.736 288.212 252.96 286.875 252.642L224.356 238.053C223.727 237.905 223.077 237.863 222.434 237.928L158.705 244.298C157.336 244.438 156.058 245.054 155.095 246.038C154.132 247.022 153.545 248.313 153.435 249.686C153.325 251.058 153.699 252.426 154.493 253.551C155.287 254.677 156.45 255.488 157.78 255.844Z" fill="#8400D1"/>
<path d="M361.349 269.169L423.992 285.929C424.741 286.127 425.521 286.175 426.287 286.071L489.874 277.602C491.242 277.428 492.504 276.778 493.441 275.766C494.377 274.754 494.927 273.445 494.995 272.068C495.063 270.691 494.644 269.334 493.812 268.234C492.98 267.135 491.787 266.364 490.443 266.056L427.889 251.378C427.253 251.23 426.598 251.188 425.949 251.253L362.221 257.64C360.848 257.778 359.568 258.395 358.605 259.382C357.642 260.369 357.057 261.664 356.953 263.04C356.849 264.415 357.233 265.783 358.036 266.904C358.84 268.025 360.013 268.827 361.349 269.169Z" fill="#8400D1"/>
<path d="M210.837 140.076L243.27 196.226C243.661 196.907 244.173 197.51 244.783 198.005L295.737 236.968C296.827 237.815 298.18 238.251 299.559 238.199C300.938 238.148 302.255 237.612 303.278 236.686C304.302 235.761 304.967 234.504 305.156 233.137C305.345 231.77 305.046 230.38 304.313 229.211L270.509 174.627C270.165 174.079 269.732 173.592 269.228 173.186L219.732 132.55C218.68 131.58 217.309 131.028 215.878 130.998C214.447 130.968 213.054 131.461 211.962 132.386C210.869 133.31 210.152 134.602 209.944 136.018C209.737 137.434 210.055 138.877 210.837 140.076Z" fill="#8400D1"/>
<path d="M345.375 293.436L377.809 349.604C378.19 350.297 378.711 350.903 379.339 351.383L430.275 390.364C431.37 391.193 432.72 391.614 434.091 391.554C435.463 391.494 436.771 390.956 437.788 390.034C438.805 389.111 439.468 387.862 439.662 386.503C439.856 385.144 439.569 383.759 438.851 382.589L405.047 328.023C404.709 327.465 404.275 326.972 403.766 326.564L354.199 286.017C353.14 285.159 351.814 284.696 350.45 284.709C349.087 284.722 347.77 285.208 346.726 286.086C345.682 286.964 344.976 288.177 344.73 289.518C344.483 290.86 344.711 292.245 345.375 293.436Z" fill="#8400D1"/>
<path d="M202.115 375.222L258.247 342.771C258.931 342.384 259.534 341.871 260.026 341.259L298.989 290.304C299.819 289.21 300.24 287.86 300.179 286.488C300.119 285.116 299.581 283.809 298.659 282.791C297.737 281.774 296.488 281.111 295.129 280.917C293.769 280.723 292.385 281.01 291.215 281.729L236.648 315.532C236.104 315.882 235.618 316.314 235.207 316.813L194.643 366.38C193.775 367.445 193.306 368.78 193.318 370.153C193.33 371.527 193.822 372.854 194.709 373.903C195.595 374.952 196.821 375.659 198.174 375.9C199.526 376.141 200.921 375.901 202.115 375.222Z" fill="#8400D1"/>
<path d="M355.48 240.687L411.63 208.253C412.318 207.873 412.923 207.358 413.409 206.741L452.39 155.786C453.219 154.692 453.64 153.342 453.58 151.97C453.519 150.598 452.982 149.291 452.059 148.273C451.137 147.256 449.888 146.593 448.529 146.399C447.169 146.205 445.785 146.492 444.615 147.21L390.049 181.014C389.495 181.358 389.002 181.791 388.59 182.295L348.043 231.862C347.177 232.922 346.709 234.252 346.72 235.621C346.73 236.99 347.219 238.312 348.101 239.359C348.983 240.406 350.204 241.111 351.551 241.354C352.898 241.596 354.288 241.36 355.48 240.687Z" fill="#8400D1"/>
<g style="mix-blend-mode:multiply">
<path d="M393.339 110.683L353.896 162.136C353.42 162.75 353.069 163.451 352.864 164.2L336.371 226.185C336.012 227.514 336.132 228.926 336.709 230.176C337.285 231.425 338.283 232.433 339.526 233.022C340.77 233.611 342.181 233.744 343.514 233.399C344.846 233.053 346.014 232.25 346.815 231.131L384.301 179.002C384.677 178.457 384.965 177.857 385.155 177.223L403.641 115.914C404.034 114.596 403.952 113.182 403.41 111.919C402.868 110.655 401.899 109.622 400.673 108.999C399.447 108.377 398.041 108.204 396.701 108.512C395.361 108.82 394.171 109.588 393.339 110.683Z" fill="#8400D1"/>
<path d="M303.122 293.651L263.679 345.103C263.205 345.716 262.86 346.418 262.665 347.167L246.154 409.152C245.795 410.481 245.915 411.893 246.492 413.143C247.068 414.393 248.066 415.4 249.309 415.989C250.553 416.578 251.964 416.711 253.297 416.366C254.629 416.02 255.797 415.218 256.598 414.098L294.084 362.058C294.465 361.517 294.753 360.915 294.938 360.279L313.423 298.952C313.823 297.634 313.748 296.216 313.211 294.948C312.673 293.679 311.708 292.638 310.483 292.008C309.258 291.377 307.85 291.196 306.505 291.496C305.16 291.797 303.963 292.559 303.122 293.651Z" fill="#8400D1"/>
<path d="M172.76 192.596L224.213 232.04C224.826 232.514 225.528 232.859 226.277 233.054L288.262 249.565C289.591 249.923 291.003 249.804 292.253 249.227C293.503 248.65 294.51 247.653 295.099 246.409C295.688 245.166 295.821 243.754 295.476 242.422C295.13 241.09 294.328 239.922 293.208 239.121L241.079 201.635C240.533 201.261 239.933 200.973 239.3 200.781L178.027 182.366C176.724 182 175.334 182.094 174.093 182.634C172.852 183.175 171.835 184.127 171.216 185.331C170.596 186.534 170.411 187.915 170.693 189.239C170.974 190.563 171.705 191.749 172.76 192.596Z" fill="#8400D1"/>
<path d="M355.731 282.798L407.201 322.259C407.81 322.74 408.513 323.086 409.265 323.273L471.251 339.784C472.579 340.143 473.992 340.023 475.241 339.446C476.491 338.87 477.498 337.872 478.087 336.629C478.676 335.385 478.81 333.974 478.464 332.641C478.118 331.309 477.316 330.141 476.197 329.34L424.05 291.854C423.508 291.473 422.907 291.184 422.271 291L360.962 272.514C359.649 272.132 358.243 272.22 356.988 272.763C355.733 273.306 354.707 274.271 354.087 275.49C353.467 276.709 353.292 278.106 353.592 279.44C353.892 280.774 354.649 281.962 355.731 282.798Z" fill="#8400D1"/>
<path d="M266.076 105.952L274.563 170.232C274.668 171.003 274.922 171.746 275.31 172.42L307.477 227.912C308.16 229.111 309.245 230.032 310.539 230.511C311.834 230.99 313.256 230.998 314.556 230.533C315.856 230.068 316.95 229.16 317.647 227.968C318.344 226.776 318.598 225.376 318.365 224.015L307.993 160.66C307.887 160.036 307.677 159.435 307.37 158.881L277.125 102.447C276.48 101.226 275.427 100.27 274.15 99.7462C272.872 99.2225 271.452 99.1644 270.136 99.5818C268.82 99.9993 267.692 100.866 266.95 102.03C266.208 103.195 265.899 104.582 266.076 105.952Z" fill="#8400D1"/>
<path d="M331.678 299.131L340.164 363.411C340.267 364.177 340.521 364.915 340.912 365.582L373.061 421.091C373.745 422.287 374.827 423.204 376.119 423.683C377.411 424.161 378.83 424.17 380.128 423.707C381.426 423.245 382.519 422.341 383.218 421.154C383.917 419.966 384.175 418.571 383.949 417.212L373.594 353.857C373.481 353.235 373.271 352.635 372.972 352.078L342.726 295.644C342.082 294.425 341.031 293.472 339.756 292.949C338.481 292.426 337.063 292.367 335.749 292.782C334.434 293.196 333.307 294.059 332.564 295.219C331.82 296.379 331.506 297.763 331.678 299.131Z" fill="#8400D1"/>
<path d="M168.03 319.84L232.31 311.353C233.081 311.262 233.826 311.014 234.498 310.624L289.99 278.439C291.189 277.756 292.11 276.671 292.589 275.377C293.068 274.082 293.076 272.66 292.611 271.36C292.146 270.06 291.237 268.966 290.046 268.269C288.854 267.572 287.454 267.318 286.093 267.551L222.738 277.923C222.114 278.029 221.512 278.239 220.959 278.546L164.525 308.791C163.28 309.42 162.3 310.471 161.76 311.757C161.22 313.042 161.155 314.478 161.576 315.807C161.998 317.136 162.879 318.271 164.061 319.01C165.243 319.749 166.65 320.043 168.03 319.84Z" fill="#8400D1"/>
<path d="M361.209 254.262L425.489 245.775C426.26 245.67 427.003 245.416 427.678 245.028L483.169 212.879C484.369 212.196 485.289 211.111 485.768 209.817C486.248 208.522 486.256 207.1 485.79 205.8C485.325 204.5 484.417 203.406 483.225 202.709C482.033 202.012 480.634 201.758 479.273 201.991L415.918 212.345C415.296 212.458 414.695 212.669 414.138 212.968L357.704 243.213C356.483 243.858 355.527 244.911 355.004 246.188C354.48 247.466 354.422 248.886 354.839 250.202C355.257 251.519 356.123 252.646 357.288 253.388C358.452 254.13 359.84 254.439 361.209 254.262Z" fill="#8400D1"/>
</g>
</g>
<g style="mix-blend-mode:multiply">
<path d="M87.7537 318.167L150.344 334.927C151.092 335.125 151.872 335.174 152.639 335.069L216.226 326.601C217.593 326.426 218.856 325.776 219.792 324.764C220.728 323.752 221.279 322.443 221.347 321.066C221.415 319.689 220.996 318.332 220.163 317.232C219.331 316.133 218.139 315.362 216.795 315.054L154.294 300.376C153.664 300.228 153.015 300.186 152.372 300.251L88.6433 306.639C87.27 306.773 85.9881 307.388 85.0226 308.374C84.0571 309.36 83.4698 310.654 83.3636 312.03C83.2574 313.406 83.6393 314.775 84.4421 315.897C85.2449 317.02 86.4174 317.823 87.7537 318.167Z" fill="#8400D1"/>
<path d="M291.325 331.493L353.969 348.252C354.717 348.45 355.497 348.499 356.264 348.394L419.851 339.926C421.218 339.751 422.481 339.101 423.417 338.089C424.353 337.077 424.904 335.768 424.972 334.391C425.04 333.014 424.621 331.657 423.788 330.558C422.956 329.458 421.764 328.687 420.42 328.379L357.919 313.701C357.289 313.553 356.64 313.511 355.997 313.577L292.268 319.964C290.892 320.09 289.604 320.697 288.632 321.679C287.659 322.661 287.064 323.954 286.952 325.332C286.839 326.709 287.216 328.082 288.016 329.209C288.816 330.336 289.988 331.145 291.325 331.493Z" fill="#8400D1"/>
<path d="M247.857 490.619L264.616 427.975C264.815 427.227 264.863 426.447 264.759 425.68L256.29 362.058C256.115 360.691 255.465 359.428 254.453 358.492C253.441 357.555 252.132 357.005 250.755 356.937C249.378 356.869 248.021 357.288 246.922 358.12C245.823 358.953 245.051 360.145 244.743 361.489L230.065 423.99C229.917 424.619 229.875 425.269 229.941 425.912L236.328 489.64C236.448 491.019 237.051 492.31 238.03 493.288C239.009 494.265 240.302 494.865 241.681 494.982C243.059 495.099 244.435 494.725 245.565 493.927C246.695 493.129 247.506 491.957 247.857 490.619Z" fill="#8400D1"/>
<path d="M261.185 287.033L277.945 224.39C278.143 223.641 278.192 222.861 278.087 222.094L269.547 158.526C269.373 157.158 268.722 155.896 267.71 154.959C266.699 154.023 265.389 153.472 264.012 153.405C262.635 153.337 261.278 153.756 260.179 154.588C259.08 155.42 258.309 156.613 258 157.956L243.323 220.458C243.183 221.088 243.141 221.736 243.198 222.379L249.585 286.108C249.663 287.527 250.252 288.87 251.244 289.887C252.237 290.904 253.564 291.527 254.981 291.64C256.397 291.753 257.807 291.349 258.948 290.501C260.089 289.654 260.884 288.422 261.185 287.033Z" fill="#8400D1"/>
<path d="M132.087 437.549L188.237 405.097C188.925 404.717 189.53 404.203 190.016 403.585L228.997 352.63C229.826 351.536 230.247 350.186 230.187 348.814C230.127 347.442 229.589 346.135 228.667 345.118C227.744 344.1 226.495 343.437 225.136 343.243C223.777 343.049 222.392 343.336 221.222 344.055L166.656 377.858C166.103 378.196 165.61 378.622 165.197 379.122L124.597 428.724C123.733 429.791 123.268 431.126 123.284 432.499C123.299 433.872 123.794 435.196 124.683 436.242C125.571 437.289 126.797 437.993 128.149 438.231C129.501 438.47 130.894 438.228 132.087 437.549Z" fill="#8400D1"/>
<path d="M285.561 303.028L341.693 270.576C342.376 270.189 342.98 269.676 343.472 269.064L382.435 218.109C383.264 217.015 383.685 215.665 383.625 214.293C383.565 212.921 383.027 211.614 382.105 210.597C381.182 209.579 379.933 208.916 378.574 208.722C377.215 208.528 375.83 208.815 374.66 209.534L320.094 243.337C319.55 243.687 319.064 244.119 318.653 244.618L278.088 294.185C277.22 295.25 276.751 296.585 276.763 297.959C276.775 299.332 277.267 300.659 278.154 301.708C279.041 302.758 280.267 303.464 281.619 303.705C282.972 303.946 284.366 303.706 285.561 303.028Z" fill="#8400D1"/>
<path d="M367.241 446.285L334.789 390.136C334.415 389.444 333.9 388.838 333.277 388.356L282.323 349.429C281.228 348.599 279.878 348.179 278.507 348.239C277.135 348.299 275.827 348.837 274.81 349.759C273.793 350.682 273.13 351.93 272.936 353.29C272.742 354.649 273.029 356.034 273.747 357.204L307.551 411.77C307.888 412.323 308.315 412.816 308.814 413.229L358.505 453.776C359.577 454.586 360.894 455.005 362.237 454.963C363.58 454.922 364.869 454.422 365.889 453.548C366.909 452.673 367.6 451.476 367.845 450.155C368.091 448.834 367.878 447.468 367.241 446.285Z" fill="#8400D1"/>
<path d="M232.721 292.905L200.27 236.756C199.879 236.074 199.367 235.471 198.757 234.976L147.803 196.067C146.713 195.22 145.36 194.784 143.981 194.835C142.602 194.887 141.285 195.423 140.261 196.348C139.238 197.274 138.573 198.531 138.384 199.898C138.195 201.265 138.494 202.655 139.227 203.824L173.031 258.408C173.38 258.952 173.812 259.438 174.312 259.849L223.879 300.395C224.944 301.272 226.283 301.746 227.662 301.736C229.042 301.726 230.374 301.232 231.426 300.341C232.479 299.449 233.185 298.217 233.421 296.858C233.658 295.499 233.41 294.1 232.721 292.905Z" fill="#8400D1"/>
<g style="mix-blend-mode:multiply">
<path d="M102.699 255.044L154.152 294.452C154.769 294.919 155.469 295.264 156.216 295.467L218.201 311.977C219.528 312.322 220.935 312.193 222.177 311.612C223.419 311.031 224.42 310.034 225.006 308.794C225.592 307.554 225.727 306.149 225.388 304.82C225.048 303.491 224.256 302.323 223.147 301.516L171.018 264.047C170.476 263.666 169.875 263.378 169.239 263.193L107.912 244.69C106.582 244.269 105.145 244.335 103.86 244.877C102.574 245.419 101.523 246.401 100.896 247.647C100.268 248.893 100.105 250.322 100.436 251.678C100.766 253.033 101.569 254.227 102.699 255.044Z" fill="#8400D1"/>
<path d="M285.668 345.265L337.156 384.726C337.771 385.197 338.472 385.541 339.22 385.74L401.205 402.251C402.533 402.596 403.939 402.466 405.181 401.885C406.423 401.304 407.424 400.308 408.01 399.068C408.596 397.828 408.731 396.423 408.392 395.094C408.053 393.765 407.26 392.596 406.151 391.789L354.005 354.321C353.467 353.933 352.864 353.643 352.225 353.467L290.898 334.964C289.586 334.595 288.187 334.692 286.938 335.24C285.69 335.787 284.67 336.751 284.053 337.966C283.436 339.182 283.26 340.574 283.554 341.905C283.848 343.236 284.596 344.423 285.668 345.265Z" fill="#8400D1"/>
<path d="M184.61 475.641L224.071 424.171C224.535 423.552 224.879 422.852 225.085 422.107L241.596 360.121C241.941 358.794 241.812 357.388 241.231 356.146C240.65 354.903 239.653 353.903 238.413 353.317C237.173 352.73 235.768 352.595 234.439 352.935C233.11 353.274 231.941 354.066 231.135 355.175L193.666 407.304C193.278 407.844 192.983 408.446 192.794 409.083L174.309 470.357C173.917 471.674 173.998 473.087 174.538 474.35C175.078 475.614 176.043 476.649 177.265 477.276C178.488 477.903 179.892 478.083 181.233 477.785C182.574 477.486 183.769 476.728 184.61 475.641Z" fill="#8400D1"/>
<path d="M274.884 292.675L314.346 241.222C314.806 240.601 315.149 239.902 315.36 239.159L331.817 177.155C332.176 175.827 332.056 174.414 331.479 173.165C330.903 171.915 329.905 170.908 328.662 170.319C327.418 169.73 326.007 169.596 324.674 169.942C323.342 170.288 322.174 171.09 321.373 172.209L283.905 224.338C283.515 224.877 283.22 225.479 283.033 226.117L264.53 287.338C264.04 288.68 264.056 290.156 264.576 291.487C265.096 292.819 266.084 293.914 267.355 294.569C268.626 295.224 270.091 295.393 271.477 295.044C272.864 294.696 274.075 293.853 274.884 292.675Z" fill="#8400D1"/>
<path d="M97.9673 382.306L162.248 373.82C163.019 373.714 163.762 373.461 164.436 373.073L219.927 340.924C221.127 340.24 222.047 339.156 222.527 337.861C223.006 336.566 223.014 335.144 222.549 333.844C222.084 332.544 221.175 331.45 219.983 330.753C218.791 330.057 217.392 329.802 216.031 330.035L152.676 340.39C152.054 340.503 151.454 340.713 150.897 341.013L94.4624 371.258C93.2413 371.902 92.2855 372.955 91.7618 374.233C91.2382 375.51 91.18 376.931 91.5975 378.247C92.0149 379.563 92.8815 380.69 94.0458 381.432C95.2101 382.174 96.5981 382.484 97.9673 382.306Z" fill="#8400D1"/>
<path d="M291.145 316.71L355.426 308.224C356.197 308.133 356.942 307.884 357.614 307.494L413.105 275.328C414.305 274.644 415.225 273.56 415.705 272.265C416.184 270.97 416.192 269.548 415.727 268.248C415.262 266.948 414.353 265.854 413.161 265.157C411.969 264.461 410.57 264.207 409.209 264.439L345.854 274.883C345.23 274.988 344.628 275.199 344.075 275.506L287.64 305.751C286.459 306.412 285.543 307.461 285.046 308.721C284.55 309.98 284.504 311.373 284.916 312.662C285.329 313.952 286.174 315.059 287.309 315.797C288.444 316.535 289.799 316.857 291.145 316.71Z" fill="#8400D1"/>
<path d="M311.873 480.373L303.351 416.075C303.248 415.309 302.994 414.571 302.604 413.904L270.437 358.395C269.754 357.195 268.669 356.275 267.375 355.796C266.08 355.316 264.658 355.309 263.358 355.774C262.058 356.239 260.964 357.147 260.267 358.339C259.57 359.531 259.316 360.93 259.549 362.291L269.921 425.647C270.034 426.269 270.244 426.869 270.544 427.426L300.789 483.86C301.402 485.13 302.452 486.138 303.746 486.698C305.041 487.258 306.494 487.333 307.839 486.91C309.185 486.486 310.333 485.593 311.074 484.392C311.814 483.192 312.098 481.765 311.873 480.373Z" fill="#8400D1"/>
<path d="M246.275 287.195L237.788 222.897C237.685 222.131 237.431 221.393 237.041 220.726L204.892 165.217C204.208 164.017 203.124 163.097 201.829 162.618C200.535 162.138 199.112 162.13 197.812 162.595C196.513 163.061 195.418 163.969 194.722 165.161C194.025 166.353 193.771 167.752 194.003 169.113L204.358 232.468C204.471 233.09 204.681 233.691 204.981 234.247L235.226 290.682C235.855 291.923 236.905 292.9 238.188 293.439C239.47 293.978 240.903 294.045 242.23 293.626C243.557 293.207 244.692 292.33 245.433 291.153C246.173 289.975 246.472 288.572 246.275 287.195Z" fill="#8400D1"/>
</g>
</g>
<g style="mix-blend-mode:multiply">
<path d="M93.0739 188.77L155.682 205.494C156.43 205.692 157.21 205.741 157.977 205.636L221.563 197.168C222.931 196.993 224.194 196.343 225.13 195.331C226.066 194.319 226.617 193.01 226.685 191.633C226.753 190.256 226.334 188.899 225.501 187.8C224.669 186.701 223.477 185.929 222.133 185.621L159.667 170.979C159.037 170.84 158.389 170.798 157.746 170.854L94.0168 177.241C92.6406 177.367 91.3528 177.975 90.3803 178.957C89.4078 179.939 88.8129 181.232 88.7002 182.61C88.5876 183.987 88.9644 185.36 89.7644 186.487C90.5645 187.614 91.7364 188.422 93.0739 188.77Z" fill="#8400D1"/>
<path d="M296.659 202.096L359.302 218.856C360.051 219.051 360.829 219.106 361.598 219.016L425.184 210.529C426.551 210.352 427.812 209.7 428.746 208.687C429.681 207.673 430.229 206.364 430.294 204.987C430.36 203.61 429.939 202.254 429.106 201.156C428.272 200.059 427.079 199.289 425.736 198.983L363.234 184.322C362.606 184.169 361.957 184.12 361.313 184.18L297.584 190.567C296.209 190.696 294.923 191.306 293.953 192.289C292.983 193.272 292.39 194.566 292.28 195.943C292.169 197.32 292.548 198.692 293.349 199.817C294.15 200.942 295.322 201.749 296.659 202.096Z" fill="#8400D1"/>
<path d="M253.18 361.221L269.939 298.578C270.138 297.829 270.186 297.049 270.082 296.282L261.613 232.696C261.439 231.328 260.788 230.066 259.777 229.129C258.765 228.193 257.455 227.643 256.078 227.575C254.701 227.507 253.344 227.926 252.245 228.758C251.146 229.59 250.375 230.783 250.066 232.127L235.389 294.628C235.249 295.264 235.207 295.918 235.264 296.567L241.651 360.278C241.777 361.654 242.384 362.942 243.366 363.915C244.348 364.887 245.642 365.482 247.019 365.595C248.397 365.707 249.77 365.331 250.897 364.531C252.024 363.73 252.832 362.559 253.18 361.221Z" fill="#8400D1"/>
<path d="M266.502 157.653L283.262 95.0096C283.46 94.2615 283.509 93.4815 283.404 92.7145L274.882 29.128C274.708 27.7604 274.058 26.4978 273.046 25.5615C272.034 24.6251 270.724 24.0748 269.347 24.0069C267.97 23.939 266.613 24.3579 265.514 25.1901C264.415 26.0224 263.644 27.2149 263.336 28.5587L248.658 91.0599C248.518 91.6963 248.476 92.3502 248.533 92.9992L254.92 156.71C255.009 158.118 255.602 159.448 256.59 160.454C257.579 161.461 258.897 162.078 260.303 162.193C261.71 162.307 263.11 161.912 264.249 161.078C265.387 160.244 266.187 159.028 266.502 157.653Z" fill="#8400D1"/>
<path d="M137.41 308.151L193.56 275.717C194.253 275.336 194.859 274.815 195.339 274.187L234.267 223.286C235.11 222.195 235.542 220.841 235.488 219.463C235.433 218.084 234.894 216.769 233.967 215.748C233.039 214.727 231.782 214.066 230.415 213.879C229.048 213.693 227.659 213.993 226.492 214.728L171.926 248.532C171.368 248.87 170.874 249.304 170.467 249.813L129.92 299.344C129.042 300.408 128.567 301.746 128.577 303.125C128.587 304.504 129.082 305.836 129.975 306.886C130.869 307.936 132.104 308.639 133.463 308.87C134.822 309.102 136.22 308.847 137.41 308.151Z" fill="#8400D1"/>
<path d="M290.789 173.631L346.938 141.179C347.627 140.801 348.233 140.286 348.717 139.667L387.681 88.7126C388.552 87.6193 389.005 86.2509 388.957 84.8536C388.91 83.4563 388.365 82.1219 387.422 81.0903C386.478 80.0587 385.197 79.3977 383.81 79.2262C382.422 79.0548 381.019 79.3841 379.852 80.1549L325.268 113.959C324.721 114.296 324.234 114.723 323.827 115.222L283.298 164.824C282.42 165.888 281.945 167.226 281.955 168.605C281.965 169.984 282.46 171.315 283.354 172.366C284.247 173.416 285.482 174.119 286.841 174.35C288.201 174.581 289.598 174.327 290.789 173.631Z" fill="#8400D1"/>
<path d="M372.557 316.885L340.106 260.736C339.727 260.046 339.213 259.441 338.593 258.956L287.639 219.993C286.548 219.158 285.199 218.732 283.826 218.789C282.454 218.847 281.145 219.383 280.127 220.306C279.11 221.228 278.448 222.478 278.256 223.839C278.065 225.199 278.357 226.583 279.081 227.75L312.885 282.334C313.222 282.882 313.649 283.369 314.148 283.775L363.839 324.375C364.909 325.197 366.228 325.625 367.576 325.588C368.924 325.551 370.218 325.051 371.241 324.172C372.264 323.293 372.953 322.089 373.193 320.762C373.432 319.435 373.208 318.066 372.557 316.885Z" fill="#8400D1"/>
<path d="M238.04 163.524L205.589 107.375C205.222 106.677 204.706 106.07 204.076 105.596L153.122 66.7213C152.028 65.8919 150.678 65.471 149.306 65.5313C147.934 65.5917 146.627 66.1295 145.609 67.0518C144.592 67.9741 143.929 69.2229 143.735 70.5823C143.541 71.9416 143.828 73.3261 144.546 74.4962L178.386 128.991C178.723 129.544 179.15 130.037 179.649 130.45L229.216 170.997C230.282 171.854 231.613 172.313 232.98 172.295C234.348 172.277 235.667 171.784 236.71 170.901C237.754 170.017 238.458 168.797 238.7 167.451C238.943 166.106 238.71 164.717 238.04 163.524Z" fill="#8400D1"/>
<g style="mix-blend-mode:multiply">
<path d="M108.021 125.646L159.474 165.107C160.086 165.581 160.789 165.926 161.538 166.121L223.523 182.632C224.851 182.977 226.257 182.847 227.499 182.266C228.741 181.685 229.742 180.689 230.328 179.449C230.914 178.209 231.049 176.804 230.71 175.475C230.371 174.146 229.578 172.977 228.469 172.17L176.34 134.702C175.798 134.321 175.197 134.032 174.561 133.848L113.288 115.362C111.971 114.964 110.557 115.041 109.291 115.579C108.026 116.117 106.989 117.082 106.362 118.306C105.735 119.53 105.558 120.935 105.861 122.277C106.165 123.618 106.929 124.81 108.021 125.646Z" fill="#8400D1"/>
<path d="M290.989 215.866L342.496 255.31C343.106 255.787 343.809 256.132 344.559 256.324L406.545 272.852C407.872 273.197 409.278 273.068 410.521 272.487C411.763 271.906 412.763 270.909 413.35 269.669C413.936 268.43 414.071 267.024 413.731 265.695C413.392 264.366 412.6 263.198 411.491 262.391L359.362 224.922C358.817 224.546 358.217 224.258 357.583 224.068L296.238 205.583C294.923 205.193 293.513 205.275 292.253 205.815C290.993 206.356 289.961 207.321 289.338 208.542C288.715 209.764 288.538 211.165 288.84 212.503C289.142 213.84 289.902 215.03 290.989 215.866Z" fill="#8400D1"/>
<path d="M189.93 346.24L229.391 294.787C229.864 294.154 230.209 293.435 230.405 292.67L246.916 230.685C247.261 229.357 247.131 227.951 246.55 226.709C245.969 225.466 244.973 224.466 243.733 223.88C242.493 223.294 241.088 223.158 239.759 223.498C238.43 223.837 237.261 224.63 236.454 225.739L198.986 277.867C198.591 278.401 198.301 279.005 198.132 279.647L179.629 340.974C179.245 342.289 179.331 343.697 179.874 344.956C180.416 346.214 181.381 347.244 182.601 347.868C183.821 348.492 185.221 348.67 186.558 348.373C187.896 348.076 189.088 347.322 189.93 346.24Z" fill="#8400D1"/>
<path d="M280.225 163.273L319.686 111.802C320.156 111.187 320.501 110.486 320.7 109.738L337.157 47.753C337.502 46.4256 337.373 45.0195 336.792 43.7772C336.211 42.5349 335.214 41.5343 333.974 40.9481C332.735 40.3619 331.329 40.2268 330 40.5662C328.671 40.9056 327.503 41.6981 326.696 42.807L289.227 94.9358C288.837 95.4723 288.548 96.0751 288.373 96.715L269.852 157.989C269.412 159.324 269.464 160.774 270 162.074C270.535 163.375 271.519 164.441 272.772 165.08C274.025 165.718 275.466 165.887 276.833 165.555C278.2 165.224 279.403 164.414 280.225 163.273Z" fill="#8400D1"/>
<path d="M103.288 252.909L167.586 244.422C168.35 244.322 169.088 244.075 169.757 243.693L225.266 211.526C226.444 210.829 227.342 209.744 227.806 208.457C228.271 207.17 228.273 205.762 227.812 204.473C227.351 203.185 226.456 202.098 225.28 201.398C224.105 200.698 222.722 200.429 221.37 200.637L157.997 211.01C157.374 211.111 156.773 211.316 156.218 211.615L99.8011 241.86C98.5601 242.489 97.5829 243.539 97.0437 244.822C96.5045 246.104 96.4384 247.537 96.8572 248.864C97.276 250.191 98.1525 251.326 99.3303 252.067C100.508 252.807 101.911 253.106 103.288 252.909Z" fill="#8400D1"/>
<path d="M296.469 187.328L360.749 178.806C361.521 178.703 362.265 178.449 362.938 178.058L418.447 145.909C419.637 145.218 420.547 144.132 421.02 142.84C421.493 141.548 421.498 140.131 421.035 138.835C420.572 137.54 419.67 136.447 418.486 135.747C417.301 135.047 415.909 134.784 414.551 135.003L351.178 145.375C350.556 145.491 349.956 145.701 349.399 145.998L292.982 176.244C291.712 176.856 290.704 177.906 290.144 179.201C289.584 180.495 289.509 181.948 289.932 183.294C290.356 184.639 291.249 185.787 292.45 186.528C293.65 187.269 295.077 187.553 296.469 187.328Z" fill="#8400D1"/>
<path d="M317.196 350.972L308.692 286.674C308.586 285.909 308.332 285.172 307.945 284.504L275.796 228.994C275.112 227.795 274.028 226.874 272.733 226.395C271.438 225.916 270.016 225.908 268.716 226.373C267.416 226.838 266.322 227.747 265.625 228.939C264.929 230.13 264.675 231.53 264.907 232.891L275.28 296.228C275.395 296.849 275.605 297.449 275.902 298.007L306.148 354.424C306.778 355.658 307.824 356.63 309.101 357.167C310.379 357.705 311.805 357.773 313.128 357.36C314.451 356.946 315.585 356.078 316.33 354.909C317.074 353.74 317.381 352.346 317.196 350.972Z" fill="#8400D1"/>
<path d="M251.6 157.794L243.113 93.5136C243.017 92.7432 242.769 91.9995 242.384 91.3253L210.217 35.8161C209.52 34.6386 208.435 33.7404 207.148 33.2759C205.862 32.8113 204.453 32.8094 203.165 33.2703C201.877 33.7313 200.789 34.6264 200.089 35.802C199.389 36.9776 199.12 38.3602 199.329 39.7124L209.701 103.085C209.802 103.711 210.012 104.313 210.324 104.865L240.569 161.281C241.206 162.509 242.255 163.472 243.532 164.002C244.81 164.531 246.233 164.593 247.551 164.177C248.87 163.76 249.999 162.891 250.739 161.723C251.48 160.556 251.785 159.164 251.6 157.794Z" fill="#8400D1"/>
</g>
</g>
</svg>
