<svg width="696" height="223" viewBox="0 0 696 223" fill="none" xmlns="http://www.w3.org/2000/svg">
<path d="M695.854 0H0V222.25H695.854V0Z" fill="#592C82"/>
<path d="M567.031 95.2367C567.059 96.2909 566.771 97.3295 566.205 98.2191C565.638 99.1086 564.819 99.8086 563.852 100.229C562.885 100.65 561.814 100.772 560.777 100.58C559.74 100.388 558.784 99.89 558.032 99.1507C557.28 98.4115 556.766 97.4643 556.556 96.4309C556.346 95.3974 556.449 94.3247 556.853 93.3505C557.257 92.3762 557.942 91.5449 558.822 90.9631C559.702 90.3813 560.735 90.0756 561.79 90.0853C562.474 90.0733 563.153 90.1977 563.789 90.4513C564.424 90.7048 565.003 91.0824 565.491 91.5619C565.978 92.0415 566.366 92.6134 566.63 93.2443C566.895 93.8753 567.031 94.5526 567.031 95.2367ZM557.771 95.2367C557.757 95.7724 557.851 96.3053 558.047 96.804C558.243 97.3028 558.537 97.7571 558.911 98.14C559.286 98.5229 559.734 98.8267 560.229 99.0334C560.723 99.24 561.254 99.3453 561.79 99.343C562.583 99.3435 563.358 99.1094 564.019 98.6702C564.679 98.231 565.195 97.6064 565.501 96.8748C565.808 96.1432 565.891 95.3374 565.741 94.5586C565.59 93.7799 565.213 93.063 564.656 92.4981C564.099 91.9333 563.388 91.5457 562.611 91.3841C561.835 91.2225 561.028 91.2941 560.292 91.5899C559.556 91.8857 558.924 92.3925 558.475 93.0465C558.027 93.7006 557.782 94.4727 557.771 95.2658V95.2367ZM560.946 97.9011H559.752V92.747C560.406 92.6508 561.065 92.5995 561.726 92.5935C562.341 92.5261 562.962 92.6688 563.486 92.9983C563.657 93.1243 563.794 93.2902 563.887 93.4816C563.979 93.673 564.023 93.884 564.015 94.0963C564 94.3898 563.888 94.6701 563.696 94.8928C563.505 95.1156 563.244 95.2683 562.956 95.3267V95.3769C563.464 95.5383 563.692 95.9431 563.869 96.6284C563.931 97.0646 564.058 97.4891 564.245 97.8878H562.986C562.789 97.4905 562.652 97.066 562.581 96.6284C562.493 96.0992 562.176 95.8479 561.522 95.8479H560.956L560.946 97.9011ZM560.946 95.0144H561.512C562.168 95.0144 562.705 94.7948 562.705 94.2789C562.705 93.763 562.358 93.4852 561.602 93.4852C561.381 93.4784 561.16 93.5006 560.946 93.5513V95.0144Z" fill="white"/>
<path d="M127 76.11H134.472V98.6789H162.573V76.11H170.037V130.741H162.573V105.148H134.472V130.741H127V76.11Z" fill="white"/>
<path d="M202.702 92.0114C205.128 93.1518 207.205 94.9204 208.716 97.1338C210.094 99.2369 211.003 101.612 211.381 104.098C211.857 106.973 212.055 109.887 211.971 112.8H182.991C182.937 116.235 183.929 119.605 185.835 122.462C186.797 123.703 188.051 124.686 189.486 125.324C190.92 125.961 192.49 126.233 194.056 126.116C195.604 126.186 197.148 125.917 198.581 125.328C200.014 124.738 201.3 123.842 202.351 122.703C203.506 121.384 204.346 119.82 204.809 118.128H211.389C211.121 119.831 210.534 121.468 209.658 122.952C208.801 124.575 207.696 126.054 206.383 127.336C204.295 129.299 201.704 130.644 198.898 131.223C197.119 131.634 195.299 131.833 193.474 131.815C191.127 131.848 188.8 131.386 186.644 130.459C184.489 129.532 182.552 128.162 180.962 126.436C177.323 122.311 175.47 116.911 175.808 111.421C175.562 105.809 177.396 100.303 180.959 95.959C182.618 94.0131 184.697 92.4683 187.038 91.4405C189.38 90.4126 191.924 89.9285 194.479 90.0244C197.338 90.0366 200.154 90.72 202.7 92.0194L202.702 92.0114ZM205.084 107.524C204.947 105.109 204.305 102.749 203.2 100.597C202.297 99.0137 200.961 97.7201 199.35 96.8674C197.739 96.0147 195.918 95.6381 194.101 95.7818C192.661 95.7506 191.232 96.028 189.908 96.5953C188.585 97.1625 187.398 98.0065 186.428 99.0705C184.326 101.377 183.158 104.383 183.152 107.503L205.084 107.524Z" fill="white"/>
<path d="M238.792 106.521C239.429 106.498 240.049 106.308 240.589 105.969C241.129 105.631 241.57 105.156 241.869 104.592C242.198 103.781 242.346 102.908 242.303 102.034C242.377 101.066 242.19 100.097 241.763 99.2252C241.336 98.3538 240.684 97.6125 239.874 97.0782C237.751 95.9245 235.345 95.3927 232.934 95.5436C231.564 95.4025 230.181 95.5842 228.895 96.0739C227.608 96.5637 226.454 97.3481 225.525 98.3641C224.586 99.7418 224.037 101.348 223.938 103.013H217.71C217.559 101.042 217.918 99.0659 218.753 97.2741C219.587 95.4823 220.867 93.9352 222.472 92.7814C225.668 90.822 229.36 89.8228 233.108 89.9027C237.078 89.7314 241.018 90.6511 244.501 92.5618C245.913 93.4144 247.064 94.6377 247.83 96.0987C248.595 97.5596 248.946 99.2024 248.843 100.849V123.693C248.813 124.28 248.961 124.863 249.269 125.365C249.5 125.605 249.784 125.787 250.099 125.895C250.414 126.003 250.749 126.034 251.079 125.987C251.414 125.987 251.747 125.97 252.079 125.936C252.455 125.891 252.86 125.849 253.278 125.762V130.651C252.496 130.885 251.701 131.071 250.896 131.207C250.163 131.286 249.425 131.322 248.687 131.315C247.709 131.393 246.729 131.209 245.845 130.782C244.962 130.356 244.208 129.703 243.66 128.889C243.031 127.763 242.64 126.519 242.512 125.235C240.913 127.19 238.902 128.768 236.622 129.855C234.011 131.186 231.118 131.868 228.187 131.842C226.533 131.907 224.883 131.645 223.33 131.071C221.778 130.497 220.354 129.621 219.141 128.495C217.998 127.426 217.094 126.127 216.489 124.684C215.883 123.241 215.591 121.685 215.63 120.121C215.537 118.532 215.798 116.943 216.392 115.467C216.987 113.991 217.901 112.666 219.07 111.585C221.642 109.448 224.801 108.141 228.132 107.836L238.792 106.521ZM224.703 124.455C226.139 125.566 227.914 126.149 229.73 126.106C232.1 126.108 234.439 125.565 236.566 124.518C238.28 123.802 239.732 122.577 240.725 121.009C241.719 119.441 242.207 117.605 242.123 115.75V110.379C241.151 110.987 240.09 111.44 238.979 111.723C237.741 112.071 236.475 112.315 235.196 112.453L231.161 112.943C229.263 113.085 227.408 113.58 225.692 114.403C224.701 114.925 223.881 115.722 223.33 116.698C222.779 117.674 222.521 118.788 222.586 119.906C222.545 120.778 222.716 121.647 223.083 122.439C223.45 123.231 224.003 123.922 224.695 124.455H224.703Z" fill="white"/>
<path d="M258.918 76.11H265.623V130.741H258.918V76.11Z" fill="white"/>
<path d="M277.323 79.9014H284.028V90.9425H290.438V96.4855H284.028V122.394C283.961 122.945 284.06 123.504 284.313 123.999C284.566 124.493 284.962 124.901 285.448 125.169C286.288 125.503 287.192 125.644 288.094 125.582H289.131C289.575 125.562 290.017 125.515 290.454 125.442V130.799C289.676 131.031 288.879 131.198 288.073 131.299C287.179 131.4 286.279 131.45 285.379 131.448C284.206 131.595 283.014 131.453 281.907 131.035C280.8 130.617 279.813 129.935 279.03 129.048C277.836 127.203 277.249 125.031 277.352 122.835V96.4564H271.904V90.9134H277.323V79.9014Z" fill="white"/>
<path d="M297.262 75.9935H303.974V96.3003C305.165 94.6669 306.609 93.2334 308.25 92.0537C310.67 90.5716 313.473 89.8354 316.309 89.9371C322.095 89.9371 326.02 91.9585 328.086 96.0013C329.331 98.8973 329.9 102.039 329.75 105.188V130.752H322.871V105.635C323.015 103.434 322.631 101.231 321.752 99.2081C321.04 98.0723 320.019 97.1624 318.81 96.5844C317.6 96.0063 316.251 95.7839 314.92 95.9431C312.14 95.946 309.456 96.9608 307.369 98.798C305.117 100.712 303.99 104.318 303.99 109.617V130.741H297.278L297.262 75.9935Z" fill="white"/>
<path d="M377.579 85.6138H348.575V97.274H375.198V106.778H348.575V120.896H378.923V130.744H337.383V75.9354H377.579V85.6138Z" fill="white"/>
<path d="M407.247 91.2997C408.747 92.6128 409.994 94.1892 410.927 95.9511V89.998H421.188V146.476H410.721V125.473C409.789 127.285 408.385 128.811 406.657 129.889C404.279 131.287 401.542 131.955 398.788 131.81C396.497 131.822 394.232 131.322 392.158 130.347C390.085 129.371 388.256 127.945 386.805 126.172C383.345 121.95 381.581 116.592 381.857 111.141C381.556 105.328 383.313 99.5949 386.818 94.9483C388.248 93.057 390.097 91.523 392.22 90.4671C394.343 89.4112 396.681 88.8621 399.052 88.8629C401.987 88.6729 404.893 89.5371 407.247 91.2997ZM409.527 117.967C410.591 115.492 411.093 112.812 410.998 110.12C411.043 107.828 410.612 105.553 409.734 103.436C409.157 101.811 408.069 100.415 406.634 99.4587C405.198 98.5021 403.492 98.0355 401.77 98.1286C400.525 98.0903 399.29 98.3518 398.168 98.891C397.046 99.4303 396.07 100.231 395.322 101.227C393.485 104.007 392.623 107.318 392.872 110.641C392.789 112.996 393.172 115.345 393.999 117.552C394.547 119.138 395.601 120.502 396.998 121.432C398.396 122.363 400.06 122.809 401.735 122.703C403.36 122.791 404.973 122.386 406.363 121.541C407.754 120.697 408.856 119.452 409.527 117.97V117.967Z" fill="white"/>
<path d="M438.089 90.162V114.448C437.996 116.211 438.278 117.974 438.915 119.621C439.432 120.648 440.251 121.493 441.263 122.04C442.275 122.588 443.431 122.812 444.574 122.682C446.112 122.814 447.652 122.462 448.98 121.676C450.308 120.89 451.358 119.709 451.982 118.298C452.746 116.307 453.097 114.182 453.014 112.051V90.1329H463.738V130.445H453.493V124.759C453.228 125.111 452.983 125.476 452.758 125.854C452.376 126.469 451.899 127.019 451.345 127.484C449.947 128.787 448.309 129.806 446.524 130.487C444.767 131.049 442.929 131.317 441.084 131.281C435.087 131.281 431.054 129.145 428.985 124.873C427.647 121.556 427.049 117.988 427.233 114.416V90.162H438.089Z" fill="white"/>
<path d="M480.774 85.3704H470.056V75.5808H480.772L480.774 85.3704ZM470.056 90.162H480.774V130.741H470.056V90.162Z" fill="white"/>
<path d="M486.256 98.0386V90.5668H491.91V79.2029H502.407V90.58H508.987V98.0519H502.407V119.56C502.257 120.642 502.48 121.743 503.039 122.682C504.242 123.249 505.582 123.461 506.902 123.293H507.926C508.282 123.28 508.636 123.236 508.984 123.161V131.051L503.973 131.339C498.959 131.524 495.53 130.646 493.667 128.741C492.354 127.166 491.712 125.138 491.879 123.095V98.0545L486.256 98.0386Z" fill="white"/>
<path d="M519.798 138.25L521.152 138.345C522.147 138.403 523.145 138.371 524.134 138.25C524.986 138.16 525.803 137.865 526.515 137.39C527.337 136.683 527.944 135.76 528.267 134.726C528.656 133.956 528.88 133.113 528.923 132.252L514.019 89.8577H525.793L534.627 119.793L543.004 89.8577H554.273L540.382 129.744C538.934 134.78 536.788 139.589 534.008 144.031C532.455 145.883 529.32 146.807 524.637 146.807H522.377C521.811 146.807 520.906 146.74 519.795 146.658L519.798 138.25Z" fill="white"/>
</svg>
