<svg width="148" height="154" viewBox="0 0 148 154" fill="none" xmlns="http://www.w3.org/2000/svg">
<path d="M0 146.077H2.50122V153.202H3.51987V146.077H6.0211V145.113H0M14.4905 144.893C13.2373 144.893 12.2893 145.391 11.6488 146.396C11.1496 147.173 10.9 148.104 10.9 149.203C10.9 150.411 11.1925 151.414 11.7774 152.21C12.4305 153.029 13.3281 153.438 14.4703 153.438C15.6932 153.438 16.6337 152.971 17.2917 152.032C17.8515 151.227 18.1389 150.227 18.1389 149.016C18.1389 147.907 17.8918 146.989 17.3976 146.27C16.7698 145.355 15.7991 144.893 14.4905 144.893ZM16.5126 151.425C16.1193 152.117 15.4763 152.469 14.5888 152.469C13.6559 152.469 12.9801 152.156 12.5641 151.538C12.1506 150.925 11.9439 150.173 11.9439 149.272C11.9439 148.156 12.1859 147.305 12.67 146.728C13.1592 146.154 13.787 145.874 14.551 145.874C15.3427 145.874 15.968 146.162 16.4219 146.739C16.8782 147.322 17.1051 148.085 17.1051 149.038C17.1051 149.939 16.9085 150.733 16.5126 151.425ZM28.7792 150.112C28.7792 150.703 28.6985 151.167 28.5296 151.51C28.2195 152.139 27.637 152.46 26.7772 152.46C26.0612 152.46 25.5543 152.167 25.2518 151.582C25.045 151.183 24.9442 150.703 24.9442 150.112V145.113H23.9306V149.659C23.9306 150.653 24.0516 151.414 24.2962 151.95C24.7475 152.925 25.6048 153.416 26.8604 153.416C28.1161 153.416 28.9759 152.925 29.4272 151.95C29.6718 151.414 29.7953 150.653 29.7953 149.659V145.113H28.7792V150.112ZM40.5995 151.518C40.2213 152.139 39.659 152.449 38.9354 152.449C38.1437 152.449 37.5512 152.156 37.1502 151.571C36.7544 150.98 36.5527 150.208 36.5527 149.263C36.5527 148.104 36.7771 147.25 37.2183 146.684C37.657 146.132 38.2345 145.847 38.9606 145.847C39.5431 145.847 39.9994 145.998 40.3222 146.303C40.6499 146.613 40.8718 147.022 40.9803 147.541H41.956C41.9056 146.86 41.6207 146.242 41.1038 145.704C40.597 145.168 39.8734 144.893 38.943 144.893C37.8537 144.893 37.0015 145.311 36.3837 146.14C35.8114 146.904 35.524 147.882 35.524 149.071C35.524 150.645 35.9022 151.807 36.6661 152.568C37.2461 153.133 37.9647 153.416 38.8118 153.416C39.8028 153.416 40.592 153.073 41.1694 152.378C41.6585 151.796 41.9459 151.087 42.0292 150.241H41.0483C40.95 150.766 40.8012 151.197 40.5995 151.518ZM52.7098 148.461H48.8974V145.113H47.8788V153.202H48.8974V149.425H52.7098V153.202H53.7259V145.113H52.7098V148.461ZM60.0798 153.202H61.0909V145.116H60.0798V153.202ZM72.1321 151.647L68.4383 145.113H67.2482V153.202H68.2088V146.673L71.9657 153.202H73.0978V145.113H72.1321V151.647ZM82.3917 149.788H84.7113C84.7011 150.733 84.4844 151.414 84.0457 151.84C83.6171 152.257 83.0724 152.48 82.4219 152.48C81.5571 152.48 80.9419 152.172 80.5586 151.571C80.1779 150.966 79.9938 150.181 79.9938 149.222C79.9938 148.113 80.2182 147.275 80.6822 146.715C81.1385 146.146 81.7084 145.874 82.3841 145.874C82.9464 145.874 83.4154 146.003 83.7936 146.27C84.1642 146.541 84.4063 146.978 84.5248 147.569H85.5283C85.3593 146.509 84.9181 145.767 84.1894 145.341C83.6851 145.056 83.0951 144.907 82.4068 144.907C81.4008 144.907 80.5864 145.289 79.956 146.053C79.2904 146.852 78.9575 147.926 78.9575 149.285C78.9575 150.642 79.303 151.702 79.9812 152.491C80.604 153.109 81.3428 153.416 82.2126 153.416C82.8833 153.416 83.4305 153.279 83.8642 153.01C84.1239 152.856 84.4138 152.57 84.7593 152.161L84.9963 153.202H85.6468V148.876H82.3917V149.788ZM100.225 145.113H99.222V153.202H103.95V152.235H100.225V145.113ZM109.726 153.202H110.742V145.116H109.726V153.202ZM119.613 152.005L117.482 145.113H116.375L119.078 153.202H120.147L122.86 145.113H121.723L119.613 152.005ZM129.403 149.5H133.478V148.566H129.403V146.107H133.808V145.113H128.422V153.202H133.879V152.235H129.403V149.5ZM144.552 149.296C144.284 149.077 143.909 148.909 143.425 148.78L142.416 148.522C141.735 148.346 141.302 148.203 141.107 148.08C140.812 147.901 140.666 147.613 140.666 147.212C140.666 146.852 140.79 146.541 141.037 146.261C141.284 145.992 141.695 145.855 142.267 145.855C142.968 145.855 143.47 146.069 143.757 146.487C143.924 146.72 144.027 147.058 144.073 147.486H145.021C145.021 146.594 144.751 145.937 144.219 145.522C143.692 145.113 143.049 144.91 142.29 144.91C141.465 144.91 140.83 145.143 140.389 145.613C139.935 146.077 139.708 146.673 139.708 147.398C139.708 148.071 139.935 148.577 140.396 148.915C140.659 149.112 141.118 149.288 141.748 149.456L142.716 149.697C143.251 149.835 143.641 149.994 143.883 150.178C144.131 150.365 144.252 150.675 144.252 151.12C144.252 151.702 143.962 152.114 143.392 152.334C143.087 152.449 142.759 152.515 142.393 152.515C141.584 152.515 141.014 152.241 140.691 151.702C140.525 151.425 140.429 151.051 140.406 150.595H139.461C139.459 151.463 139.7 152.156 140.212 152.675C140.722 153.188 141.423 153.438 142.32 153.438C143.097 153.438 143.775 153.246 144.363 152.859C144.94 152.48 145.235 151.837 145.235 150.942C145.235 150.216 145.005 149.673 144.552 149.296Z" fill="#97999C"/>
<path d="M16.6055 78.7935L2.61171 119.108H10.8037L13.7033 110.127H27.5382L30.3395 119.108H38.7912L24.9488 78.7935M15.8263 103.519L20.6473 88.728H20.7532L25.4203 103.519H15.8263ZM64.1363 93.8669C63.1378 92.4359 61.8721 91.2961 60.3567 90.4227C58.8288 89.5602 57.0159 89.1318 54.9105 89.1318C53.2489 89.1318 51.7336 89.4861 50.3493 90.2002C48.9676 90.9143 47.8254 92.0652 46.9253 93.6445H46.8219V89.9118H39.8225V141.065H47.19V115.491H47.2934C48.1859 116.917 49.3357 118.004 50.7401 118.738C52.1395 119.474 53.67 119.836 55.3291 119.836C57.2932 119.836 59.0128 119.419 60.4828 118.6C61.9502 117.774 63.1782 116.661 64.1615 115.271C65.1474 113.876 65.8761 112.272 66.3627 110.468C66.8493 108.666 67.0889 106.779 67.0889 104.823C67.0889 102.755 66.8493 100.769 66.3627 98.863C65.8761 96.9624 65.1423 95.3034 64.1363 93.8669ZM59.4188 108.04C59.2095 109.174 58.8565 110.152 58.3573 111.009C57.853 111.855 57.1974 112.541 56.3881 113.063C55.5736 113.593 54.5651 113.851 53.3523 113.851C52.1798 113.851 51.1814 113.593 50.3493 113.063C49.5198 112.541 48.8516 111.855 48.3524 111.009C47.8531 110.152 47.485 109.174 47.2606 108.04C47.0387 106.908 46.9253 105.765 46.9253 104.598C46.9253 103.389 47.0311 102.219 47.2354 101.093C47.4421 99.9672 47.8002 98.9702 48.2994 98.1022C48.8037 97.2398 49.4593 96.5339 50.2711 95.9818C51.083 95.4408 52.0941 95.1661 53.3044 95.1661C54.4768 95.1661 55.4703 95.4408 56.2822 95.9818C57.0966 96.5339 57.7597 97.2453 58.2791 98.1325C58.796 99.0196 59.1666 100.022 59.3961 101.148C59.618 102.283 59.7289 103.431 59.7289 104.598C59.7289 105.765 59.628 106.908 59.4188 108.04ZM92.6457 93.3368C91.4405 91.9992 89.9806 90.9638 88.2661 90.2277C86.5515 89.4943 84.6428 89.1318 82.5349 89.1318C80.4245 89.1318 78.5284 89.4943 76.8341 90.2277C75.1422 90.9638 73.6924 91.9992 72.4821 93.3368C71.2693 94.6662 70.3389 96.2867 69.6834 98.1874C69.0278 100.085 68.6975 102.2 68.6975 104.538C68.6975 106.878 69.0278 108.982 69.6834 110.863C70.3389 112.744 71.2693 114.357 72.4821 115.689C73.6924 117.026 75.1422 118.056 76.8341 118.771C78.5284 119.482 80.4245 119.836 82.5349 119.836C84.6428 119.836 86.5515 119.482 88.2661 118.771C89.9806 118.056 91.4405 117.026 92.6457 115.689C93.8535 114.357 94.7813 112.744 95.4445 110.863C96.0975 108.982 96.4278 106.878 96.4278 104.538C96.4278 102.2 96.0975 100.085 95.4445 98.1874C94.7813 96.2867 93.8535 94.6662 92.6457 93.3368ZM88.7577 107.957C88.5485 109.064 88.2005 110.067 87.6962 110.948C87.1945 111.83 86.5187 112.541 85.669 113.063C84.8319 113.593 83.783 113.851 82.5349 113.851C81.2919 113.851 80.2556 113.593 79.4235 113.063C78.5965 112.541 77.9258 111.83 77.4316 110.948C76.9273 110.067 76.5769 109.064 76.3676 107.957C76.1583 106.845 76.06 105.708 76.06 104.538C76.06 103.373 76.1583 102.219 76.3676 101.093C76.5769 99.9672 76.9273 98.9702 77.4316 98.1022C77.9258 97.2398 78.5965 96.5339 79.4235 95.9818C80.2556 95.4408 81.2919 95.1661 82.5349 95.1661C83.783 95.1661 84.8319 95.4408 85.669 95.9818C86.5187 96.5339 87.1945 97.2398 87.6962 98.1022C88.2005 98.9702 88.5485 99.9672 88.7577 101.093C88.967 102.219 89.0679 103.373 89.0679 104.538C89.0679 105.708 88.967 106.845 88.7577 107.957ZM98.5483 119.108H105.908V78.7935H98.5483V119.108ZM110.626 119.108H117.986V78.7935H110.626V119.108ZM146.861 98.1874C146.2 96.2867 145.272 94.6662 144.06 93.3368C142.849 91.9992 141.394 90.9638 139.682 90.2277C137.968 89.4943 136.062 89.1318 133.954 89.1318C131.846 89.1318 129.947 89.4943 128.248 90.2277C126.559 90.9638 125.109 91.9992 123.896 93.3368C122.691 94.6662 121.755 96.2867 121.097 98.1874C120.442 100.085 120.114 102.2 120.114 104.538C120.114 106.878 120.442 108.982 121.097 110.863C121.755 112.744 122.691 114.357 123.896 115.689C125.109 117.026 126.559 118.056 128.248 118.771C129.947 119.482 131.846 119.836 133.954 119.836C136.062 119.836 137.968 119.482 139.682 118.771C141.394 118.056 142.849 117.026 144.06 115.689C145.272 114.357 146.2 112.744 146.861 110.863C147.519 108.982 147.842 106.878 147.842 104.538C147.842 102.2 147.519 100.085 146.861 98.1874ZM140.174 107.957C139.97 109.064 139.607 110.067 139.11 110.948C138.608 111.83 137.938 112.541 137.085 113.063C136.246 113.593 135.194 113.851 133.954 113.851C132.706 113.851 131.677 113.593 130.847 113.063C130.01 112.541 129.35 111.83 128.845 110.948C128.344 110.067 127.993 109.064 127.784 107.957C127.58 106.845 127.481 105.708 127.481 104.538C127.481 103.373 127.58 102.219 127.784 101.093C127.993 99.9672 128.344 98.9702 128.845 98.1022C129.35 97.2398 130.01 96.5339 130.847 95.9818C131.677 95.4408 132.706 95.1661 133.954 95.1661C135.194 95.1661 136.246 95.4408 137.085 95.9818C137.938 96.5339 138.608 97.2398 139.11 98.1022C139.607 98.9702 139.97 99.9672 140.174 101.093C140.381 102.219 140.487 103.373 140.487 104.538C140.487 105.708 140.383 106.845 140.174 107.957Z" fill="#2582A1"/>
<path d="M60.8776 133.155H55.2902V128.26H53.8051V140.104H55.2902V134.566H60.8776V140.104H62.3653V128.26H60.8776M70.5447 127.928C68.7167 127.928 67.3223 128.667 66.3944 130.133C65.6582 131.273 65.2926 132.638 65.2926 134.245C65.2926 136.014 65.7187 137.486 66.5735 138.648C67.5316 139.851 68.8503 140.45 70.5195 140.45C72.3096 140.45 73.6889 139.763 74.6545 138.387C75.4816 137.217 75.89 135.742 75.89 133.979C75.89 132.339 75.5345 131.007 74.8109 129.947C73.8931 128.606 72.4685 127.928 70.5447 127.928ZM73.5149 137.505C72.9324 138.519 71.9894 139.03 70.6934 139.03C69.3319 139.03 68.3384 138.571 67.7333 137.67C67.1231 136.766 66.8155 135.662 66.8155 134.358C66.8155 132.715 67.171 131.468 67.8796 130.631C68.5931 129.782 69.5134 129.364 70.638 129.364C71.7978 129.364 72.7055 129.787 73.3762 130.642C74.0519 131.49 74.3797 132.611 74.3797 134.006C74.3797 135.327 74.0898 136.489 73.5149 137.505ZM85.8117 134.38C85.4234 134.064 84.8738 133.814 84.1627 133.627L82.6852 133.254C81.6943 132.99 81.0564 132.778 80.774 132.605C80.3428 132.336 80.1234 131.913 80.1234 131.331C80.1234 130.804 80.3 130.342 80.6706 129.941C81.0312 129.543 81.6287 129.342 82.4683 129.342C83.4996 129.342 84.2308 129.655 84.662 130.276C84.8914 130.611 85.0427 131.1 85.1158 131.735H86.5001C86.5001 130.416 86.1067 129.458 85.3377 128.856C84.5586 128.26 83.6206 127.958 82.5087 127.958C81.3009 127.958 80.368 128.296 79.7125 128.983C79.0468 129.664 78.7266 130.543 78.7266 131.608C78.7266 132.594 79.0619 133.328 79.7301 133.828C80.1184 134.108 80.7765 134.369 81.7094 134.61L83.139 134.97C83.9081 135.165 84.4754 135.404 84.841 135.673C85.199 135.953 85.3831 136.404 85.3831 137.047C85.3831 137.912 84.9595 138.508 84.1123 138.837C83.6761 139.016 83.187 139.096 82.6549 139.096C81.4648 139.096 80.6378 138.706 80.1613 137.926C79.9167 137.497 79.778 136.961 79.7478 136.286H78.361C78.3459 137.568 78.714 138.582 79.4553 139.324C80.2092 140.082 81.2354 140.45 82.5616 140.45C83.6887 140.45 84.6796 140.178 85.5344 139.612C86.3891 139.043 86.8152 138.11 86.8152 136.788C86.8152 135.736 86.4849 134.937 85.8117 134.38ZM95.0426 128.26H90.1763V140.104H91.6488V135.102H95.0426C96.1268 135.102 96.9412 134.759 97.4681 134.072C97.9976 133.383 98.2548 132.581 98.2548 131.658C98.2548 130.578 97.9648 129.749 97.3698 129.15C96.7773 128.557 96.0032 128.26 95.0426 128.26ZM96.1595 133.281C95.7435 133.591 95.214 133.753 94.561 133.753H91.6488V129.636H94.561C95.1207 129.636 95.567 129.719 95.8897 129.883C96.4797 130.199 96.7697 130.787 96.7697 131.661C96.7697 132.441 96.5604 132.982 96.1595 133.281ZM101.616 140.104H103.106V128.257H101.616V140.104ZM105.726 129.669H109.384V140.104H110.874V129.669H114.538V128.26H105.726V129.669ZM119.087 128.26L114.989 140.104H116.5L117.677 136.555H121.946L123.086 140.104H124.702L120.748 128.26H119.087ZM118.111 135.253L119.856 130.013L121.532 135.253H118.111ZM128.635 128.26H127.165V140.104H134.091V138.7H128.635V128.26ZM143.758 134.38C143.375 134.064 142.823 133.814 142.114 133.627L140.637 133.254C139.638 132.99 139.003 132.778 138.721 132.605C138.292 132.336 138.075 131.913 138.075 131.331C138.075 130.804 138.254 130.342 138.617 129.941C138.985 129.543 139.583 129.342 140.415 129.342C141.451 129.342 142.175 129.655 142.606 130.276C142.838 130.611 142.989 131.1 143.068 131.735H144.444C144.444 130.416 144.058 129.458 143.287 128.856C142.508 128.26 141.562 127.958 140.453 127.958C139.248 127.958 138.315 128.296 137.662 128.983C136.999 129.664 136.671 130.543 136.671 131.608C136.671 132.594 137.001 133.328 137.677 133.828C138.063 134.108 138.726 134.369 139.659 134.61L141.081 134.97C141.857 135.165 142.432 135.404 142.785 135.673C143.148 135.953 143.325 136.404 143.325 137.047C143.325 137.912 142.904 138.508 142.057 138.837C141.62 139.016 141.136 139.096 140.607 139.096C139.414 139.096 138.582 138.706 138.111 137.926C137.868 137.497 137.727 136.961 137.692 136.286H136.313C136.293 137.568 136.661 138.582 137.41 139.324C138.156 140.082 139.187 140.45 140.506 140.45C141.635 140.45 142.629 140.178 143.481 139.612C144.336 139.043 144.764 138.11 144.764 136.788C144.764 135.736 144.429 134.937 143.758 134.38Z" fill="#2582A1"/>
<path d="M68.1758 83.442L72.5454 87.1472L76.9074 83.442V72.2962H68.1758M77.3537 60.1314H66.905V57.4232L43.0526 86.6858H55.6797L68.1102 71.063H77.3537V69.5661H77.3608V60.9362H77.3537V60.1314ZM68.1758 58.8899H76.9074V49.5212L81.5165 41.751H63.0195L68.1758 49.5212V58.8899ZM41.449 26.12H17.3117V71.9227H28.6907L54.9032 40.6112L41.449 26.12ZM32.8031 42.0174H29.0437V46.1044H25.7457V42.0174H21.9939V38.4276H25.7457V34.3379H29.0437V38.4276H32.8031V42.0174ZM51.3833 69.8462L53.2214 62.8231H55.6848V43.2534L30.1783 73.708V87.1335L42.919 71.9227H48.8039C48.8039 71.9227 50.8513 72.1479 51.3833 69.8462ZM52.7902 53.2703L50.9168 55.3138L49.0409 53.2703H52.7902Z" fill="#2582A1"/>
<path d="M61.7148 14.5653L61.4324 14.4665C46.6847 10.3356 45.7846 2.72468 46.1779 2.42937e-05C45.1467 3.12019 45.2274 9.26713 46.3242 12.9421C48.0892 14.862 53.964 17.6828 59.6372 18.2925C60.2498 18.386 60.8399 18.5095 61.4324 18.6304C76.291 21.6764 77.5416 34.8767 72.1332 41.2653C72.7181 40.0403 78.9611 26.3209 63.6689 23.5111C62.9099 23.3903 62.2039 23.2365 61.561 23.1184C50.7467 20.9403 49.7684 19.1687 49.2314 18.9819C48.8103 21.0035 51.4804 31.9323 61.561 33.3056H61.6467C71.1045 34.5498 72.0273 39.6613 72.0853 41.3202L72.0874 41.356L72.1125 41.3065C74.8432 39.1861 76.5729 35.3491 76.7368 31.2072V30.0481C76.4846 23.5551 72.2744 16.639 61.7148 14.5653Z" fill="#FDB931"/>
</svg>
