<svg width="391" height="92" viewBox="0 0 391 92" fill="none" xmlns="http://www.w3.org/2000/svg">
<path d="M324.398 49.5759C324.649 49.8286 324.948 50.0292 325.277 50.166C325.605 50.3028 325.958 50.3733 326.314 50.3733C326.67 50.3733 327.022 50.3028 327.351 50.166C327.68 50.0292 327.978 49.8286 328.23 49.5759C328.762 49.0475 329.023 48.3525 329.023 47.6554C329.023 46.9627 328.762 46.2678 328.23 45.7349C327.979 45.4827 327.68 45.2828 327.352 45.1467C327.023 45.0107 326.671 44.9412 326.315 44.9423C325.779 44.9426 325.256 45.1019 324.81 45.4001C324.365 45.6984 324.018 46.1222 323.813 46.618C323.608 47.1138 323.554 47.6594 323.658 48.1858C323.762 48.7123 324.02 49.196 324.398 49.5759ZM338.069 35.8817C338.56 36.3791 339.187 36.7186 339.872 36.8569C340.556 36.9952 341.266 36.926 341.911 36.6582C342.556 36.3904 343.107 35.9361 343.493 35.3533C343.879 34.7705 344.083 34.0857 344.078 33.3862C344.078 32.4508 343.708 31.5538 343.047 30.8924C342.387 30.231 341.492 29.8594 340.558 29.8594C339.625 29.8594 338.729 30.231 338.069 30.8924C337.409 31.5538 337.038 32.4508 337.038 33.3862C337.038 34.2876 337.382 35.1934 338.069 35.8817ZM338.051 64.4068C338.542 64.9049 339.17 65.2451 339.854 65.3839C340.539 65.5227 341.25 65.4537 341.895 65.1858C342.54 64.9179 343.091 64.4632 343.478 63.8799C343.864 63.2966 344.068 62.6112 344.063 61.9113C344.063 61.0077 343.719 60.1063 343.03 59.418C342.539 58.9228 341.911 58.5853 341.227 58.4482C340.544 58.3111 339.835 58.3808 339.191 58.6482C338.547 58.9156 337.997 59.3688 337.61 59.9502C337.224 60.5316 337.019 61.215 337.021 61.9135C337.021 62.8149 337.364 63.7185 338.051 64.4068ZM351.564 22.3562C352.457 23.2532 353.629 23.7017 354.802 23.7017C355.974 23.7017 357.144 23.2532 358.039 22.3585C358.935 21.4637 359.38 20.287 359.38 19.1125C359.38 17.938 358.935 16.7658 358.039 15.871C357.615 15.4442 357.11 15.1056 356.554 14.8745C355.999 14.6435 355.403 14.5245 354.802 14.5245C354.2 14.5245 353.605 14.6435 353.049 14.8745C352.493 15.1056 351.989 15.4442 351.564 15.871C350.669 16.7658 350.223 17.9403 350.223 19.1125C350.223 20.2848 350.669 21.4593 351.564 22.3562ZM351.546 50.8836C352.439 51.7805 353.612 52.2268 354.784 52.2268C355.956 52.2268 357.126 51.7827 358.022 50.8836C358.917 49.9844 359.362 48.8143 359.362 47.6421C359.362 46.4698 358.917 45.2931 358.022 44.3961C357.126 43.4992 355.956 43.0529 354.784 43.0529C353.612 43.0529 352.439 43.4992 351.546 44.3961C351.12 44.8216 350.782 45.3272 350.552 45.8838C350.321 46.4404 350.202 47.0372 350.202 47.6399C350.202 48.2425 350.321 48.8393 350.552 49.3959C350.782 49.9525 351.12 50.4581 351.546 50.8836ZM351.531 79.4131C352.424 80.3079 353.596 80.7563 354.768 80.7563C355.941 80.7563 357.111 80.3079 358.006 79.4131C358.901 78.5184 359.347 77.3417 359.347 76.1672C359.347 74.9927 358.901 73.8204 358.006 72.9257C357.581 72.4989 357.077 72.1602 356.521 71.9292C355.966 71.6981 355.37 71.5792 354.768 71.5792C354.167 71.5792 353.571 71.6981 353.016 71.9292C352.46 72.1602 351.956 72.4989 351.531 72.9257C350.636 73.8204 350.19 74.9949 350.19 76.1672C350.19 77.3394 350.636 78.5162 351.531 79.4131ZM364.82 37.5846C365.372 38.1395 366.027 38.5796 366.749 38.8795C367.471 39.1794 368.245 39.3331 369.026 39.3319C370.555 39.3319 372.078 38.7524 373.241 37.5868C374.4 36.4234 374.983 34.8959 374.983 33.3684C374.983 31.8409 374.4 30.3179 373.237 29.15C372.073 27.9822 370.551 27.4028 369.026 27.4028C367.502 27.4028 365.979 27.9867 364.82 29.15C364.266 29.7032 363.827 30.3607 363.527 31.0846C363.227 31.8086 363.073 32.5847 363.074 33.3684C363.074 34.8959 363.657 36.4212 364.82 37.5846ZM364.807 66.1141C365.358 66.6686 366.014 67.1083 366.736 67.4078C367.458 67.7073 368.232 67.8607 369.013 67.8592C370.542 67.8592 372.064 67.2797 373.228 66.1141C374.387 64.9485 374.969 63.4255 374.969 61.898C374.969 60.3705 374.387 58.8452 373.223 57.6796C372.06 56.514 370.537 55.9323 369.013 55.9323C367.488 55.9323 365.966 56.5095 364.807 57.6774C364.253 58.2306 363.813 58.888 363.514 59.612C363.214 60.3359 363.06 61.112 363.061 61.8957C363.061 63.4255 363.643 64.9485 364.807 66.1141ZM377.786 53.1082C378.504 53.83 379.357 54.4025 380.296 54.7926C381.235 55.1828 382.243 55.383 383.259 55.3817C385.241 55.3817 387.219 54.6224 388.733 53.1082C390.247 51.594 391 49.6092 391 47.6243C391 45.6395 390.244 43.659 388.731 42.1426C387.217 40.6263 385.241 39.8692 383.259 39.8692C381.276 39.8692 379.3 40.6285 377.786 42.1426C376.272 43.6568 375.519 45.6395 375.519 47.6243C375.519 49.6092 376.275 51.5918 377.786 53.1082Z" fill="#EC6602"/>
<path d="M292.57 34.1963V27.4465C296.325 28.6587 299.68 29.2626 302.631 29.2626C306.655 29.2626 308.671 28.1846 308.671 26.0308C308.671 25.2257 308.384 24.5502 307.814 24.0023C307.214 23.4208 305.669 22.6201 303.179 21.5913C298.759 19.7574 295.859 18.1806 294.503 16.8633C292.76 15.1546 291.885 12.9763 291.885 10.3238C291.885 6.96451 293.153 4.39699 295.7 2.63014C298.205 0.876714 301.479 0 305.516 0C307.781 0 310.722 0.366789 314.324 1.09813L315.159 1.2435V7.73163C312.024 6.46577 309.115 5.83507 306.413 5.83507C302.649 5.83507 300.768 6.88623 300.768 8.99527C300.768 9.78252 301.148 10.4266 301.907 10.9254C302.512 11.3078 304.269 12.1599 307.17 13.484C311.254 15.3313 313.989 16.9394 315.362 18.3081C316.984 19.9318 317.796 22.0319 317.796 24.6106C317.796 28.3098 316.212 31.1323 313.055 33.0781C310.466 34.6526 307.119 35.4398 303.026 35.4398C299.565 35.4398 296.077 35.0261 292.57 34.1963ZM279.25 0.592677V23.4588L267.679 0.592677H256.763V34.7487H263.396V11.5784L275.283 34.7487H285.888V0.592677H279.25ZM226.024 0.592677V34.7487H250.562V28.2248H235.097V20.1175H248.22V14.4837H235.097V6.77664H250.171V0.592677H226.024ZM205.793 0.592677L197.096 22.4144L188.617 0.592677H176.407V34.7487H183.039V10.5675L192.736 35.0932H198.575L208.462 10.5675V34.7487H217.386V0.592677H205.793ZM145.72 0.592677V34.7487H170.258V28.2248H154.794V20.1175H167.915V14.4837H154.794V6.77664H169.869V0.592677H145.72ZM127.667 34.7465H137.088V0.59044H127.672V17.6685L127.667 34.7465ZM97.1271 34.1963V27.4465C100.915 28.6587 104.268 29.2626 107.186 29.2626C111.213 29.2626 113.228 28.1846 113.228 26.0308C113.228 25.2257 112.932 24.5502 112.345 24.0023C111.743 23.4208 110.208 22.6201 107.732 21.5913C103.299 19.7417 100.403 18.165 99.0564 16.8633C97.317 15.1412 96.4428 12.9718 96.4428 10.3461C96.4428 6.97122 97.7143 4.39699 100.255 2.63014C102.765 0.876714 106.041 0 110.067 0C112.292 0 115.509 0.413755 119.714 1.2435V7.73163C116.586 6.46577 113.676 5.83507 110.994 5.83507C107.213 5.83507 105.321 6.88623 105.321 8.99527C105.321 9.78252 105.705 10.4266 106.469 10.9254C107.103 11.3257 108.849 12.1778 111.705 13.484C115.815 15.3313 118.559 16.9394 119.917 18.3081C121.539 19.9318 122.352 22.0319 122.352 24.6106C122.352 28.3098 120.762 31.1323 117.583 33.0781C115.016 34.6526 111.676 35.4398 107.584 35.4398C104.123 35.4398 100.637 35.0261 97.1271 34.1963Z" fill="#009999"/>
<path d="M124.966 67.5362H132.583V61.1354H124.966V51.86H116.882V61.1377H112.398V67.5384H116.882V82.0348C116.882 86.9681 117.346 91.7809 125.721 91.7809C128.281 91.7809 131.361 91.0204 133.108 89.9053L131.361 84.4412C130.084 84.9698 128.86 85.3824 127.811 85.3824C125.661 85.3824 124.966 84.0889 124.966 80.8617V67.5362ZM315.769 62.8416L315.792 62.7747C313.218 61.073 309.845 60.0471 306.164 60.2411C300.189 60.5556 295.49 64.1529 295.817 70.3663C296.139 76.5864 300.63 78.0517 305.049 79.111C307.585 79.7422 309.705 80.2217 309.825 82.5077C309.942 84.7379 308.418 85.6991 306.27 85.8128C303.641 85.9511 300.317 84.7713 298.174 83.6584L295.766 89.2563C297.463 90.4026 301.837 92.0351 306.988 91.7653C313.715 91.4085 318.122 87.8312 317.778 81.203C317.459 75.1033 312.628 73.7696 308.32 72.6434C305.667 71.9632 303.712 71.3008 303.591 69.0148C303.491 67.0768 305.02 66.2315 306.937 66.1289C308.921 66.0263 311.06 66.905 313.328 68.5108L315.769 62.8416ZM283.017 72.4092C283.132 69.3003 284.994 67.302 287.899 67.302C289.412 67.302 290.811 67.7101 292.026 68.3569L293.482 61.3116C292.088 60.5489 290.287 60.2567 288.655 60.2567C285.924 60.2567 283.075 61.8982 281.681 65.3639L280.923 61.1332H274.351L274.934 66.3029V90.9H283.017V72.4092ZM194.57 90.9V71.8204C194.57 69.0037 196.55 66.5393 199.629 66.5393C202.713 66.5393 203.23 68.9434 203.23 72.1728V90.9H211.316V70.5871C211.316 63.5441 207.825 60.2545 202.073 60.2545C198.176 60.2545 195.269 61.9026 193.291 64.6592L192.708 61.1354H185.964L186.49 66.6552V90.9H194.57ZM170.875 51.8377C170.875 53.0754 171.304 54.1236 172.066 54.8663C172.828 55.6023 173.924 56.0372 175.265 56.0372C176.573 56.0372 177.686 55.6045 178.468 54.8663C179.252 54.1236 179.705 53.0754 179.705 51.8377C179.705 50.6869 179.252 49.6387 178.468 48.8737C177.686 48.1154 176.573 47.6404 175.265 47.6404C173.953 47.6404 172.857 48.1132 172.088 48.8737C171.7 49.2609 171.392 49.723 171.184 50.2325C170.975 50.7421 170.871 51.2864 170.875 51.8377ZM171.247 90.9044H179.332V61.1354H171.247V76.0199V90.9044ZM147.351 90.9044V71.7067C147.351 68.9457 149.328 66.5393 152.292 66.5393C155.374 66.5393 156.013 68.8877 156.013 71.9409V90.9022H164.096V70.7098C164.096 63.7225 160.782 60.2567 154.676 60.2567C151.826 60.2567 149.211 61.3139 147.351 63.3099V51.86H139.267V90.9L147.351 90.9044ZM96.9362 51.9157V82.0348C96.9362 86.9636 97.4001 91.7809 105.777 91.7809C108.335 91.7809 111.415 91.0182 113.16 89.9008L111.415 84.439C110.136 84.9698 108.916 85.3824 107.871 85.3824C105.715 85.3824 105.019 84.0889 105.019 80.8595V51.9202L96.9362 51.9157ZM90.1918 90.9L89.6086 84.972V62.4245C85.1903 60.7831 80.8847 60.2523 78.9076 60.2523C68.6197 60.2523 63.499 67.0054 63.499 77.338C63.499 85.262 66.3487 91.7207 74.7809 91.7207C77.9223 91.7207 80.8273 90.5476 82.5725 87.8446L82.8663 87.907L83.2706 90.8977L90.1918 90.9ZM81.585 81.3903C81.585 83.5603 79.8398 85.7905 76.8177 85.7905C72.5122 85.7905 71.5247 81.6245 71.5247 76.8674C71.5247 71.1134 73.1528 66.3029 77.9223 66.3029C79.4333 66.3029 80.8273 66.5928 81.585 66.9452V81.3903ZM20.1781 51.86V67.4157H8.31513V51.86H0V90.9H8.31513V74.7554H20.1781V90.9H28.4954V51.86H20.1781ZM58.8488 68.8252C58.8488 63.2497 55.069 60.2523 49.1949 60.2523C39.6603 60.2523 34.7163 68.1227 34.7163 76.7514C34.7163 85.5564 38.6707 91.7787 48.5543 91.7787C54.4305 91.7787 58.4997 89.0801 59.1956 88.4936L56.8716 83.034C55.2457 84.1469 52.7428 85.5564 49.6036 85.5564C45.1831 85.5564 43.3209 82.5612 42.9144 79.7444C49.9504 79.4522 58.8488 77.6881 58.8488 68.8252ZM51.7553 68.8855C51.7553 72.9333 46.3429 73.8745 42.5653 73.9927C42.7376 69.9404 44.8341 66.0085 48.7884 66.0085C50.5889 66.0085 51.7553 67.1236 51.7553 68.8855ZM268.653 68.8252C268.653 63.2497 264.874 60.2523 258.999 60.2523C249.465 60.2523 244.521 68.1227 244.521 76.7514C244.521 85.5564 248.475 91.7787 258.359 91.7787C264.235 91.7787 268.304 89.0801 269 88.4936L266.674 83.034C265.046 84.1469 262.547 85.5564 259.406 85.5564C254.988 85.5564 253.128 82.5612 252.719 79.7444C259.759 79.4522 268.653 77.6881 268.653 68.8252ZM261.56 68.8855C261.56 72.9333 256.148 73.8745 252.37 73.9927C252.542 69.9404 254.639 66.0085 258.593 66.0085C260.393 66.0085 261.56 67.1236 261.56 68.8855ZM240.45 68.8252C240.45 63.2497 236.672 60.2523 230.796 60.2523C221.261 60.2523 216.319 68.1227 216.319 76.7514C216.319 85.5564 220.274 91.7787 230.155 91.7787C236.031 91.7787 240.103 89.0801 240.799 88.4936L238.472 83.034C236.844 84.1469 234.346 85.5564 231.204 85.5564C226.786 85.5564 224.924 82.5612 224.517 79.7444C231.556 79.4522 240.45 77.6881 240.45 68.8252ZM233.358 68.8855C233.358 72.9333 227.946 73.8745 224.168 73.9927C224.341 69.9404 226.437 66.0085 230.391 66.0085C232.192 66.0085 233.358 67.1236 233.358 68.8855Z" fill="#EC6602"/>
</svg>
