<svg width="100" height="100" viewBox="0 0 100 100" fill="none" xmlns="http://www.w3.org/2000/svg">
<path d="M94.317 51.1509L82.2872 48.3419C82.1651 48.3134 82.0391 48.3053 81.9143 48.3179L76.8403 48.8243L75.7865 48.0716L81.8253 47.2744C81.9736 47.2541 82.1165 47.2053 82.2462 47.1307L92.9176 40.9482C93.1483 40.8168 93.3253 40.6082 93.4174 40.3592C93.5096 40.1103 93.5111 39.8368 93.4217 39.5868C93.3322 39.3368 93.1576 39.1263 92.9283 38.9924C92.6991 38.8584 92.43 38.8095 92.1683 38.8543L79.9846 40.8455C79.865 40.8673 79.7495 40.9077 79.6425 40.9653L71.7732 45.1839L71.3079 44.8418L71.65 44.3833L77.3877 41.0714L81.7637 40.4863C82.0266 40.4522 82.2691 40.3268 82.4488 40.1319C82.6284 39.9371 82.7338 39.6852 82.7465 39.4205C82.7591 39.1557 82.6782 38.8949 82.5179 38.6838C82.3577 38.4727 82.1282 38.3247 81.8698 38.2658L80.816 38.0195L86.9746 29.9586C87.1341 29.7481 87.215 29.4886 87.2034 29.2247C87.1918 28.9609 87.0884 28.7095 86.911 28.5138C86.7337 28.3182 86.4935 28.1907 86.2321 28.1534C85.9707 28.1161 85.7044 28.1713 85.4794 28.3094L74.9859 34.8102C74.8794 34.8762 74.7846 34.9595 74.7053 35.0565L73.6584 36.3361L72.7072 36.0966L73.9218 34.4098C73.9941 34.3051 74.0495 34.1896 74.0861 34.0677L74.9311 31.2621L80.4875 28.046C80.7164 27.9131 80.8914 27.7043 80.9823 27.4558C81.0733 27.2073 81.0743 26.9348 80.9853 26.6857C80.8963 26.4365 80.7228 26.2263 80.495 26.0917C80.2672 25.9571 79.9995 25.9065 79.7383 25.9487L76.351 26.5166L77.6238 22.2912C77.7093 22.0358 77.7008 21.7583 77.5997 21.5088C77.4987 21.2592 77.3117 21.0539 77.0726 20.93C76.8336 20.8062 76.5581 20.7718 76.2959 20.8332C76.0337 20.8946 75.8021 21.0476 75.6428 21.2647L70.9486 27.4062L67.5272 27.9639C67.4077 27.9862 67.2923 28.0265 67.185 28.0836L66.7026 28.3437L66.5897 27.2249L66.7231 27.1496C66.8557 27.0768 66.9721 26.9778 67.0653 26.8588L74.5582 17.0598C74.7278 16.8495 74.8163 16.5853 74.8077 16.3153C74.7992 16.0453 74.694 15.7873 74.5115 15.5881C74.3289 15.389 74.081 15.2619 73.8127 15.23C73.5444 15.1981 73.2736 15.2634 73.0494 15.4141L65.8644 19.8619L65.7378 18.5789C65.7136 18.3142 65.5968 18.0666 65.4079 17.8796C65.2191 17.6926 64.9703 17.5782 64.7054 17.5565C64.4406 17.5348 64.1765 17.6073 63.9598 17.7611C63.7431 17.915 63.5876 18.1404 63.5207 18.3976L62.5832 21.8943C62.4779 21.9592 62.3842 22.0413 62.3061 22.1372L57.6529 27.8202L57.2287 27.0298L61.4678 21.5008C61.5583 21.3826 61.6246 21.2477 61.6629 21.1039L64.8379 9.18368C64.9043 8.92841 64.8794 8.658 64.7677 8.41909C64.656 8.18019 64.4643 7.98777 64.2259 7.87504C63.9875 7.76231 63.7172 7.73634 63.4616 7.8016C63.2061 7.86686 62.9813 8.01926 62.8261 8.23252L55.6206 18.2573C55.5456 18.3605 55.49 18.4764 55.4564 18.5994L54.4642 21.884L53.8278 20.7002L54.4744 18.2778C54.5126 18.1339 54.5219 17.9839 54.5018 17.8365L52.863 5.60144C52.8294 5.33844 52.7044 5.09563 52.5098 4.91556C52.3151 4.7355 52.0634 4.62966 51.7986 4.61661C51.5337 4.60355 51.2728 4.6841 51.0614 4.84415C50.85 5.0042 50.7017 5.23353 50.6424 5.49196L47.8198 17.5114C47.793 17.6338 47.7849 17.7596 47.7958 17.8844L48.3501 23.3929L47.5871 24.3851L46.742 17.9836C46.7235 17.8354 46.6758 17.6924 46.6017 17.5627L40.4261 6.8879C40.2921 6.66146 40.0834 6.48874 39.8359 6.3994C39.5885 6.31006 39.3176 6.30969 39.0699 6.39834C38.8221 6.48699 38.613 6.65913 38.4784 6.8852C38.3438 7.11126 38.2921 7.37715 38.3322 7.63719L39.7897 16.5534C39.5274 16.5296 39.2653 16.6008 39.0512 16.754C38.837 16.9073 38.6851 17.1323 38.623 17.3883L38.079 19.4411L29.4467 12.8309C29.2363 12.6714 28.9767 12.5905 28.7129 12.6021C28.4491 12.6137 28.1976 12.7171 28.002 12.8945C27.8064 13.0718 27.6789 13.312 27.6415 13.5734C27.6042 13.8348 27.6594 14.1011 27.7976 14.3261L34.3051 24.8059C34.37 24.9123 34.4521 25.0071 34.5481 25.0865L36.2006 26.455L35.9508 27.3857L33.898 25.9179C33.7938 25.8447 33.6782 25.7892 33.5558 25.7536L31.9101 25.2575L28.4066 18.6679C28.2831 18.4319 28.0801 18.2472 27.8335 18.1464C27.5869 18.0456 27.3127 18.0353 27.0592 18.1172C26.8057 18.1991 26.5894 18.3679 26.4484 18.5939C26.3074 18.8199 26.2509 19.0885 26.2887 19.3522L26.8601 23.7145L21.7861 22.1851C21.5317 22.1021 21.2561 22.1121 21.0084 22.2134C20.7607 22.3148 20.557 22.5008 20.4337 22.7383C20.3105 22.9759 20.2756 23.2495 20.3353 23.5103C20.395 23.7712 20.5454 24.0024 20.7597 24.1627L27.6026 29.4111L27.9071 31.7138C27.9269 31.861 27.9757 32.0029 28.0508 32.1312L28.5708 33.0344L27.4897 33.1405L27.1236 32.5486C27.0587 32.4433 26.9766 32.3496 26.8806 32.2715L17.3588 24.4638C17.1543 24.2949 16.8969 24.2035 16.6317 24.2054C16.3666 24.2074 16.1105 24.3026 15.9085 24.4744C15.7065 24.6462 15.5714 24.8836 15.5269 25.1451C15.4824 25.4065 15.5314 25.6752 15.6652 25.9042L20.2602 33.8658L18.0807 34.0848C17.8161 34.109 17.5684 34.2258 17.3814 34.4147C17.1944 34.6035 17.08 34.8523 17.0583 35.1171C17.0367 35.382 17.1091 35.6461 17.263 35.8628C17.4168 36.0795 17.6422 36.235 17.8994 36.3019L23.0315 37.6705L28.2287 41.6633L27.4726 42.067L21.4782 37.7526C21.374 37.6794 21.2584 37.6239 21.1361 37.5884L9.3561 34.0438C9.10168 33.9607 8.82605 33.9708 8.57835 34.0721C8.33065 34.1734 8.12699 34.3594 8.0037 34.597C7.88042 34.8345 7.84551 35.1081 7.90521 35.369C7.96492 35.6299 8.11535 35.8611 8.32968 36.0213L18.2244 43.6101C18.3422 43.7012 18.4772 43.7676 18.6213 43.8051L22.3849 44.8076L21.184 45.4508L18.2587 44.7665C18.1368 44.7363 18.0105 44.7282 17.8857 44.7426L5.64728 45.9572C5.38261 45.9814 5.13497 46.0982 4.94795 46.287C4.76093 46.4758 4.64652 46.7246 4.62485 46.9895C4.60319 47.2544 4.67566 47.5184 4.82951 47.7351C4.98336 47.9518 5.20873 48.1073 5.46594 48.1742L17.5128 51.3972C17.6564 51.4364 17.8064 51.4469 17.9541 51.428L22.1351 50.8703L23.0726 51.5888L17.9644 52.4237C17.8447 52.4451 17.7292 52.4855 17.6223 52.5434L6.76951 58.3598C6.53353 58.4834 6.34882 58.6864 6.24805 58.9329C6.14728 59.1795 6.13693 59.4538 6.21882 59.7072C6.30072 59.9607 6.46959 60.177 6.69558 60.318C6.92157 60.459 7.19013 60.5156 7.45379 60.4777L16.3666 59.3007C16.2323 59.4442 16.1373 59.62 16.091 59.811C16.0447 60.002 16.0486 60.2018 16.1024 60.3908C16.1561 60.5799 16.2578 60.7518 16.3976 60.8899C16.5375 61.0281 16.7106 61.1277 16.9003 61.1791L18.8848 61.7094L12.5449 69.4384C12.3628 69.641 12.2602 69.9025 12.2558 70.1749C12.2514 70.4472 12.3456 70.7119 12.521 70.9202C12.6965 71.1286 12.9413 71.2665 13.2104 71.3085C13.4794 71.3506 13.7547 71.294 13.9853 71.1491L24.7833 64.9119C24.9143 64.8368 25.0303 64.7382 25.1255 64.621L25.8953 63.6117L26.9559 63.8957L25.8337 65.343C25.7425 65.4607 25.6762 65.5957 25.6387 65.7398L25.1255 67.6695L18.156 71.4023C17.9243 71.5286 17.744 71.7319 17.6462 71.977C17.5484 72.2221 17.5393 72.4937 17.6204 72.7448C17.7016 72.9959 17.8679 73.2108 18.0906 73.3524C18.3133 73.494 18.5785 73.5533 18.8403 73.5202L23.7295 72.8735L22.4533 77.6635C22.3884 77.9184 22.4142 78.188 22.5264 78.426C22.6386 78.6639 22.8302 78.8554 23.0681 78.9675C23.3061 79.0796 23.5757 79.1054 23.8307 79.0404C24.0856 78.9754 24.3099 78.8236 24.4651 78.6112L29.0977 72.1653L31.2019 71.8881C31.3503 71.8683 31.4933 71.8195 31.6227 71.7444L33.0597 70.913L33.2 71.9395L32.0402 72.658C31.9338 72.7228 31.839 72.8049 31.7596 72.9009L23.9622 82.4467C23.7863 82.6505 23.6888 82.9104 23.6872 83.1796C23.6856 83.4489 23.7799 83.7099 23.9533 83.9159C24.1268 84.1218 24.3679 84.2593 24.6335 84.3035C24.8991 84.3478 25.1718 84.296 25.4026 84.1574L34.1478 79.0902L34.4386 81.2526C34.4604 81.4286 34.5235 81.597 34.6227 81.744C34.7219 81.891 34.8545 82.0125 35.0096 82.0985C35.1647 82.1846 35.3379 82.2328 35.5151 82.2392C35.6924 82.2456 35.8687 82.21 36.0295 82.1353L33.5216 90.4528C33.4416 90.707 33.4538 90.9813 33.5561 91.2275C33.6584 91.4736 33.8442 91.6757 34.0809 91.7983C34.3175 91.921 34.5898 91.9562 34.8499 91.8978C35.11 91.8394 35.3411 91.6912 35.5026 91.4792L43.0914 81.581C43.1805 81.462 43.2467 81.3274 43.2864 81.1842L44.6515 76.1273L45.2811 77.2153L44.2546 81.5571C44.2262 81.6781 44.2181 81.803 44.2307 81.9266L45.459 94.1821C45.4832 94.4468 45.6 94.6945 45.7888 94.8815C45.9777 95.0685 46.2264 95.1829 46.4913 95.2046C46.7562 95.2262 47.0203 95.1538 47.237 94.9999C47.4537 94.8461 47.6092 94.6207 47.6761 94.3635L50.8991 82.3166C50.9372 82.1728 50.9465 82.0228 50.9264 81.8753L50.4303 78.1562L51.1522 77.1537L51.9255 81.8719C51.9472 81.9915 51.9876 82.1069 52.0452 82.214L57.8617 93.0668C57.9852 93.3027 58.1882 93.4874 58.4348 93.5882C58.6813 93.689 58.9556 93.6993 59.2091 93.6174C59.4625 93.5356 59.6789 93.3667 59.8199 93.1407C59.9609 92.9147 60.0174 92.6461 59.9795 92.3825L58.3372 80.014C58.3174 79.8667 58.2686 79.7249 58.1935 79.5966L54.2555 72.7982L54.755 72.114L58.8368 78.7002L59.3192 82.2859C59.3548 82.5478 59.4809 82.789 59.6757 82.9677C59.8705 83.1465 60.1216 83.2514 60.3857 83.2644C60.6497 83.2774 60.91 83.1976 61.1213 83.0389C61.3327 82.8802 61.4819 82.6525 61.5431 82.3953L61.7723 81.4202L68.9437 87.264C69.1475 87.4399 69.4074 87.5374 69.6766 87.539C69.9459 87.5406 70.2069 87.4463 70.4129 87.2729C70.6188 87.0994 70.7563 86.8583 70.8005 86.5927C70.8448 86.3271 70.793 86.0544 70.6544 85.8236L64.4137 75.0256C64.3417 74.8925 64.2426 74.776 64.1229 74.6834L63.4694 74.2113L63.726 73.1267L64.8448 73.9855C64.963 74.0759 65.0978 74.1422 65.2417 74.1805L68.2833 74.9914L71.7526 80.9789C71.8874 81.2018 72.0951 81.3713 72.3406 81.4585C72.586 81.5458 72.8541 81.5455 73.0994 81.4577C73.3447 81.37 73.552 81.2 73.6863 80.9768C73.8206 80.7536 73.8736 80.4908 73.8363 80.233L73.1931 76.3052L77.1551 77.3556C77.4103 77.4219 77.6808 77.3971 77.9197 77.2853C78.1586 77.1736 78.351 76.982 78.4637 76.7435C78.5764 76.5051 78.6024 76.2348 78.5372 75.9793C78.4719 75.7237 78.3195 75.499 78.1062 75.3438L72.3651 71.2175L71.8484 68.0459C71.8267 67.9263 71.7863 67.8108 71.7287 67.7037L71.1676 66.6568L72.2419 66.5131L72.6593 67.2384C72.7326 67.3717 72.8328 67.4882 72.9536 67.5806L82.7491 75.0769C82.9596 75.2364 83.2191 75.3174 83.4829 75.3058C83.7467 75.2942 83.9982 75.1907 84.1938 75.0134C84.3895 74.836 84.517 74.5958 84.5543 74.3344C84.5916 74.073 84.5364 73.8068 84.3982 73.5817L79.4303 65.5653L80.7442 65.3909C81.0072 65.3573 81.25 65.2323 81.43 65.0377C81.6101 64.843 81.7159 64.5913 81.729 64.3265C81.742 64.0616 81.6615 63.8007 81.5014 63.5893C81.3414 63.3779 81.1121 63.2296 80.8536 63.1704L76.9772 62.2603L71.3387 57.6516L72.0811 57.2205L78.2978 61.9865C78.4152 62.0783 78.5504 62.1447 78.6947 62.1816L90.615 65.3566C90.8705 65.4256 91.1421 65.4027 91.3824 65.2918C91.6227 65.1809 91.8164 64.9891 91.9297 64.7499C92.043 64.5107 92.0686 64.2393 92.0022 63.9831C91.9357 63.7269 91.7814 63.5022 91.5661 63.3483L81.5379 56.1393C81.4337 56.0661 81.3181 56.0106 81.1958 55.9751L76.6111 54.6065L77.682 53.9872L81.5174 55.0137C81.6613 55.0518 81.8113 55.0611 81.9588 55.041L94.1869 53.4124C94.3354 53.421 94.4842 53.4002 94.6246 53.3512C94.7651 53.3023 94.8945 53.2262 95.0056 53.1272C95.1166 53.0282 95.2071 52.9084 95.2718 52.7745C95.3365 52.6405 95.3742 52.4952 95.3827 52.3467C95.3913 52.1982 95.3705 52.0495 95.3215 51.909C95.2726 51.7685 95.1965 51.6391 95.0975 51.528C94.9985 51.417 94.8787 51.3266 94.7447 51.2618C94.6108 51.1971 94.4655 51.1594 94.317 51.1509ZM32.851 64.8879L33.1384 63.9333L34.117 63.8033L33.8706 64.7237L32.851 64.8879ZM34.8526 32.9557L35.8174 33.2123L35.9337 34.1088L35.0065 33.8898L34.8526 32.9557ZM41.2506 21.665L44.1281 27.023L42.4173 25.6305L41.4799 24.0087L41.2506 21.665ZM51.946 31.1766C52.0182 31.324 52.1207 31.4545 52.2469 31.5595C52.3731 31.6644 52.5201 31.7415 52.6782 31.7856L52.7295 32.1585L52.1239 32.5315L51.946 31.1766ZM67.0277 34.7007L66.7642 35.6929L65.8541 35.7853L66.0799 34.8273L67.0277 34.7007ZM67.5751 49.707L67.6093 49.6591L68.8615 50.0013L67.5751 49.707ZM55.5009 37.5678L56.6128 39.4838C56.4086 39.4867 56.2094 39.5472 56.038 39.6583L55.8156 39.6959L54.9466 38.2932L55.5009 37.5678ZM59.9316 56.307C59.8036 56.1968 59.6529 56.1162 59.4903 56.0709L59.4355 55.6501L60.7767 54.8768L61.4986 55.4653L59.9316 56.307ZM61.5328 46.7988C61.4718 46.8406 61.4135 46.8863 61.3584 46.9357L60.503 46.2822C60.5598 46.1902 60.6046 46.0913 60.6364 45.988L60.8315 45.2489L62.265 46.3472L61.5328 46.7988ZM39.0472 43.1516L39.1841 43.9933L37.7813 44.8623L37.056 44.308L39.0472 43.1516ZM44.1554 59.9439L44.9321 61.2886L44.3402 62.0105L43.283 60.0466L44.1554 59.9439ZM63.3838 59.9439L64.0886 59.8516L64.1776 60.5153L63.3838 59.9439ZM64.6806 41.872L65.204 41.5675L65.0911 41.9951L64.6806 41.872ZM46.7865 37.7663L46.068 38.649L46.0201 38.6285L45.3974 38.4437L46.3828 37.0751L46.7865 37.7663ZM41.6715 35.4876L41.5175 35.45L41.0453 34.6357L41.8425 34.8478L41.6715 35.4876ZM36.5393 39.5933L35.9611 39.6857L35.8585 39.0698L36.5393 39.5933ZM37.2236 53.0429L38.1029 53.7649C38.1029 53.782 38.1029 53.7956 38.1029 53.8128L37.9147 54.4355L36.5462 53.4501L37.2236 53.0429ZM38.9343 63.4441L39.1773 63.1259L39.7692 63.0472L39.8615 63.7315L38.9993 63.8752L38.9343 63.4441ZM53.513 61.0491C53.6044 61.1062 53.7035 61.15 53.8073 61.1791L54.5463 61.3775L53.4617 62.7837L53.0067 62.055C52.9679 61.9917 52.922 61.9332 52.8698 61.8805L53.513 61.0491ZM66.9182 52.8137L66.8634 52.7213L68.6049 52.4887L68.492 52.5537L66.9182 52.8137ZM68.971 42.0944L68.7794 42.3304L67.9172 42.8368H67.8556L68.4954 41.9472L68.971 42.0944ZM59.6716 32.1141L60.3046 31.2861L60.3661 31.7411L59.6716 32.1141ZM52.3121 29.0074L51.8947 30.376C51.8787 30.432 51.8673 30.4892 51.8605 30.5471V30.4786C51.8446 30.3281 51.797 30.1826 51.721 30.0517C51.6449 29.9208 51.542 29.8074 51.4191 29.7191L52.0863 27.2283L52.3121 29.0074ZM41.8425 31.0603L42.6637 31.7446L42.561 32.138L41.7296 31.5427L41.8425 31.0603ZM32.2215 39.3093L32.7347 40.1921L31.9546 40.3221L31.3969 39.4188L32.2215 39.3093ZM29.806 47.3257C29.7725 47.3623 29.7416 47.4012 29.7136 47.4421L29.4262 47.3736L29.806 47.3257ZM30.1755 49.7994C30.3256 49.7819 30.4705 49.7336 30.6012 49.6577C30.7318 49.5818 30.8455 49.4798 30.935 49.3581L31.5612 49.5257L31.0377 50.1655L29.9291 49.8234L30.1755 49.7994ZM27.2502 54.7981L25.9979 56.3275L22.6415 58.4077L20.3355 58.6404L27.127 54.7057L27.2502 54.7981ZM30.2439 57.8979L30.8871 57.0563L31.958 57.3402L31.3353 58.1545L30.2439 57.8979ZM40.255 66.7457L40.2824 66.9716L39.4099 68.0356L39.3346 67.2761L40.255 66.7457ZM37.4323 78.0638L37.9832 75.7133L41.6373 70.9404L42.0444 71.6452L37.4323 78.0638ZM49.2876 69.6266C49.2712 69.4761 49.2235 69.3308 49.1475 69.2C49.0715 69.0691 48.9688 68.9557 48.8462 68.867L49.2328 67.4232L50.1463 68.1075L49.4415 70.783L49.2876 69.6266ZM57.7214 69.5992C57.7214 69.5992 57.7214 69.6197 57.7214 69.63L56.9789 68.4325L57.0953 68.039L57.9643 68.7233L57.7214 69.5992ZM64.075 66.8621L63.9757 65.8699L64.9201 66.123L65.0569 67.1495L64.075 66.8621ZM69.3303 52.3826L69.255 52.3655H69.3234C69.4737 52.3486 69.6188 52.3006 69.7496 52.2246C69.8803 52.1486 69.9939 52.0463 70.083 51.9241L70.8768 52.1363L69.3303 52.3826Z" fill="white"/>
<g style="mix-blend-mode:multiply">
<path d="M38.6225 17.3881L35.4132 29.435C35.375 29.5788 35.3657 29.7288 35.3858 29.8763L37.0144 42.1045C37.0479 42.3675 37.173 42.6103 37.3676 42.7904C37.5622 42.9704 37.814 43.0763 38.0788 43.0893C38.3436 43.1024 38.6046 43.0218 38.8159 42.8618C39.0273 42.7017 39.1756 42.4724 39.2349 42.214L42.0576 30.1945C42.0843 30.0721 42.0923 29.9464 42.0815 29.8216L40.8532 17.566C40.8383 17.2931 40.7249 17.0349 40.5341 16.8393C40.3433 16.6436 40.088 16.5238 39.8156 16.5021C39.5432 16.4804 39.2721 16.5582 39.0527 16.7211C38.8333 16.8841 38.6804 17.121 38.6225 17.3881Z" fill="#8400D1"/>
<path d="M36.0595 56.5365L32.8365 68.6004C32.7984 68.7443 32.7891 68.8943 32.8091 69.0418L34.4377 81.2597C34.4713 81.5227 34.5963 81.7655 34.7909 81.9456C34.9855 82.1256 35.2373 82.2315 35.5021 82.2445C35.7669 82.2576 36.0279 82.177 36.2393 82.017C36.4507 81.8569 36.599 81.6276 36.6582 81.3692L39.4809 69.3497C39.5077 69.2273 39.5158 69.1016 39.5049 68.9768L38.2766 56.7246C38.2535 56.4596 38.1376 56.2112 37.9493 56.0232C37.761 55.8353 37.5123 55.7199 37.2472 55.6974C36.9821 55.6749 36.7176 55.7467 36.5003 55.9003C36.283 56.0538 36.1269 56.2791 36.0595 56.5365Z" fill="#8400D1"/>
<path d="M5.45858 48.1742L17.5054 51.3972C17.6491 51.4364 17.7991 51.4468 17.9468 51.428L30.175 49.7994C30.4369 49.7638 30.6781 49.6376 30.8568 49.4429C31.0356 49.2481 31.1405 48.9969 31.1535 48.7329C31.1665 48.4689 31.0867 48.2086 30.928 47.9972C30.7693 47.7858 30.5416 47.6366 30.2844 47.5755L18.265 44.7562C18.1431 44.726 18.0168 44.7179 17.892 44.7322L5.64676 45.9571C5.38171 45.9802 5.1333 46.0961 4.94536 46.2844C4.75742 46.4727 4.64203 46.7214 4.61953 46.9865C4.59702 47.2516 4.66886 47.5161 4.82237 47.7334C4.97588 47.9507 5.2012 48.1068 5.45858 48.1742Z" fill="#8400D1"/>
<path d="M44.6068 50.7368L56.6537 53.9598C56.797 54.0006 56.9474 54.0111 57.095 53.9905L69.3232 52.3619C69.5851 52.3263 69.8264 52.2002 70.0051 52.0054C70.1838 51.8107 70.2888 51.5595 70.3018 51.2955C70.3147 51.0314 70.235 50.7712 70.0763 50.5598C69.9175 50.3484 69.6898 50.1992 69.4327 50.138L57.4132 47.3188C57.2925 47.2884 57.1673 47.2803 57.0437 47.2948L44.7881 48.5197C44.5235 48.5439 44.2758 48.6607 44.0888 48.8495C43.9018 49.0384 43.7874 49.2871 43.7657 49.552C43.7441 49.8169 43.8165 50.0809 43.9704 50.2977C44.1242 50.5144 44.3496 50.6699 44.6068 50.7368Z" fill="#8400D1"/>
<path d="M15.6652 25.9142L21.9024 36.7088C21.9769 36.8412 22.0769 36.9575 22.1967 37.051L31.9922 44.537C32.2021 44.6992 32.4624 44.7823 32.7275 44.7718C32.9926 44.7612 33.2454 44.6577 33.4418 44.4793C33.6381 44.3009 33.7654 44.0591 33.8012 43.7962C33.8371 43.5334 33.7793 43.2663 33.6379 43.0419L27.1372 32.5484C27.0723 32.443 26.9902 32.3494 26.8943 32.2712L17.3588 24.4635C17.1541 24.2896 16.894 24.1943 16.6254 24.1948C16.3568 24.1954 16.0971 24.2916 15.8931 24.4664C15.6891 24.6412 15.5541 24.8829 15.5123 25.1483C15.4705 25.4137 15.5247 25.6852 15.6652 25.9142Z" fill="#8400D1"/>
<path d="M41.5341 55.4069L47.7748 66.2049C47.8453 66.339 47.9446 66.4558 48.0656 66.547L57.8646 74.0434C58.0745 74.2055 58.3348 74.2887 58.5999 74.2781C58.8649 74.2675 59.1178 74.164 59.3141 73.9856C59.5105 73.8072 59.6378 73.5654 59.6736 73.3026C59.7095 73.0397 59.6516 72.7727 59.5103 72.5482L53.0096 62.0547C52.9447 61.9483 52.8626 61.8535 52.7666 61.7741L43.2311 53.9767C43.0272 53.8102 42.7715 53.7202 42.5083 53.7222C42.245 53.7242 41.9907 53.8182 41.7894 53.9879C41.5881 54.1575 41.4524 54.3922 41.4058 54.6513C41.3592 54.9104 41.4046 55.1777 41.5341 55.4069Z" fill="#8400D1"/>
<path d="M13.9842 71.1318L24.7822 64.8946C24.9132 64.8196 25.0292 64.721 25.1244 64.6038L32.6173 54.8048C32.7801 54.5952 32.864 54.335 32.8541 54.0698C32.8441 53.8046 32.7411 53.5514 32.5631 53.3546C32.3851 53.1578 32.1434 53.0299 31.8805 52.9936C31.6176 52.9572 31.3503 53.0146 31.1255 53.1557L20.632 59.6564C20.5256 59.7225 20.4308 59.8057 20.3515 59.9027L12.5438 69.4382C12.375 69.6427 12.2835 69.9001 12.2854 70.1653C12.2874 70.4305 12.3826 70.6865 12.5544 70.8885C12.7262 71.0906 12.9636 71.2256 13.2251 71.2701C13.4865 71.3146 13.7553 71.2657 13.9842 71.1318Z" fill="#8400D1"/>
<path d="M43.4779 45.2627L54.276 39.0255C54.4092 38.9522 54.5257 38.852 54.6181 38.7312L62.1007 28.9357C62.2603 28.7253 62.3412 28.4657 62.3296 28.2019C62.318 27.9381 62.2146 27.6866 62.0372 27.491C61.8598 27.2953 61.6197 27.1678 61.3583 27.1305C61.0968 27.0932 60.8306 27.1484 60.6056 27.2866L50.1258 33.7907C50.0185 33.8558 49.9236 33.9391 49.8452 34.037L42.0478 43.5691C41.8835 43.7733 41.7953 44.0283 41.7984 44.2903C41.8015 44.5524 41.8957 44.8052 42.0648 45.0054C42.2338 45.2057 42.4673 45.3408 42.7252 45.3878C42.983 45.4347 43.2491 45.3905 43.4779 45.2627Z" fill="#8400D1"/>
<g style="mix-blend-mode:multiply">
<path d="M50.7613 20.2593L43.1726 30.1575C43.0809 30.2749 43.0145 30.4101 42.9776 30.5544L39.8025 42.4747C39.7362 42.7299 39.761 43.0003 39.8728 43.2392C39.9845 43.4781 40.1761 43.6706 40.4145 43.7833C40.653 43.896 40.9233 43.922 41.1788 43.8567C41.4344 43.7915 41.6591 43.6391 41.8143 43.4258L49.0198 33.401C49.0921 33.2962 49.1475 33.1808 49.1841 33.0589L52.7389 21.2687C52.814 21.0158 52.7981 20.7447 52.6942 20.5024C52.5902 20.26 52.4047 20.0617 52.1698 19.9418C51.9349 19.8219 51.6654 19.788 51.4082 19.846C51.1509 19.904 50.9221 20.0503 50.7613 20.2593Z" fill="#8400D1"/>
<path d="M33.4112 55.4486L25.8327 65.3434C25.7416 65.4612 25.6752 65.5962 25.6377 65.7403L22.4626 77.6605C22.4021 77.9131 22.4301 78.1787 22.5421 78.413C22.6541 78.6473 22.8433 78.836 23.0778 78.9475C23.3124 79.059 23.5781 79.0864 23.8305 79.0253C24.0829 78.9641 24.3066 78.8181 24.4642 78.6117L31.6697 68.6006C31.7422 68.496 31.7976 68.3805 31.8339 68.2585L35.3888 56.4648C35.4669 56.2113 35.4533 55.9385 35.3503 55.694C35.2474 55.4496 35.0617 55.2492 34.8258 55.128C34.5899 55.0068 34.3189 54.9725 34.0602 55.0311C33.8015 55.0897 33.5718 55.2376 33.4112 55.4486Z" fill="#8400D1"/>
<path d="M8.33873 36.0116L18.2335 43.6003C18.3513 43.6914 18.4863 43.7578 18.6304 43.7953L30.5506 46.9704C30.8059 47.0367 31.0763 47.0119 31.3152 46.9001C31.5541 46.7884 31.7465 46.5968 31.8593 46.3584C31.972 46.1199 31.998 45.8496 31.9327 45.5941C31.8674 45.3385 31.715 45.1138 31.5018 44.9586L21.477 37.7531C21.3728 37.6799 21.2572 37.6244 21.1349 37.5888L9.3549 34.0442C9.10401 33.9723 8.83595 33.9895 8.59631 34.0929C8.35666 34.1963 8.16025 34.3795 8.04047 34.6114C7.92069 34.8433 7.88495 35.1095 7.93933 35.3648C7.99371 35.6201 8.13485 35.8486 8.33873 36.0116Z" fill="#8400D1"/>
<path d="M43.5245 53.3614L53.4227 60.9501C53.5401 61.0419 53.6752 61.1083 53.8196 61.1452L65.7398 64.3202C65.9951 64.3866 66.2655 64.3617 66.5044 64.25C66.7433 64.1382 66.9357 63.9466 67.0484 63.7082C67.1612 63.4698 67.1871 63.1995 67.1219 62.9439C67.0566 62.6884 66.9042 62.4636 66.691 62.3084L56.6662 55.1029C56.5614 55.0307 56.4459 54.9753 56.324 54.9387L44.5338 51.3838C44.281 51.3088 44.0099 51.3246 43.7675 51.4286C43.5251 51.5325 43.3268 51.7181 43.2069 51.953C43.087 52.1879 43.0531 52.4573 43.1111 52.7146C43.1692 52.9718 43.3154 53.2007 43.5245 53.3614Z" fill="#8400D1"/>
<path d="M26.2875 19.3489L27.9195 31.7139C27.9393 31.8612 27.9882 32.0031 28.0632 32.1314L34.2458 42.8062C34.3772 43.0369 34.5857 43.2139 34.8347 43.3061C35.0837 43.3982 35.3572 43.3997 35.6072 43.3103C35.8571 43.2208 36.0676 43.0462 36.2016 42.8169C36.3355 42.5877 36.3844 42.3186 36.3397 42.0569L34.3484 29.8732C34.3267 29.7536 34.2863 29.6381 34.2287 29.5311L28.4122 18.6783C28.2912 18.4396 28.0894 18.2517 27.8427 18.148C27.596 18.0443 27.3205 18.0316 27.0654 18.1122C26.8102 18.1927 26.5919 18.3613 26.4494 18.5878C26.307 18.8143 26.2496 19.084 26.2875 19.3489Z" fill="#8400D1"/>
<path d="M38.8995 56.4987L40.5452 68.8637C40.565 69.011 40.6139 69.1529 40.6889 69.2811L46.8749 79.956C47.0063 80.1867 47.2148 80.3636 47.4638 80.4558C47.7128 80.548 47.9863 80.5495 48.2363 80.4601C48.4862 80.3706 48.6967 80.1959 48.8307 79.9667C48.9646 79.7375 49.0135 79.4684 48.9688 79.2067L46.9741 67.023C46.9523 66.9034 46.9119 66.7879 46.8543 66.6808L41.0379 55.8281C40.9239 55.5773 40.7221 55.377 40.4706 55.2646C40.2191 55.1523 39.9352 55.1358 39.6723 55.2182C39.4095 55.3007 39.1859 55.4763 39.0435 55.7122C38.9012 55.948 38.85 56.2277 38.8995 56.4987Z" fill="#8400D1"/>
<path d="M7.42887 60.4851L19.7939 58.853C19.9405 58.8323 20.082 58.7848 20.2113 58.7128L30.8862 52.52C31.1126 52.386 31.2853 52.1773 31.3747 51.9299C31.464 51.6824 31.4644 51.4115 31.3757 51.1638C31.2871 50.916 31.1149 50.7069 30.8889 50.5723C30.6628 50.4377 30.3969 50.386 30.1369 50.4261L17.9634 52.4242C17.8437 52.4456 17.7282 52.486 17.6213 52.5439L6.76854 58.3604C6.53174 58.4815 6.34532 58.6824 6.24217 58.9276C6.13901 59.1728 6.12573 59.4465 6.20468 59.7006C6.28363 59.9546 6.44973 60.1726 6.67369 60.3161C6.89765 60.4596 7.1651 60.5195 7.42887 60.4851Z" fill="#8400D1"/>
<path d="M44.5789 47.8732L56.944 46.2412C57.0911 46.2209 57.2329 46.1721 57.3614 46.0975L68.0362 39.915C68.2728 39.7859 68.4556 39.5767 68.5518 39.325C68.648 39.0732 68.6512 38.7954 68.5609 38.5415C68.4707 38.2875 68.2928 38.0741 68.0593 37.9396C67.8258 37.805 67.5519 37.7582 67.2869 37.8074L55.0998 39.8021C54.9803 39.8244 54.865 39.8647 54.7577 39.9218L43.9083 45.7383C43.6609 45.8543 43.464 46.0562 43.3541 46.3063C43.2442 46.5565 43.2288 46.8381 43.3107 47.0988C43.3926 47.3595 43.5662 47.5817 43.7994 47.7241C44.0327 47.8665 44.3096 47.9195 44.5789 47.8732Z" fill="#8400D1"/>
</g>
</g>
<g style="mix-blend-mode:multiply">
<path d="M63.5068 18.4113L60.2838 30.4581C60.2446 30.6018 60.2342 30.7517 60.253 30.8995L61.8816 43.1276C61.9172 43.3896 62.0433 43.6308 62.2381 43.8095C62.4329 43.9882 62.6841 44.0932 62.9481 44.1062C63.2121 44.1192 63.4724 44.0394 63.6838 43.8807C63.8952 43.722 64.0444 43.4943 64.1055 43.2371L66.9248 31.2177C66.955 31.0958 66.9631 30.9695 66.9487 30.8447L65.7239 18.5926C65.6996 18.3279 65.5828 18.0803 65.394 17.8933C65.2052 17.7062 64.9564 17.5918 64.6915 17.5702C64.4266 17.5485 64.1626 17.621 63.9459 17.7748C63.7292 17.9287 63.5737 18.154 63.5068 18.4113Z" fill="#8400D1"/>
<path d="M60.9435 57.5593L57.7205 69.6061C57.6796 69.7495 57.6691 69.8998 57.6897 70.0475L59.3183 82.2859C59.3539 82.5479 59.48 82.7891 59.6748 82.9678C59.8696 83.1466 60.1207 83.2515 60.3848 83.2645C60.6488 83.2775 60.9091 83.1977 61.1204 83.039C61.3318 82.8803 61.481 82.6526 61.5422 82.3954L64.3615 70.376C64.3899 70.2538 64.398 70.1278 64.3854 70.003L63.1605 57.7509C63.1381 57.4856 63.0226 57.2369 62.8346 57.0485C62.6465 56.86 62.3979 56.7442 62.1327 56.7212C61.8675 56.6983 61.6027 56.7698 61.3851 56.9232C61.1675 57.0765 61.0111 57.3018 60.9435 57.5593Z" fill="#8400D1"/>
<path d="M30.3425 49.2009L42.3894 52.4239C42.5332 52.462 42.6832 52.4713 42.8307 52.4512L55.0589 50.809C55.3208 50.7733 55.5621 50.6472 55.7408 50.4525C55.9195 50.2577 56.0245 50.0065 56.0375 49.7425C56.0505 49.4785 55.9707 49.2182 55.812 49.0068C55.6532 48.7954 55.4256 48.6462 55.1684 48.585L43.1455 45.7795C43.0245 45.751 42.8996 45.7429 42.776 45.7555L30.5204 46.9804C30.257 47.0073 30.0113 47.1258 29.8261 47.3151C29.6409 47.5044 29.5279 47.7526 29.5068 48.0165C29.4856 48.2805 29.5577 48.5436 29.7104 48.7599C29.863 48.9763 30.0867 49.1323 30.3425 49.2009Z" fill="#8400D1"/>
<path d="M69.4902 51.7634L81.537 54.9863C81.6809 55.0245 81.8309 55.0338 81.9784 55.0137L94.2065 53.3851C94.4695 53.3516 94.7124 53.2265 94.8924 53.0319C95.0725 52.8373 95.1783 52.5855 95.1914 52.3207C95.2044 52.0559 95.1239 51.7949 94.9638 51.5836C94.8038 51.3722 94.5745 51.2239 94.316 51.1646L82.2863 48.3419C82.1641 48.3135 82.0381 48.3054 81.9134 48.318L69.6578 49.5463C69.3939 49.5728 69.1477 49.6914 68.9625 49.8812C68.7773 50.0711 68.6648 50.3201 68.6448 50.5846C68.6248 50.849 68.6986 51.1121 68.8531 51.3277C69.0077 51.5432 69.2332 51.6975 69.4902 51.7634Z" fill="#8400D1"/>
<path d="M40.5455 26.9377L46.7828 37.7357C46.8578 37.8667 46.9564 37.9827 47.0736 38.0778L56.8726 45.5708C57.0821 45.7336 57.3423 45.8174 57.6075 45.8075C57.8728 45.7976 58.126 45.6946 58.3228 45.5166C58.5196 45.3385 58.6474 45.0969 58.6838 44.834C58.7202 44.5711 58.6628 44.3038 58.5217 44.079L52.021 33.5821C51.9549 33.4767 51.8716 33.383 51.7747 33.305L42.2562 25.4904C42.0538 25.3039 41.7903 25.1977 41.5151 25.1919C41.2399 25.1861 40.972 25.281 40.7619 25.4587C40.5518 25.6365 40.4138 25.8849 40.374 26.1573C40.3341 26.4296 40.3951 26.7072 40.5455 26.9377Z" fill="#8400D1"/>
<path d="M66.4183 56.4301L72.6555 67.2315C72.7288 67.3648 72.829 67.4813 72.9498 67.5737L82.7453 75.07C82.9558 75.2295 83.2153 75.3105 83.4792 75.2989C83.743 75.2873 83.9944 75.1838 84.1901 75.0065C84.3857 74.8291 84.5132 74.589 84.5505 74.3275C84.5878 74.0661 84.5326 73.7999 84.3944 73.5749L77.8937 63.0814C77.8287 62.9741 77.7453 62.8792 77.6474 62.8008L68.1153 55.0034C67.9115 54.8383 67.6566 54.7494 67.3944 54.7518C67.1321 54.7542 66.8789 54.8478 66.6781 55.0166C66.4774 55.1853 66.3417 55.4187 66.2942 55.6766C66.2468 55.9346 66.2907 56.201 66.4183 56.4301Z" fill="#8400D1"/>
<path d="M38.8684 72.1582L49.663 65.9176C49.7944 65.8432 49.9105 65.7445 50.0051 65.6267L57.498 55.8278C57.6575 55.6173 57.7385 55.3578 57.7269 55.094C57.7153 54.8301 57.6118 54.5787 57.4345 54.3831C57.2571 54.1874 57.0169 54.0599 56.7555 54.0226C56.4941 53.9853 56.2279 54.0405 56.0029 54.1787L45.5093 60.6794C45.4047 60.7466 45.3112 60.8297 45.2322 60.9257L37.4314 70.4578C37.2644 70.6626 37.1742 70.9192 37.1766 71.1834C37.1789 71.4476 37.2735 71.7027 37.444 71.9045C37.6146 72.1063 37.8503 72.2421 38.1104 72.2885C38.3705 72.3348 38.6386 72.2887 38.8684 72.1582Z" fill="#8400D1"/>
<path d="M68.3617 46.2859L79.1597 40.0487C79.292 39.9755 79.4084 39.8767 79.5018 39.7579L86.9982 29.9589C87.1577 29.7484 87.2386 29.4889 87.227 29.2251C87.2154 28.9613 87.112 28.7098 86.9346 28.5142C86.7573 28.3185 86.5171 28.191 86.2557 28.1537C85.9943 28.1164 85.728 28.1716 85.503 28.3098L75.0095 34.8105C74.903 34.8766 74.8083 34.9598 74.729 35.0568L66.9315 44.5889C66.765 44.7928 66.675 45.0485 66.677 45.3118C66.6791 45.575 66.7731 45.8293 66.9427 46.0306C67.1124 46.2319 67.347 46.3676 67.6061 46.4143C67.8652 46.4609 68.1325 46.4155 68.3617 46.2859Z" fill="#8400D1"/>
<g style="mix-blend-mode:multiply">
<path d="M75.6424 21.2853L68.0571 31.18C67.9656 31.298 67.8981 31.4329 67.8586 31.5769L64.687 43.4971C64.618 43.7527 64.641 44.0243 64.7519 44.2646C64.8628 44.5049 65.0546 44.6986 65.2938 44.8119C65.5329 44.9251 65.8043 44.9508 66.0605 44.8843C66.3167 44.8179 66.5414 44.6636 66.6954 44.4483L73.9043 34.4235C73.9765 34.3187 74.0319 34.2033 74.0685 34.0814L77.6234 22.2911C77.699 22.0378 77.6833 21.7659 77.579 21.5229C77.4747 21.2799 77.2885 21.0812 77.0527 20.9615C76.8169 20.8417 76.5466 20.8086 76.2888 20.8677C76.0311 20.9269 75.8023 21.0747 75.6424 21.2853Z" fill="#8400D1"/>
<path d="M58.293 56.4712L50.7077 66.366C50.6166 66.4838 50.5502 66.6188 50.5127 66.7629L47.3376 78.6831C47.2686 78.9386 47.2916 79.2103 47.4025 79.4506C47.5134 79.6909 47.7052 79.8846 47.9444 79.9979C48.1836 80.1111 48.455 80.1368 48.7111 80.0703C48.9673 80.0039 49.192 79.8495 49.346 79.6343L56.5549 69.6266C56.6281 69.5224 56.6836 69.4068 56.7192 69.2845L60.274 57.4908C60.3509 57.2372 60.3364 56.9647 60.2331 56.7207C60.1297 56.4767 59.9441 56.2766 59.7085 56.1553C59.4729 56.0341 59.2022 55.9993 58.9436 56.057C58.6849 56.1147 58.4547 56.2613 58.293 56.4712Z" fill="#8400D1"/>
<path d="M33.2233 37.0379L43.1181 44.6232C43.2358 44.7144 43.3709 44.7807 43.515 44.8182L55.4352 47.9933C55.6907 48.0623 55.9624 48.0393 56.2027 47.9284C56.443 47.8175 56.6367 47.6257 56.7499 47.3865C56.8632 47.1473 56.8889 46.8759 56.8224 46.6198C56.756 46.3636 56.6016 46.1389 56.3864 45.9849L46.3616 38.776C46.2566 38.7042 46.1412 38.6488 46.0195 38.6117L34.2361 35.0706C33.9855 35 33.7182 35.0182 33.4795 35.1221C33.2408 35.226 33.0454 35.4092 32.9262 35.6406C32.8071 35.8721 32.7716 36.1376 32.8257 36.3922C32.8799 36.6468 33.0203 36.8749 33.2233 37.0379Z" fill="#8400D1"/>
<path d="M68.4101 54.3842L78.3083 61.9729C78.4252 62.0654 78.5605 62.1318 78.7051 62.1679L90.6254 65.343C90.8809 65.412 91.1525 65.389 91.3928 65.2781C91.6331 65.1672 91.8268 64.9754 91.9401 64.7362C92.0534 64.4971 92.079 64.2257 92.0126 63.9695C91.9461 63.7133 91.7918 63.4886 91.5765 63.3346L81.5483 56.1257C81.4441 56.0525 81.3285 55.997 81.2062 55.9615L69.416 52.4066C69.1635 52.3331 68.8932 52.35 68.6518 52.4544C68.4105 52.5589 68.2131 52.7443 68.0939 52.9788C67.9747 53.2132 67.941 53.4819 67.9987 53.7384C68.0564 53.995 68.2019 54.2234 68.4101 54.3842Z" fill="#8400D1"/>
<path d="M51.1688 20.3754L52.8008 32.737C52.8211 32.8852 52.8699 33.0281 52.9445 33.1578L59.1305 43.8293C59.2619 44.0599 59.4704 44.2369 59.7194 44.3291C59.9684 44.4213 60.2419 44.4228 60.4919 44.3334C60.7418 44.2439 60.9523 44.0692 61.0863 43.84C61.2202 43.6108 61.2691 43.3417 61.2244 43.08L59.2297 30.8963C59.2094 30.7763 59.1689 30.6606 59.1099 30.5541L53.2935 19.7014C53.1696 19.4666 52.9671 19.2827 52.7215 19.182C52.4758 19.0813 52.2026 19.0701 51.9495 19.1504C51.6964 19.2307 51.4796 19.3974 51.3369 19.6213C51.1942 19.8452 51.1347 20.1121 51.1688 20.3754Z" fill="#8400D1"/>
<path d="M63.7844 57.5252L65.4165 69.8868C65.4363 70.0341 65.4851 70.176 65.5602 70.3042L71.7427 80.9791C71.8742 81.2091 72.0824 81.3855 72.3308 81.4775C72.5793 81.5695 72.8522 81.5712 73.1017 81.4823C73.3513 81.3934 73.5617 81.2195 73.696 80.9912C73.8304 80.7628 73.8801 80.4945 73.8366 80.2332L71.8453 68.0495C71.8236 67.9299 71.7832 67.8144 71.7256 67.7073L65.9092 56.8546C65.7852 56.6203 65.5831 56.437 65.3379 56.3364C65.0927 56.2359 64.82 56.2245 64.5673 56.3042C64.3145 56.384 64.0978 56.5499 63.9548 56.773C63.8117 56.996 63.7515 57.2622 63.7844 57.5252Z" fill="#8400D1"/>
<path d="M32.3137 61.5078L44.6753 59.8757C44.8237 59.8582 44.9669 59.8104 45.0961 59.7355L55.7675 53.5461C55.9982 53.4147 56.1752 53.2061 56.2674 52.9572C56.3596 52.7082 56.3611 52.4347 56.2716 52.1847C56.1822 51.9347 56.0075 51.7243 55.7783 51.5903C55.5491 51.4563 55.28 51.4074 55.0183 51.4522L42.8346 53.4469C42.7146 53.4671 42.5989 53.5076 42.4924 53.5666L31.6397 59.3831C31.4003 59.504 31.2119 59.7061 31.108 59.9533C31.0041 60.2005 30.9916 60.4766 31.0726 60.7322C31.1537 60.9878 31.3231 61.2062 31.5505 61.3483C31.7779 61.4904 32.0484 61.5469 32.3137 61.5078Z" fill="#8400D1"/>
<path d="M69.4635 48.8967L81.8251 47.2647C81.9734 47.2443 82.1163 47.1956 82.246 47.121L92.9174 40.9384C93.1481 40.807 93.3251 40.5985 93.4173 40.3495C93.5095 40.1005 93.511 39.827 93.4215 39.577C93.332 39.3271 93.1574 39.1166 92.9281 38.9826C92.6989 38.8487 92.4298 38.7998 92.1681 38.8445L79.9844 40.8358C79.8648 40.8575 79.7493 40.8979 79.6423 40.9555L68.7895 46.772C68.5547 46.8959 68.3709 47.0984 68.2702 47.344C68.1695 47.5897 68.1583 47.8629 68.2386 48.116C68.3188 48.3691 68.4855 48.5859 68.7094 48.7286C68.9333 48.8713 69.2002 48.9308 69.4635 48.8967Z" fill="#8400D1"/>
</g>
</g>
<g style="mix-blend-mode:multiply">
<path d="M16.8759 61.186L28.9125 64.4089C29.0564 64.4471 29.2064 64.4564 29.3539 64.4363L41.582 62.8077C41.845 62.7742 42.0879 62.6491 42.2679 62.4545C42.448 62.2599 42.5538 62.0081 42.5669 61.7433C42.5799 61.4785 42.4994 61.2175 42.3393 61.0062C42.1793 60.7948 41.9499 60.6465 41.6915 60.5872L29.6721 57.7645C29.5511 57.7361 29.4262 57.7281 29.3025 57.7406L17.047 58.9689C16.7829 58.9948 16.5364 59.113 16.3507 59.3026C16.165 59.4922 16.0521 59.7411 16.0317 60.0057C16.0113 60.2703 16.0847 60.5336 16.2391 60.7494C16.3935 60.9652 16.6189 61.1198 16.8759 61.186Z" fill="#8400D1"/>
<path d="M56.0243 63.7485L68.0711 66.9715C68.215 67.0096 68.365 67.0189 68.5125 66.9989L80.7407 65.3703C81.0037 65.3367 81.2465 65.2117 81.4266 65.0171C81.6066 64.8224 81.7125 64.5707 81.7255 64.3059C81.7386 64.041 81.658 63.7801 81.498 63.5687C81.3379 63.3573 81.1086 63.209 80.8502 63.1498L68.8307 60.3271C68.7097 60.2986 68.5848 60.2905 68.4612 60.3031L56.2056 61.5314C55.941 61.5556 55.6933 61.6724 55.5063 61.8613C55.3193 62.0501 55.2049 62.2989 55.1832 62.5637C55.1615 62.8286 55.234 63.0927 55.3879 63.3094C55.5417 63.5261 55.7671 63.6816 56.0243 63.7485Z" fill="#8400D1"/>
<path d="M47.665 94.3498L50.888 82.303C50.9261 82.1591 50.9354 82.0091 50.9154 81.8616L49.2868 69.6266C49.2532 69.3636 49.1282 69.1208 48.9336 68.9407C48.739 68.7606 48.4872 68.6548 48.2224 68.6418C47.9576 68.6287 47.6966 68.7092 47.4852 68.8693C47.2738 69.0293 47.1255 69.2587 47.0663 69.5171L44.2436 81.5366C44.2151 81.6576 44.207 81.7824 44.2196 81.9061L45.4479 94.1616C45.471 94.4267 45.5869 94.6751 45.7752 94.863C45.9635 95.051 46.2122 95.1664 46.4773 95.1889C46.7424 95.2114 47.0069 95.1395 47.2242 94.986C47.4415 94.8325 47.5976 94.6072 47.665 94.3498Z" fill="#8400D1"/>
<path d="M50.2282 55.1987L53.4511 43.1518C53.4894 43.008 53.4987 42.858 53.4785 42.7105L51.8362 30.4857C51.8027 30.2227 51.6777 29.9799 51.483 29.7998C51.2884 29.6198 51.0367 29.5139 50.7718 29.5009C50.507 29.4878 50.2461 29.5684 50.0347 29.7284C49.8233 29.8885 49.675 30.1178 49.6157 30.3762L46.7931 42.3957C46.7663 42.5169 46.7582 42.6415 46.7691 42.7652L47.9974 55.0208C48.0123 55.2936 48.1257 55.5519 48.3165 55.7475C48.5073 55.9432 48.7626 56.063 49.035 56.0847C49.3074 56.1064 49.5785 56.0286 49.7979 55.8657C50.0173 55.7027 50.1702 55.4657 50.2282 55.1987Z" fill="#8400D1"/>
<path d="M25.4015 84.1441L36.1995 77.9034C36.3319 77.8303 36.4482 77.7314 36.5417 77.6126L44.038 67.8136C44.1975 67.6032 44.2785 67.3436 44.2669 67.0798C44.2553 66.816 44.1519 66.5645 43.9745 66.3689C43.7971 66.1733 43.557 66.0458 43.2955 66.0084C43.0341 65.9711 42.7679 66.0263 42.5429 66.1645L32.0494 72.6652C31.943 72.7301 31.8482 72.8121 31.7688 72.9081L23.9611 82.4471C23.7949 82.6522 23.7056 82.909 23.7086 83.173C23.7116 83.437 23.8067 83.6916 23.9776 83.8929C24.1484 84.0942 24.3842 84.2295 24.6443 84.2753C24.9043 84.3212 25.1721 84.2748 25.4015 84.1441Z" fill="#8400D1"/>
<path d="M54.9157 58.2745L65.7103 52.0338C65.8418 51.9594 65.9579 51.8607 66.0525 51.743L73.5454 41.944C73.7049 41.7335 73.7858 41.474 73.7742 41.2102C73.7626 40.9464 73.6592 40.6949 73.4818 40.4993C73.3045 40.3036 73.0643 40.1761 72.8029 40.1388C72.5415 40.1015 72.2752 40.1567 72.0502 40.2949L61.5567 46.7956C61.4521 46.8628 61.3586 46.9459 61.2796 47.0419L53.4787 56.574C53.3117 56.7788 53.2216 57.0355 53.2239 57.2997C53.2262 57.5639 53.3208 57.8189 53.4914 58.0207C53.6619 58.2225 53.8976 58.3584 54.1578 58.4047C54.4179 58.451 54.686 58.405 54.9157 58.2745Z" fill="#8400D1"/>
<path d="M70.6236 85.8242L64.3829 75.0262C64.3109 74.8931 64.2118 74.7766 64.0921 74.684L54.2931 67.198C54.0827 67.0385 53.8231 66.9575 53.5593 66.9691C53.2955 66.9807 53.044 67.0841 52.8484 67.2615C52.6528 67.4389 52.5253 67.679 52.4879 67.9404C52.4506 68.2019 52.5058 68.4681 52.644 68.6931L59.1447 79.1866C59.2095 79.293 59.2916 79.3878 59.3876 79.4672L68.9437 87.2646C69.1498 87.4204 69.4031 87.501 69.6614 87.4931C69.9196 87.4851 70.1674 87.389 70.3636 87.2208C70.5598 87.0526 70.6925 86.8224 70.7398 86.5684C70.7871 86.3143 70.7461 86.0517 70.6236 85.8242Z" fill="#8400D1"/>
<path d="M44.7542 56.3279L38.5135 45.5299C38.4384 45.3989 38.3398 45.2829 38.2227 45.1877L28.4237 37.7051C28.2141 37.5422 27.9539 37.4584 27.6887 37.4683C27.4235 37.4782 27.1703 37.5812 26.9735 37.7593C26.7766 37.9373 26.6488 38.179 26.6125 38.4419C26.5761 38.7047 26.6335 38.972 26.7746 39.1968L33.2753 49.6938C33.3425 49.7984 33.4256 49.8919 33.5216 49.9709L43.0537 57.7683C43.2586 57.9368 43.5161 58.0281 43.7813 58.0262C44.0466 58.0242 44.3027 57.9293 44.5051 57.7578C44.7075 57.5864 44.8433 57.3493 44.8888 57.088C44.9343 56.8267 44.8867 56.5577 44.7542 56.3279Z" fill="#8400D1"/>
<g style="mix-blend-mode:multiply">
<path d="M19.7501 49.0471L29.6449 56.6256C29.7635 56.7153 29.8982 56.7815 30.0417 56.8206L41.962 59.9957C42.2173 60.062 42.4877 60.0371 42.7266 59.9254C42.9655 59.8137 43.1579 59.6221 43.2706 59.3836C43.3833 59.1452 43.4093 58.8749 43.3441 58.6193C43.2788 58.3638 43.1264 58.139 42.9131 57.9839L32.8884 50.7783C32.7841 50.7051 32.6685 50.6496 32.5462 50.6141L20.7526 47.0558C20.4968 46.9748 20.2205 46.9876 19.9733 47.0918C19.726 47.196 19.524 47.3849 19.4033 47.6245C19.2827 47.8642 19.2513 48.139 19.3148 48.3997C19.3784 48.6603 19.5327 48.8899 19.7501 49.0471Z" fill="#8400D1"/>
<path d="M54.9361 66.3971L64.8377 73.9858C64.9559 74.0763 65.0908 74.1425 65.2346 74.1808L77.1549 77.3559C77.4101 77.4222 77.6806 77.3974 77.9195 77.2857C78.1584 77.1739 78.3508 76.9823 78.4635 76.7439C78.5762 76.5054 78.6022 76.2351 78.537 75.9796C78.4717 75.724 78.3193 75.4993 78.106 75.3441L68.0778 68.1386C67.9744 68.064 67.8586 68.0084 67.7357 67.9744L55.942 64.4161C55.6897 64.3451 55.4205 64.3639 55.1805 64.4692C54.9404 64.5745 54.7443 64.7598 54.6257 64.9935C54.507 65.2273 54.473 65.4949 54.5297 65.7509C54.5863 66.0068 54.7299 66.2352 54.9361 66.3971Z" fill="#8400D1"/>
<path d="M35.5021 91.4695L43.0909 81.5713C43.18 81.4523 43.2462 81.3177 43.2859 81.1745L46.461 69.2542C46.5273 68.9989 46.5025 68.7285 46.3907 68.4896C46.279 68.2507 46.0874 68.0583 45.8489 67.9456C45.6105 67.8328 45.3402 67.8069 45.0847 67.8721C44.8291 67.9374 44.6044 68.0898 44.4492 68.3031L37.2437 78.3278C37.169 78.4317 37.1123 78.5473 37.076 78.67L33.5211 90.4534C33.4458 90.7066 33.4614 90.9783 33.5652 91.2213C33.6691 91.4643 33.8546 91.6634 34.0897 91.784C34.3249 91.9046 34.5948 91.9392 34.8527 91.8817C35.1106 91.8243 35.3404 91.6785 35.5021 91.4695Z" fill="#8400D1"/>
<path d="M52.8624 56.2837L60.4512 46.3889C60.5396 46.2695 60.6057 46.1351 60.6462 45.9921L63.811 34.0684C63.88 33.8129 63.857 33.5413 63.7461 33.301C63.6352 33.0607 63.4434 32.867 63.2042 32.7537C62.965 32.6404 62.6937 32.6147 62.4375 32.6812C62.1813 32.7476 61.9566 32.902 61.8026 33.1172L54.5971 43.142C54.5221 43.2457 54.4654 43.3614 54.4295 43.4842L50.8712 55.2573C50.7769 55.5155 50.7801 55.7992 50.8801 56.0553C50.9802 56.3113 51.1702 56.522 51.4145 56.648C51.6588 56.7739 51.9407 56.8064 52.2073 56.7394C52.4738 56.6723 52.7068 56.5103 52.8624 56.2837Z" fill="#8400D1"/>
<path d="M18.84 73.5205L31.2016 71.8884C31.3498 71.8681 31.4927 71.8193 31.6224 71.7447L42.2939 65.5622C42.5246 65.4308 42.7015 65.2223 42.7937 64.9733C42.8859 64.7243 42.8874 64.4508 42.798 64.2008C42.7085 63.9508 42.5338 63.7404 42.3046 63.6064C42.0754 63.4725 41.8063 63.4236 41.5446 63.4683L29.3609 65.4596C29.2413 65.4813 29.1258 65.5217 29.0187 65.5793L18.166 71.3958C17.9312 71.5197 17.7473 71.7221 17.6466 71.9678C17.5459 72.2135 17.5347 72.4867 17.615 72.7398C17.6953 72.9929 17.862 73.2097 18.0859 73.3524C18.3098 73.4951 18.5767 73.5546 18.84 73.5205Z" fill="#8400D1"/>
<path d="M55.9896 60.906L68.3512 59.2739C68.4996 59.2564 68.6428 59.2086 68.772 59.1337L79.4435 52.9477C79.6741 52.8163 79.8511 52.6078 79.9433 52.3588C80.0355 52.1098 80.037 51.8363 79.9475 51.5863C79.8581 51.3363 79.6834 51.1259 79.4542 50.9919C79.225 50.858 78.9559 50.8091 78.6942 50.8538L66.5105 52.8622C66.3905 52.8824 66.2748 52.9229 66.1683 52.9819L55.3156 58.7984C55.0884 58.9255 54.9122 59.1273 54.8167 59.3695C54.7212 59.6117 54.7124 59.8795 54.7917 60.1275C54.871 60.3754 55.0336 60.5884 55.2519 60.7303C55.4702 60.8721 55.7308 60.9342 55.9896 60.906Z" fill="#8400D1"/>
<path d="M59.9758 92.3795L58.3369 80.0144C58.3171 79.8671 58.2683 79.7253 58.1932 79.597L52.0073 68.9222C51.8758 68.6915 51.6673 68.5145 51.4183 68.4223C51.1694 68.3301 50.8959 68.3286 50.6459 68.4181C50.3959 68.5075 50.1854 68.6822 50.0515 68.9114C49.9175 69.1406 49.8686 69.4098 49.9134 69.6715L51.9081 81.8551C51.9298 81.9748 51.9702 82.0902 52.0278 82.1973L57.8442 93.05C57.9621 93.2943 58.164 93.4881 58.4129 93.5957C58.6619 93.7034 58.9413 93.7179 59.2 93.6365C59.4587 93.5551 59.6795 93.3833 59.822 93.1524C59.9644 92.9216 60.019 92.6472 59.9758 92.3795Z" fill="#8400D1"/>
<path d="M47.3605 55.2298L45.7285 42.8648C45.7087 42.7175 45.6599 42.5756 45.5848 42.4473L39.4023 31.7725C39.2709 31.5418 39.0623 31.3648 38.8134 31.2726C38.5644 31.1805 38.2909 31.179 38.0409 31.2684C37.7909 31.3579 37.5805 31.5325 37.4465 31.7618C37.3125 31.991 37.2636 32.2601 37.3084 32.5218L39.2997 44.7055C39.3214 44.8251 39.3618 44.9406 39.4194 45.0476L45.2358 55.9004C45.3568 56.1391 45.5587 56.327 45.8054 56.4307C46.052 56.5344 46.3275 56.5471 46.5827 56.4665C46.8379 56.386 47.0562 56.2174 47.1986 55.9909C47.3411 55.7644 47.3985 55.4947 47.3605 55.2298Z" fill="#8400D1"/>
</g>
</g>
<g style="mix-blend-mode:multiply">
<path d="M17.8988 36.3019L29.9388 39.518C30.0827 39.5561 30.2327 39.5655 30.3802 39.5454L42.6083 37.9168C42.8713 37.8832 43.1142 37.7582 43.2942 37.5636C43.4743 37.369 43.5801 37.1172 43.5932 36.8524C43.6062 36.5876 43.5257 36.3266 43.3656 36.1152C43.2056 35.9039 42.9762 35.7555 42.7178 35.6963L30.7052 32.8805C30.584 32.8537 30.4594 32.8456 30.3357 32.8565L18.0801 34.0848C17.8155 34.109 17.5678 34.2258 17.3808 34.4147C17.1938 34.6035 17.0794 34.8522 17.0577 35.1171C17.036 35.382 17.1085 35.6461 17.2624 35.8628C17.4162 36.0795 17.6416 36.235 17.8988 36.3019Z" fill="#8400D1"/>
<path d="M57.0499 38.8645L69.0967 42.0874C69.2406 42.1251 69.3903 42.1356 69.5381 42.1182L81.7662 40.4862C82.0291 40.4522 82.2716 40.3267 82.4513 40.1319C82.6309 39.937 82.7363 39.6851 82.749 39.4204C82.7616 39.1556 82.6807 38.8949 82.5204 38.6837C82.3602 38.4726 82.1307 38.3247 81.8723 38.2657L69.8528 35.4465C69.732 35.4169 69.6071 35.4076 69.4833 35.4191L57.2278 36.6474C56.9633 36.6722 56.716 36.7894 56.5295 36.9785C56.3429 37.1676 56.229 37.4164 56.2077 37.6812C56.1865 37.946 56.2593 38.2098 56.4133 38.4262C56.5673 38.6426 56.7927 38.7978 57.0499 38.8645Z" fill="#8400D1"/>
<path d="M48.6884 69.4655L51.9114 57.4187C51.9495 57.2748 51.9588 57.1248 51.9387 56.9773L50.3101 44.7491C50.2766 44.4861 50.1515 44.2433 49.9569 44.0633C49.7623 43.8832 49.5105 43.7774 49.2457 43.7643C48.9809 43.7513 48.72 43.8318 48.5086 43.9919C48.2972 44.1519 48.1489 44.3812 48.0896 44.6397L45.2669 56.6591C45.2401 56.7815 45.2321 56.9073 45.243 57.0321L46.4713 69.2842C46.4955 69.5489 46.6123 69.7965 46.8011 69.9835C46.99 70.1705 47.2387 70.2849 47.5036 70.3066C47.7685 70.3283 48.0325 70.2558 48.2493 70.102C48.466 69.9481 48.6215 69.7227 48.6884 69.4655Z" fill="#8400D1"/>
<path d="M51.2504 30.3178L54.4734 18.271C54.5115 18.1271 54.5208 17.9771 54.5007 17.8296L52.8619 5.60144C52.8283 5.33844 52.7033 5.09563 52.5087 4.91556C52.3141 4.7355 52.0623 4.62966 51.7975 4.61661C51.5327 4.60355 51.2717 4.6841 51.0603 4.84415C50.849 5.0042 50.7006 5.23353 50.6414 5.49196L47.8187 17.5114C47.7919 17.6338 47.7838 17.7596 47.7948 17.8844L49.023 30.1365C49.0401 30.4073 49.1541 30.6629 49.3442 30.8565C49.5343 31.0501 49.7878 31.1688 50.0583 31.1908C50.3287 31.2128 50.5981 31.1367 50.817 30.9764C51.0359 30.8161 51.1898 30.5823 51.2504 30.3178Z" fill="#8400D1"/>
<path d="M26.4251 59.2597L37.2231 53.0225C37.3564 52.9492 37.4729 52.849 37.5653 52.7282L45.0514 42.9395C45.2136 42.7296 45.2967 42.4693 45.2861 42.2042C45.2755 41.9392 45.172 41.6863 44.9936 41.49C44.8152 41.2936 44.5734 41.1663 44.3106 41.1305C44.0477 41.0946 43.7807 41.1524 43.5562 41.2938L33.0627 47.7945C32.9555 47.8596 32.8605 47.943 32.7821 48.0409L24.9847 57.5661C24.8159 57.7706 24.7244 58.028 24.7263 58.2932C24.7283 58.5584 24.8235 58.8144 24.9953 59.0164C25.1671 59.2184 25.4046 59.3535 25.666 59.398C25.9274 59.4425 26.1962 59.3935 26.4251 59.2597Z" fill="#8400D1"/>
<path d="M55.921 33.3903L66.719 27.1497C66.8515 27.0768 66.9679 26.9779 67.0611 26.8588L74.554 17.0599C74.7216 16.8496 74.8087 16.5865 74.7996 16.3178C74.7904 16.0491 74.6857 15.7924 74.5042 15.594C74.3228 15.3957 74.0764 15.2686 73.8096 15.2356C73.5428 15.2026 73.2729 15.2659 73.0486 15.4142L62.5517 21.9149C62.4464 21.9798 62.3527 22.0619 62.2746 22.1578L54.4805 31.6967C54.3117 31.9012 54.2203 32.1586 54.2222 32.4238C54.2241 32.689 54.3194 32.945 54.4912 33.1471C54.663 33.3491 54.9004 33.4841 55.1618 33.5286C55.4233 33.5731 55.692 33.5242 55.921 33.3903Z" fill="#8400D1"/>
<path d="M71.6455 60.9393L65.4048 50.1413C65.332 50.0087 65.2331 49.8923 65.114 49.7991L55.315 42.3062C55.1053 42.1456 54.8459 42.0637 54.5819 42.0747C54.318 42.0857 54.0663 42.1888 53.8705 42.3663C53.6748 42.5437 53.5475 42.7841 53.5107 43.0457C53.474 43.3073 53.5301 43.5735 53.6693 43.7979L60.1701 54.2949C60.2349 54.4002 60.3171 54.4939 60.413 54.572L69.969 62.3797C70.1747 62.5376 70.4285 62.6199 70.6877 62.6128C70.9469 62.6057 71.1957 62.5095 71.3924 62.3405C71.5891 62.1716 71.7216 61.94 71.7677 61.6848C71.8138 61.4297 71.7707 61.1664 71.6455 60.9393Z" fill="#8400D1"/>
<path d="M45.7769 31.447L39.5362 20.649C39.4657 20.5149 39.3664 20.398 39.2454 20.3068L29.4464 12.831C29.236 12.6715 28.9764 12.5906 28.7126 12.6022C28.4488 12.6138 28.1973 12.7172 28.0017 12.8946C27.8061 13.0719 27.6786 13.3121 27.6413 13.5735C27.6039 13.8349 27.6591 14.1012 27.7973 14.3262L34.3049 24.806C34.3697 24.9124 34.4518 25.0072 34.5478 25.0866L44.0799 32.884C44.2849 33.0488 44.5408 33.137 44.8038 33.1336C45.0668 33.1303 45.3204 33.0355 45.5211 32.8655C45.7219 32.6956 45.8572 32.461 45.9038 32.2022C45.9505 31.9434 45.9056 31.6764 45.7769 31.447Z" fill="#8400D1"/>
<g style="mix-blend-mode:multiply">
<path d="M20.7733 24.1624L30.668 31.7511C30.7858 31.8423 30.9208 31.9086 31.0649 31.9461L42.9852 35.1212C43.2404 35.1876 43.5108 35.1627 43.7497 35.051C43.9886 34.9392 44.1811 34.7476 44.2938 34.5092C44.4065 34.2708 44.4325 34.0004 44.3672 33.7449C44.302 33.4894 44.1496 33.2646 43.9363 33.1094L33.9115 25.9039C33.8073 25.8307 33.6917 25.7752 33.5694 25.7397L21.786 22.1848C21.5329 22.1083 21.2609 22.123 21.0175 22.2264C20.7741 22.3299 20.5747 22.5155 20.4542 22.7509C20.3336 22.9863 20.2996 23.2565 20.3579 23.5145C20.4162 23.7724 20.5632 24.0017 20.7733 24.1624Z" fill="#8400D1"/>
<path d="M55.9595 41.5125L65.8646 49.0978C65.982 49.1896 66.1171 49.256 66.2615 49.2929L78.1817 52.4714C78.437 52.5377 78.7074 52.5128 78.9463 52.4011C79.1852 52.2894 79.3776 52.0977 79.4903 51.8593C79.6031 51.6209 79.629 51.3506 79.5638 51.095C79.4985 50.8395 79.3461 50.6147 79.1329 50.4596L69.1081 43.254C69.0033 43.1818 68.8878 43.1264 68.7659 43.0898L56.9689 39.5349C56.716 39.4599 56.4449 39.4757 56.2026 39.5797C55.9602 39.6837 55.7619 39.8692 55.642 40.1041C55.5221 40.339 55.4882 40.6084 55.5462 40.8657C55.6042 41.123 55.7505 41.3518 55.9595 41.5125Z" fill="#8400D1"/>
<path d="M36.5249 66.5845L44.1137 56.6898C44.2046 56.5681 44.2709 56.4298 44.3087 56.2826L47.4838 44.3624C47.5501 44.1071 47.5252 43.8367 47.4135 43.5978C47.3018 43.3589 47.1102 43.1665 46.8717 43.0537C46.6333 42.941 46.363 42.915 46.1074 42.9803C45.8519 43.0455 45.6271 43.198 45.472 43.4112L38.2664 53.436C38.1905 53.5386 38.1348 53.6547 38.1022 53.7781L34.5439 65.5718C34.4701 65.8248 34.4867 66.0956 34.5911 66.3376C34.6954 66.5796 34.8809 66.7776 35.1155 66.8976C35.3502 67.0175 35.6193 67.0519 35.8766 66.9948C36.1338 66.9376 36.3631 66.7925 36.5249 66.5845Z" fill="#8400D1"/>
<path d="M53.8893 31.3985L61.478 21.5003C61.5684 21.3821 61.6347 21.2472 61.673 21.1034L64.8378 9.18317C64.9042 8.9279 64.8793 8.65749 64.7676 8.41858C64.6558 8.17968 64.4642 7.98726 64.2258 7.87453C63.9873 7.7618 63.717 7.73583 63.4615 7.80109C63.206 7.86635 62.9812 8.01875 62.826 8.23201L55.6205 18.2568C55.5455 18.36 55.4899 18.4759 55.4563 18.5989L51.8946 30.3823C51.8099 30.6392 51.82 30.9179 51.9229 31.1681C52.0259 31.4182 52.2151 31.6232 52.4561 31.746C52.6971 31.8687 52.9741 31.9012 53.237 31.8375C53.4999 31.7737 53.7312 31.618 53.8893 31.3985Z" fill="#8400D1"/>
<path d="M19.8631 48.6362L32.2281 47.0042C32.375 46.985 32.5168 46.9373 32.6455 46.8639L43.3204 40.6779C43.5468 40.544 43.7195 40.3353 43.8089 40.0878C43.8982 39.8403 43.8986 39.5695 43.8099 39.3217C43.7213 39.074 43.5491 38.8649 43.3231 38.7303C43.097 38.5956 42.8311 38.5439 42.5711 38.584L30.384 40.5787C30.2643 40.5983 30.1486 40.6376 30.0418 40.6951L19.1925 46.5115C18.9538 46.6325 18.7659 46.8343 18.6622 47.081C18.5585 47.3277 18.5458 47.6032 18.6263 47.8583C18.7069 48.1135 18.8754 48.3318 19.1019 48.4743C19.3284 48.6167 19.5982 48.6741 19.8631 48.6362Z" fill="#8400D1"/>
<path d="M57.0132 36.0244L69.3748 34.3855C69.5231 34.3658 69.6662 34.3169 69.7956 34.2418L80.4705 28.0593C80.6993 27.9265 80.8744 27.7176 80.9653 27.4692C81.0562 27.2207 81.0572 26.9482 80.9682 26.699C80.8792 26.4498 80.7057 26.2397 80.4779 26.105C80.2501 25.9704 79.9824 25.9198 79.7212 25.962L67.5341 27.9567C67.4146 27.979 67.2992 28.0193 67.1919 28.0764L56.3426 33.8929C56.0983 34.0107 55.9046 34.2126 55.7969 34.4615C55.6892 34.7105 55.6747 34.9899 55.7561 35.2486C55.8375 35.5074 56.0094 35.7282 56.2402 35.8706C56.471 36.0131 56.7454 36.0677 57.0132 36.0244Z" fill="#8400D1"/>
<path d="M60.9992 67.4944L59.3638 55.1294C59.3435 54.9823 59.2947 54.8405 59.2201 54.712L53.0376 44.0371C52.9061 43.8065 52.6976 43.6295 52.4486 43.5373C52.1996 43.4451 51.9261 43.4436 51.6762 43.5331C51.4262 43.6225 51.2157 43.7972 51.0818 44.0264C50.9478 44.2556 50.8989 44.5247 50.9437 44.7864L52.9383 56.9667C52.9606 57.0862 53.001 57.2016 53.0581 57.3089L58.8745 68.1582C58.9956 68.3956 59.1969 68.5825 59.4425 68.6858C59.6882 68.7892 59.9625 68.8022 60.2169 68.7228C60.4713 68.6433 60.6894 68.4764 60.8326 68.2516C60.9757 68.0268 61.0348 67.7586 60.9992 67.4944Z" fill="#8400D1"/>
<path d="M48.3845 30.3449L46.7524 17.9832C46.7339 17.8351 46.6862 17.6921 46.6122 17.5624L40.4262 6.88756C40.2922 6.66112 40.0836 6.4884 39.8361 6.39906C39.5886 6.30973 39.3178 6.30935 39.07 6.398C38.8223 6.48665 38.6132 6.65879 38.4785 6.88486C38.3439 7.11093 38.2922 7.37681 38.3323 7.63686L40.327 19.824C40.3463 19.9442 40.3869 20.0601 40.4468 20.1661L46.2632 31.0155C46.3856 31.2515 46.5874 31.4368 46.833 31.5387C47.0786 31.6405 47.3523 31.6524 47.6059 31.5723C47.8594 31.4921 48.0765 31.3251 48.2189 31.1005C48.3614 30.876 48.42 30.6084 48.3845 30.3449Z" fill="#8400D1"/>
</g>
</g>
</svg>
